<?xml version="1.0" encoding="UTF-8" standalone="no"?>
<svg
   xmlns:dc="http://purl.org/dc/elements/1.1/"
   xmlns:cc="http://creativecommons.org/ns#"
   xmlns:rdf="http://www.w3.org/1999/02/22-rdf-syntax-ns#"
   xmlns:svg="http://www.w3.org/2000/svg"
   xmlns="http://www.w3.org/2000/svg"
   xmlns:sodipodi="http://sodipodi.sourceforge.net/DTD/sodipodi-0.dtd"
   xmlns:inkscape="http://www.inkscape.org/namespaces/inkscape"
   width="283.23071"
   height="241.22729"
   viewBox="0 0 283.23071 241.22729"
   version="1.1"
   id="svg53"
   sodipodi:docname="counter-right-leaf-desktop.svg"
   style="fill:none"
   inkscape:version="0.92.4 (5da689c313, 2019-01-14)">
  <metadata
     id="metadata57">
    <rdf:RDF>
      <cc:Work
         rdf:about="">
        <dc:format>image/svg+xml</dc:format>
        <dc:type
           rdf:resource="http://purl.org/dc/dcmitype/StillImage" />
        <dc:title></dc:title>
      </cc:Work>
    </rdf:RDF>
  </metadata>
  <sodipodi:namedview
     pagecolor="#ffffff"
     bordercolor="#666666"
     borderopacity="1"
     objecttolerance="10"
     gridtolerance="10"
     guidetolerance="10"
     inkscape:pageopacity="0"
     inkscape:pageshadow="2"
     inkscape:window-width="716"
     inkscape:window-height="840"
     id="namedview55"
     showgrid="false"
     fit-margin-top="0"
     fit-margin-left="0"
     fit-margin-right="0"
     fit-margin-bottom="0"
     inkscape:zoom="0.58852868"
     inkscape:cx="112.85971"
     inkscape:cy="136.63757"
     inkscape:window-x="0"
     inkscape:window-y="0"
     inkscape:window-maximized="0"
     inkscape:current-layer="svg53" />
  <g
     clip-path="url(#clip0)"
     id="g46"
     transform="translate(-71.640295,-95.910285)"
     inkscape:export-xdpi="96"
     inkscape:export-ydpi="96">
    <path
       d="m 270.936,115.824 c 0,0 10.639,50.488 -40.683,59.005 -42.067,7.019 -54.826,60.901 -54.826,60.901"
       stroke-miterlimit="10"
       id="path2"
       inkscape:connector-curvature="0"
       style="stroke:#ff644e;stroke-width:3;stroke-linecap:round;stroke-linejoin:round;stroke-miterlimit:10" />
    <path
       d="m 265.263,117.063 c -4.102,-2.633 -5.292,-8.093 -2.659,-12.195 2.633,-4.102 8.093,-5.2925 12.195,-2.659 4.102,2.633 5.293,8.093 2.659,12.195 -2.633,4.101 -8.093,5.292 -12.195,2.659 z"
       id="path4"
       inkscape:connector-curvature="0"
       style="fill:#ff644e" />
    <path
       d="m 235.076,139.39 c 0,0 -44.262,26.586 -15.554,70.014 23.505,35.576 -7.296,81.656 -7.296,81.656"
       stroke-miterlimit="10"
       id="path6"
       inkscape:connector-curvature="0"
       style="stroke:#ff644e;stroke-width:3;stroke-linecap:round;stroke-linejoin:round;stroke-miterlimit:10" />
    <path
       d="m 231.152,144.555 c -4.102,-2.633 -5.293,-8.093 -2.66,-12.195 2.633,-4.102 8.093,-5.292 12.195,-2.659 4.102,2.633 5.293,8.093 2.66,12.195 -2.633,4.102 -8.093,5.292 -12.195,2.659 z"
       id="path8"
       inkscape:connector-curvature="0"
       style="fill:#ff644e" />
    <path
       d="m 87.7835,221.42 c -12.1188,15.269 -18.0439,34.757 -15.6016,54.13 2.7271,21.018 15.4209,45.508 56.4711,56.982 79.268,22.227 121.988,-42.421 131.949,-57.368 9.96,-14.946 31.848,-64.431 94.269,-138.871 0,0 -80.041,59.714 -142.397,44.197 -66.729,-16.495 -106.441,18.011 -124.6905,40.93 z"
       id="path10"
       inkscape:connector-curvature="0"
       style="fill:#ff644e" />
    <path
       d="M 81.1077,243.598 C 111.311,255.06 208.693,282.696 278.468,195.66"
       stroke-miterlimit="10"
       id="path12"
       inkscape:connector-curvature="0"
       style="stroke:#ffffff;stroke-width:3;stroke-linecap:round;stroke-linejoin:round;stroke-miterlimit:10" />
    <path
       d="m 229.114,196.172 c 0,0 -4.642,29.459 -28.588,53.842"
       stroke-miterlimit="10"
       id="path14"
       inkscape:connector-curvature="0"
       style="stroke:#ffffff;stroke-width:3;stroke-linecap:round;stroke-linejoin:round;stroke-miterlimit:10" />
    <path
       d="m 169.854,255.81 c 26.422,-27.672 27.608,-61.056 27.608,-61.056"
       stroke-miterlimit="10"
       id="path16"
       inkscape:connector-curvature="0"
       style="stroke:#ffffff;stroke-width:3;stroke-linecap:round;stroke-linejoin:round;stroke-miterlimit:10" />
    <path
       d="m 131.617,255.535 c 25.044,-31.605 22.986,-66.584 22.986,-66.584"
       stroke-miterlimit="10"
       id="path18"
       inkscape:connector-curvature="0"
       style="stroke:#ffffff;stroke-width:3;stroke-linecap:round;stroke-linejoin:round;stroke-miterlimit:10" />
    <path
       d="m 164.933,329.968 c 0,0 -13.99,-45.078 -66.7905,-80.802"
       stroke-miterlimit="10"
       id="path20"
       inkscape:connector-curvature="0"
       style="stroke:#ffffff;stroke-width:3;stroke-linecap:round;stroke-linejoin:round;stroke-miterlimit:10" />
    <path
       d="m 198.138,320.799 c 0,0 -10.731,-39.327 -52.122,-63.947"
       stroke-miterlimit="10"
       id="path22"
       inkscape:connector-curvature="0"
       style="stroke:#ffffff;stroke-width:3;stroke-linecap:round;stroke-linejoin:round;stroke-miterlimit:10" />
    <path
       d="m 230.291,296.924 c 0,0 -10.92,-27.253 -54.722,-41.469"
       stroke-miterlimit="10"
       id="path24"
       inkscape:connector-curvature="0"
       style="stroke:#ffffff;stroke-width:3;stroke-linecap:round;stroke-linejoin:round;stroke-miterlimit:10" />
    <path
       d="m 283.867,173.762 c 28.062,-38.205 62.26,-37.715 70.301,-36.943 0.086,0.056 0.142,-0.031 0.228,0.025 -62.026,74.205 -83.889,123.462 -93.85,138.409 -5.242,7.976 -19.78,29.862 -44.076,45.484 38.122,-60.526 21.807,-59.048 54.364,-125.342 4.181,-8.413 8.499,-15.519 13.033,-21.633 z"
       id="path26"
       inkscape:connector-curvature="0"
       style="fill:#c6110c" />
    <path
       d="m 245.017,103.577 c 0,0 -44.405,15.031 -53.032,70.833 -8.626,55.803 -56.427,55.605 -77.267,39.056 -20.8402,-16.548 -36.3117,-45.26 -11.524,-73.616 24.788,-28.355 76.584,-47.2992 141.823,-36.273 z"
       id="path28"
       inkscape:connector-curvature="0"
       style="fill:#c6110c" />
    <path
       d="m 239.872,99.0553 c 0,0 -44.405,15.0307 -53.032,70.8327 -8.627,55.803 -49.454,63.74 -70.294,47.191 C 95.7057,200.53 73.261,163.684 98.0488,135.328 122.954,107.17 174.719,88.0842 239.872,99.0553 Z"
       id="path30"
       inkscape:connector-curvature="0"
       style="fill:#ff644e" />
    <path
       d="m 212.337,105.281 c 0,0 -49.921,0.636 -90.669,100.208"
       stroke-miterlimit="10"
       id="path32"
       inkscape:connector-curvature="0"
       style="stroke:#ffffff;stroke-width:3;stroke-linecap:round;stroke-linejoin:round;stroke-miterlimit:10" />
    <path
       d="m 194.351,133.489 c 0,0 -9.653,-13.269 -24.348,-5.386"
       stroke-miterlimit="10"
       id="path34"
       inkscape:connector-curvature="0"
       style="stroke:#ffffff;stroke-width:3;stroke-linecap:round;stroke-linejoin:round;stroke-miterlimit:10" />
    <path
       d="m 136.415,116.786 c 0,0 21.115,12.701 10.349,40.301"
       stroke-miterlimit="10"
       id="path36"
       inkscape:connector-curvature="0"
       style="stroke:#ffffff;stroke-width:3;stroke-linecap:round;stroke-linejoin:round;stroke-miterlimit:10" />
    <path
       d="m 158.417,110.06 c 0,0 8.763,9.527 5.978,22.983"
       stroke-miterlimit="10"
       id="path38"
       inkscape:connector-curvature="0"
       style="stroke:#ffffff;stroke-width:3;stroke-linecap:round;stroke-linejoin:round;stroke-miterlimit:10" />
    <path
       d="m 183.364,154.976 c 0,0 -11.146,-15.692 -27.15,-11.088"
       stroke-miterlimit="10"
       id="path40"
       inkscape:connector-curvature="0"
       style="stroke:#ffffff;stroke-width:3;stroke-linecap:round;stroke-linejoin:round;stroke-miterlimit:10" />
    <path
       d="m 136.447,174.489 c 0,0 -2.392,-26.291 -21.953,-37.994"
       stroke-miterlimit="10"
       id="path42"
       inkscape:connector-curvature="0"
       style="stroke:#ffffff;stroke-width:3;stroke-linecap:round;stroke-linejoin:round;stroke-miterlimit:10" />
    <path
       d="m 142.501,164.106 c 0,0 20.89,-1.955 33.675,21.252"
       stroke-miterlimit="10"
       id="path44"
       inkscape:connector-curvature="0"
       style="stroke:#ffffff;stroke-width:3;stroke-linecap:round;stroke-linejoin:round;stroke-miterlimit:10" />
  </g>
  <defs
     id="defs51">
    <clipPath
       id="clip0">
      <rect
         width="217.05499"
         height="292.272"
         transform="matrix(-0.84153,-0.54021,-0.540211,0.84153,354.871,136.293)"
         id="rect48"
         x="0"
         y="0"
         style="fill:#ffffff" />
    </clipPath>
  </defs>
</svg>
