<svg width="32" height="31" viewBox="0 0 32 31" fill="none" xmlns="http://www.w3.org/2000/svg">
<path d="M12.9389 20.3636C12.5915 20.3636 12.331 20.2768 12.0705 20.0163L7.46804 15.7612C6.94701 15.2402 6.94701 14.4586 7.3812 13.9376C7.90224 13.4166 8.68378 13.4166 9.20481 13.8507L12.852 17.2374L29.7855 0.390773C30.3066 -0.130258 31.0881 -0.130258 31.6092 0.390773C32.1302 0.911805 32.1302 1.69335 31.6092 2.21438L13.8941 19.9294C13.6336 20.19 13.2862 20.3636 12.9389 20.3636Z" fill="#FFE428"/>
<path d="M13.8942 30.4369C6.25238 30.4369 0 24.1845 0 16.5427C0 8.90093 6.25238 2.64856 13.8942 2.64856C15.4573 2.64856 16.9335 2.90908 18.4098 3.43011C19.1045 3.69062 19.4518 4.38533 19.1913 5.08004C18.9308 5.77475 18.2361 6.1221 17.5414 5.86159C16.3256 5.42739 15.1099 5.25372 13.8942 5.25372C7.72863 5.25372 2.60516 10.2904 2.60516 16.5427C2.60516 22.7951 7.64179 27.8317 13.8942 27.8317C20.1465 27.8317 25.1832 22.7951 25.1832 16.5427C25.1832 15.9349 25.0963 15.2401 25.0095 14.6323C24.9227 13.9376 25.3569 13.2429 26.0516 13.156C26.7463 13.0692 27.441 13.5034 27.5278 14.1981C27.7015 14.9796 27.7015 15.7612 27.7015 16.5427C27.7015 24.1845 21.536 30.4369 13.8942 30.4369Z" fill="#FFE428"/>
</svg>
