<svg width="556" height="64" viewBox="0 0 556 64" fill="none" xmlns="http://www.w3.org/2000/svg">
<path d="M300.181 34.1695C262.14 30.9042 224.589 21.598 186.385 21.2715C168.752 21.1082 147.201 21.4347 130.874 29.2715C115.364 36.7818 102.956 50.0063 86.6289 56.537C79.1187 59.4758 71.1186 60.6186 63.1186 61.2717C-1.20828 65.6799 -55.5759 28.4552 -114.678 10.8224C-138.352 3.80197 -164.638 12.6183 -188.311 17.353C-219.985 23.5572 -251.169 34.0062 -283.822 32.7C-354.679 29.598 -440.721 -6.64711 -469.292 -76.3618C-481.537 -106.403 -484.639 -142.974 -467.17 -171.872C-447.088 -204.852 -404.802 -214.648 -367.741 -225.26C-326.108 -237.179 -286.434 -262.322 -256.72 -294.322C-235.169 -317.506 -225.373 -348.2 -207.087 -373.669C-186.515 -402.404 -148.474 -422.159 -113.209 -409.751C-75.6576 -396.527 -48.5554 -370.404 -6.59601 -367.465C23.9348 -365.343 52.6696 -374.159 82.7106 -375.139C127.282 -376.771 172.18 -355.873 199.609 -320.608C212.67 -303.791 222.14 -284.036 237.487 -269.505C265.405 -242.893 307.855 -238.158 346.222 -241.097C384.753 -244.199 423.284 -264.934 461.488 -259.22C505.407 -252.689 549.815 -218.403 552.917 -170.403C556.999 -109.341 527.448 -51.5452 480.917 -13.1776C431.121 27.6389 363.365 39.5573 300.181 34.1695Z" stroke="#9DD4F9" stroke-width="4" stroke-linejoin="round" stroke-dasharray="3.5 3.5"/>
</svg>
