<svg width="501" height="71" viewBox="0 0 501 71" fill="none" xmlns="http://www.w3.org/2000/svg">
<path d="M782.133 41.372C744.092 38.1067 706.541 28.8005 668.336 28.474C650.704 28.3107 629.153 28.6373 612.826 36.474C597.316 43.9843 584.907 57.2088 568.581 63.7395C561.071 66.6783 553.071 67.8211 545.07 68.4742C480.744 72.8824 426.376 35.6577 367.274 18.0249C343.6 11.0045 317.314 19.8208 293.641 24.5556C261.967 30.7597 230.783 41.2087 198.13 39.9026C127.272 36.8005 41.2312 0.555406 12.6596 -69.1592C0.414643 -99.2002 -2.68741 -135.772 14.7821 -164.67C34.8638 -197.65 77.1497 -207.446 114.211 -218.058C155.844 -229.976 195.518 -255.119 225.232 -287.12C246.783 -310.303 256.579 -340.997 274.865 -366.467C295.437 -395.202 333.478 -414.957 368.743 -402.549C406.294 -389.324 433.396 -363.202 475.356 -360.263C505.887 -358.14 534.622 -366.957 564.662 -367.936C609.234 -369.569 654.132 -348.671 681.561 -313.405C694.622 -296.589 704.092 -276.834 719.439 -262.303C747.357 -235.691 789.806 -230.956 828.174 -233.895C866.705 -236.997 905.236 -257.731 943.44 -252.017C987.359 -245.487 1031.77 -211.201 1034.87 -163.2C1038.95 -102.139 1009.4 -44.3426 962.869 -5.97511C913.072 34.8414 845.317 46.7598 782.133 41.372Z" stroke="#9DD4F9" stroke-width="4" stroke-linejoin="round" stroke-dasharray="3.5 3.5"/>
</svg>
