<?xml version="1.0" encoding="UTF-8" standalone="no"?>
<svg
   xmlns:dc="http://purl.org/dc/elements/1.1/"
   xmlns:cc="http://creativecommons.org/ns#"
   xmlns:rdf="http://www.w3.org/1999/02/22-rdf-syntax-ns#"
   xmlns:svg="http://www.w3.org/2000/svg"
   xmlns="http://www.w3.org/2000/svg"
   xmlns:sodipodi="http://sodipodi.sourceforge.net/DTD/sodipodi-0.dtd"
   xmlns:inkscape="http://www.inkscape.org/namespaces/inkscape"
   width="241.0222"
   height="627.71637"
   viewBox="0 0 241.0222 627.71637"
   version="1.1"
   id="svg48"
   sodipodi:docname="s001-07.svg"
   style="fill:none"
   inkscape:version="0.92.4 (5da689c313, 2019-01-14)">
  <metadata
     id="metadata54">
    <rdf:RDF>
      <cc:Work
         rdf:about="">
        <dc:format>image/svg+xml</dc:format>
        <dc:type
           rdf:resource="http://purl.org/dc/dcmitype/StillImage" />
        <dc:title></dc:title>
      </cc:Work>
    </rdf:RDF>
  </metadata>
  <defs
     id="defs52" />
  <sodipodi:namedview
     pagecolor="#ffffff"
     bordercolor="#666666"
     borderopacity="1"
     objecttolerance="10"
     gridtolerance="10"
     guidetolerance="10"
     inkscape:pageopacity="0"
     inkscape:pageshadow="2"
     inkscape:window-width="716"
     inkscape:window-height="480"
     id="namedview50"
     showgrid="false"
     fit-margin-top="0"
     fit-margin-left="0"
     fit-margin-right="0"
     fit-margin-bottom="0"
     inkscape:zoom="0.37519873"
     inkscape:cx="121.00003"
     inkscape:cy="313.94832"
     inkscape:window-x="0"
     inkscape:window-y="0"
     inkscape:window-maximized="0"
     inkscape:current-layer="svg48" />
  <path
     d="m 39.008731,265.93001 c -10.419,110.037 29.8779,148.81 32.7891,332.562 l 20.838,-0.153 c 14.403199,-118.312 20.991199,-229.882 19.765199,-334.708 z"
     id="path2"
     inkscape:connector-curvature="0"
     style="clip-rule:evenodd;fill:#030047;fill-rule:evenodd" />
  <path
     d="m 12.041931,594.04801 c 37.6922,-93.332 67.2637,-155.86 88.408099,-187.583 -41.216299,-52.72 -61.134899,-98.85 -59.755899,-138.389 l 47.0386,-19.923 c 48.264299,54.712 71.860299,105.132 70.941299,151.262 -5.363,31.417 -48.571,99.156 -129.931099,203.062 z"
     id="path4"
     inkscape:connector-curvature="0"
     style="clip-rule:evenodd;fill:#2b2b68;fill-rule:evenodd" />
  <path
     d="m 72.104231,587.76501 c -3.3708,6.436 -3.9837,11.953 -1.6854,16.704 23.1363,2.452 41.982199,3.372 56.691199,2.452 1.686,-12.107 -25.741,-11.34 -32.329099,-23.754 -6.7417,3.985 -14.4028,5.364 -22.6767,4.598 z"
     id="path6"
     inkscape:connector-curvature="0"
     style="clip-rule:evenodd;fill:#ffe428;fill-rule:evenodd" />
  <path
     d="m 17.557831,581.32801 c -5.8224,4.291 -9.3464396,9.502 -10.2657596,15.632 8.4271596,8.889 28.9586596,23.448 53.6271596,17.931 0.6129,-14.406 -26.5071,-5.671 -24.2088,-22.988 -6.895,-0.307 -13.3302,-3.985 -19.1526,-10.575 z"
     id="path8"
     inkscape:connector-curvature="0"
     style="clip-rule:evenodd;fill:#ffe428;fill-rule:evenodd" />
  <path
     d="m 47.895431,126.77501 85.956599,-19.77 68.643,-77.086803 11.185,6.2835 c -21.298,47.2024 -41.063,80.152303 -59.296,99.002303 -16.395,14.406 -40.451,22.222 -72.013999,23.142 -12.7173,-7.51 -24.2088,-18.085 -34.4746,-31.571 z"
     id="path10"
     inkscape:connector-curvature="0"
     style="clip-rule:evenodd;fill:#f9ae10;fill-rule:evenodd" />
  <path
     d="m 29.049331,305.16301 c 42.9017,21.456 79.214699,20.536 108.633699,-2.758 -32.79,-57.93 -7.661,-87.509 -18.234,-152.795 -9.193,-48.735 -72.013299,-47.049 -82.278999,-14.406 -15.3221,40.306 -18.08,97.01 -8.1207,169.959 z"
     id="path12"
     inkscape:connector-curvature="0"
     style="clip-rule:evenodd;fill:#f9ae10;fill-rule:evenodd" />
  <path
     d="m 202.64803,30.531207 c 1.839,-8.429 6.895,-15.4787 15.016,-21.4555898 4.749,-3.52486 11.491,-6.43669 20.225,-8.58226 2.911,-1.22603158 3.83,-0.15325 2.604,3.0651 -4.136,3.21834 -8.427,6.28345 -12.87,9.3485498 3.371,1.9923 4.75,6.1302 4.137,12.2603 -3.065,6.2835 -9.653,10.4213 -20.072,12.8734 z"
     id="path14"
     inkscape:connector-curvature="0"
     style="clip-rule:evenodd;fill:#ffe4c4;fill-rule:evenodd" />
  <path
     d="m 163.88303,264.24401 -114.608599,41.226 c -9.9593,3.525 -20.6847,-1.073 -23.9024,-10.268 l -13.0237,-36.322 -11.3383196,-31.723 c -1.83864098,-4.904 -1.07253878,-10.268 1.53221,-14.559 2.29831,-3.678 5.82237,-6.897 10.4190096,-8.429 l 85.9566,-30.805 28.652199,-10.268 c 4.597,-1.685 9.193,-1.532 13.33,0 4.903,1.686 8.734,5.364 10.419,10.268 l 24.362,67.892 c 3.371,9.042 -1.838,19.464 -11.798,22.988 z"
     id="path16"
     inkscape:connector-curvature="0"
     style="fill:#e3e5fc" />
  <path
     d="m 92.482531,230.52801 h 20.991499 c 0,11.648 -9.5,21.15 -21.144699,21.15 -11.6448,0 -21.1444,-9.502 -21.1444,-21.15 0,-11.647 9.4996,-21.149 21.1444,-21.149 7.5078,0 14.555699,3.985 18.233699,10.575 z"
     id="path18"
     inkscape:connector-curvature="0"
     style="fill:#a7adff" />
  <path
     d="m 103.36103,176.27601 -19.611999,32.031 34.933999,70.497 -10.878,9.501 c -40.910299,-40.459 -60.369299,-68.504 -58.377399,-84.136 3.5241,-21.609 12.2576,-43.065 26.3539,-64.52 13.0237,-20.23 51.482499,-5.058 27.579499,36.627 z"
     id="path20"
     inkscape:connector-curvature="0"
     style="clip-rule:evenodd;fill:#fdc510;fill-rule:evenodd" />
  <path
     d="m 107.34503,286.46601 c 2.145,3.219 5.056,5.058 9.04,4.291 4.903,-0.613 6.435,-0.306 11.645,-3.678 5.975,-3.831 11.644,-6.436 9.806,-13.486 l -16.701,0.306 -5.516,-0.919 z"
     id="path22"
     inkscape:connector-curvature="0"
     style="clip-rule:evenodd;fill:#ffe4c4;fill-rule:evenodd" />
  <path
     d="m 52.798531,118.65301 c 4.4434,9.042 13.6366,10.574 27.8861,4.444 -5.8224,-6.743 -7.3546,-14.099 -4.5966,-21.762 l -18.3865,-1.226 c 2.9112,7.969 1.379,14.253 -4.903,18.544 z"
     id="path24"
     inkscape:connector-curvature="0"
     style="clip-rule:evenodd;fill:#ffe4c4;fill-rule:evenodd" />
  <path
     d="m 76.241231,100.26201 0.1532,5.517 0.1533,8.123 0.1532,5.364 c 0.1532,3.218 -2.4515,5.977 -5.8224,6.13 -7.9675,0.306 -15.6285,-5.517 -15.6285,-5.517 l 1.2258,-24.980903 c 3.3708,-3.5248 19.7654,5.363903 19.7654,5.363903 z"
     id="path26"
     inkscape:connector-curvature="0"
     style="fill:#ffe4c4" />
  <path
     d="m 96.313131,56.737707 11.491899,15.4787 c 0.306,0.3065 0.306,0.9196 0,1.2261 l -5.67,7.9692 z"
     id="path28"
     inkscape:connector-curvature="0"
     style="fill:#ffe4c4" />
  <path
     d="m 90.950431,42.331807 14.249599,35.7083 1.992,5.0574 2.145,5.3639 c 1.838,4.7509 0,9.9616 -4.137,12.566603 -1.073,0.613 -2.145,1.073 -3.371,1.38 l -2.911099,0.613 -11.3384,2.452 c -15.4752,3.218 -31.4101,-4.598 -38.4583,-19.003903 l -12.1044,-25.287 c 0,0 14.8624,-38.0071 53.9336,-18.8503 z"
     id="path30"
     inkscape:connector-curvature="0"
     style="fill:#ffe4c4" />
  <path
     d="m 91.563331,43.711207 c -0.1532,0 -7.5078,-1.3793 -16.2414,0.1532 -8.8868,1.5326 -6.4352,11.3409 -6.4352,11.3409 4.2901,12.5668 -7.2014,13.7929 -7.2014,13.7929 0,0 -4.2902,-8.2758 -14.4027,-5.0574 -9.9593,3.2183 6.1288,19.0035 6.1288,19.0035 l 3.5241,13.9462 -0.6129,5.363503 c 0,0 -16.701,-20.382503 -30.6441,-42.144603 -0.6129,-0.9195 -1.0725,-1.9923 -1.5322,-2.9118 -4.5966,-11.9539 8.5803,-24.5208 23.5959,-31.4172 0.6129,-0.3065 25.8943,-9.3485 28.8055,-24.3674698 0,0 15.7817,3.52485 21.4508,14.2526698 3.524499,6.4367 3.217499,15.4787 -6.4352,28.0456 z"
     id="path32"
     inkscape:connector-curvature="0"
     style="fill:#2b2b68" />
  <path
     d="m 91.563231,43.711207 c -0.1532,0 -7.5078,-1.3793 -16.2413,0.1532 -8.8868,1.5326 -6.4353,11.3409 -6.4353,11.3409 4.2902,12.5668 -7.2013,13.7929 -7.2013,13.7929 0,0 -4.2902,-8.2758 -14.4028,-5.0574 -9.9593,3.2183 6.1289,19.0035 6.1289,19.0035 l 3.524,13.9462 -0.6129,5.363503 c 0,0 -16.701,-20.382403 -30.644,-42.144603 -0.6129,-0.9195 -1.0726,-1.9923 -1.5322,-2.9118 6.4352,11.8006 33.2488,-1.5326 36.6196,-9.5018 3.2177,-7.9692 10.1126,-16.0917 24.975,-18.084 14.709099,-1.9923 12.4108,-13.6397 12.4108,-13.9462 3.371299,6.4367 3.064299,15.4787 -6.5885,28.0456 z"
     id="path34"
     inkscape:connector-curvature="0"
     style="fill:#030047" />
  <path
     d="m 67.047931,615.96301 c -1.379,2.912 -2.2983,5.364 -4.2901,10.422 -1.5322,3.831 -16.5479,-1.533 -22.0638,-4.445 l -33.4020396,-17.471 c -4.74983,-2.452 -4.90305,-7.662 -2.75797,-12.567 l 2.14509,-4.904 c 11.9512196,19.004 37.6922196,31.264 60.3688196,28.965 z"
     id="path36"
     inkscape:connector-curvature="0"
     style="fill:#536fb7" />
  <path
     d="m 46.669631,579.33601 c 1.5322,11.647 9.9593,19.616 18.3865,29.731 3.6773,4.444 1.8386,8.276 0.9193,9.808 -0.9193,2.146 -10.1126,0.92 -12.8705,0.307 -11.3383,-2.759 -22.0638,-8.276 -35.3939,-15.939 -4.4434,-2.605 -9.6529296,-4.751 -11.9512396,-8.888 -1.68542,-2.912 0,-5.977 1.07254,-8.889 2.60475,-7.663 13.7897996,-14.866 13.7897996,-14.866 0,0 5.8224,8.736 8.8868,11.341 3.0644,2.605 7.3546,4.291 11.1851,3.525 2.758,-0.766 5.0563,-3.985 5.9756,-6.13 z"
     id="path38"
     inkscape:connector-curvature="0"
     style="fill:#b1c4e5" />
  <path
     d="m 36.307531,597.61201 15.0753,-4.125 -1.6174,-5.913 -15.0753,4.125 z"
     id="path40"
     inkscape:connector-curvature="0"
     style="fill:#536fb7" />
  <path
     d="m 127.41703,596.96001 c 0.153,2.912 0.459,5.364 1.072,10.268 0.46,3.678 -13.943,5.977 -19.765,6.13 l -34.474699,0.613 c -4.903,0.153 -7.3546,-3.985 -7.8142,-8.889 l -0.4597,-4.904 c 18.08,9.962 44.127599,8.582 61.441599,-3.218 z"
     id="path42"
     inkscape:connector-curvature="0"
     style="fill:#536fb7" />
  <path
     d="m 94.780831,576.42401 c 6.282199,8.735 16.701199,11.494 27.886199,15.785 4.903,1.992 5.056,5.824 5.209,7.509 0.154,2.146 -7.814,5.211 -10.265,5.824 -10.266,2.759 -21.451199,3.065 -35.547499,2.759 -4.7498,-0.154 -9.8061,0.306 -13.6366,-1.993 -2.6047,-1.686 -2.6047,-4.904 -3.0644,-7.662 -1.2258,-7.203 4.5966,-18.085 4.5966,-18.085 0,0 8.5804,4.445 12.1044,5.211 3.6773,0.766 7.8143,0.153 10.5723,-1.992 2.145,-1.533 2.4515,-5.211 2.145,-7.356 z"
     id="path44"
     inkscape:connector-curvature="0"
     style="fill:#b1c4e5" />
  <path
     d="m 94.629931,595.65901 10.367099,-10.001 -3.829,-3.971 -10.367299,10 z"
     id="path46"
     inkscape:connector-curvature="0"
     style="fill:#536fb7" />
</svg>
