<?xml version="1.0" encoding="UTF-8" standalone="no"?>
<svg
   xmlns:dc="http://purl.org/dc/elements/1.1/"
   xmlns:cc="http://creativecommons.org/ns#"
   xmlns:rdf="http://www.w3.org/1999/02/22-rdf-syntax-ns#"
   xmlns:svg="http://www.w3.org/2000/svg"
   xmlns="http://www.w3.org/2000/svg"
   xmlns:sodipodi="http://sodipodi.sourceforge.net/DTD/sodipodi-0.dtd"
   xmlns:inkscape="http://www.inkscape.org/namespaces/inkscape"
   width="292.26593"
   height="327.168"
   viewBox="0 0 292.26593 327.168"
   version="1.1"
   id="svg53"
   sodipodi:docname="s001-05.svg"
   style="fill:none"
   inkscape:version="0.92.4 (5da689c313, 2019-01-14)">
  <metadata
     id="metadata57">
    <rdf:RDF>
      <cc:Work
         rdf:about="">
        <dc:format>image/svg+xml</dc:format>
        <dc:type
           rdf:resource="http://purl.org/dc/dcmitype/StillImage" />
        <dc:title></dc:title>
      </cc:Work>
    </rdf:RDF>
  </metadata>
  <sodipodi:namedview
     pagecolor="#ffffff"
     bordercolor="#666666"
     borderopacity="1"
     objecttolerance="10"
     gridtolerance="10"
     guidetolerance="10"
     inkscape:pageopacity="0"
     inkscape:pageshadow="2"
     inkscape:window-width="716"
     inkscape:window-height="480"
     id="namedview55"
     showgrid="false"
     fit-margin-top="0"
     fit-margin-left="0"
     fit-margin-right="0"
     fit-margin-bottom="0"
     inkscape:zoom="0.59296482"
     inkscape:cx="161.83707"
     inkscape:cy="175.42297"
     inkscape:window-x="0"
     inkscape:window-y="0"
     inkscape:window-maximized="0"
     inkscape:current-layer="svg53" />
  <g
     clip-path="url(#clip0)"
     id="g46"
     transform="translate(-0.162933,-47.254985)">
    <path
       d="m 103.921,64.5186 c 0,0 -35.1228,51.8824 18.671,85.0014 44.076,27.19 33.704,93.622 33.704,93.622"
       stroke-miterlimit="10"
       id="path2"
       inkscape:connector-curvature="0"
       style="stroke:#ff644e;stroke-width:3;stroke-linecap:round;stroke-linejoin:round;stroke-miterlimit:10" />
    <path
       d="m 109.73,68.5111 c 5.82,-1.0787 9.664,-6.671 8.585,-12.4906 -1.079,-5.8196 -6.671,-9.6629 -12.491,-8.5841 -5.82,1.0788 -9.6633,6.671 -8.5845,12.4907 1.0787,5.8196 6.6715,9.6628 12.4905,8.584 z"
       id="path4"
       inkscape:connector-curvature="0"
       style="fill:#ff644e" />
    <path
       d="m 133.427,107.463 c 0,0 37.567,50.195 -14.631,85.852 -42.746,29.215 -29.2561,95.153 -29.2561,95.153"
       stroke-miterlimit="10"
       id="path6"
       inkscape:connector-curvature="0"
       style="stroke:#ff644e;stroke-width:3;stroke-linecap:round;stroke-linejoin:round;stroke-miterlimit:10" />
    <path
       d="m 135.47,115.069 c 5.82,-1.079 9.664,-6.671 8.585,-12.491 -1.079,-5.8197 -6.671,-9.6629 -12.491,-8.5842 -5.82,1.0788 -9.663,6.6712 -8.584,12.4912 1.078,5.819 6.671,9.662 12.49,8.584 z"
       id="path8"
       inkscape:connector-curvature="0"
       style="fill:#ff644e" />
    <path
       d="m 261.398,267.258 c 6.621,22.726 4.342,47.355 -7.291,68.015 -12.708,22.38 -38.214,44.091 -89.63,38.159 C 65.1587,362.059 46.7858,269.778 42.4436,248.404 38.1013,227.03 36.1933,161.353 0.162933,49.0254 c 0,0 62.596367,103.8546 139.822067,115.0146 82.591,12.066 111.409,69.078 121.413,103.218 z"
       id="path10"
       inkscape:connector-curvature="0"
       style="fill:#ff644e" />
    <path
       d="M 258.73,295.254 C 219.514,294.286 97.3491,280.684 58.8287,150.821"
       stroke-miterlimit="10"
       id="path12"
       inkscape:connector-curvature="0"
       style="stroke:#ffffff;stroke-width:3;stroke-linecap:round;stroke-linejoin:round;stroke-miterlimit:10" />
    <path
       d="m 114.082,174.037 c 0,0 -8.295,35.25 7.442,73.649"
       stroke-miterlimit="10"
       id="path14"
       inkscape:connector-curvature="0"
       style="stroke:#ffffff;stroke-width:3;stroke-linecap:round;stroke-linejoin:round;stroke-miterlimit:10" />
    <path
       d="m 153.35,268.275 c -17.012,-43.232 -3.032,-81.31 -3.032,-81.31"
       stroke-miterlimit="10"
       id="path16"
       inkscape:connector-curvature="0"
       style="stroke:#ffffff;stroke-width:3;stroke-linecap:round;stroke-linejoin:round;stroke-miterlimit:10" />
    <path
       d="m 196.467,285.504 c -13.659,-47.023 4.701,-85.406 4.701,-85.406"
       stroke-miterlimit="10"
       id="path18"
       inkscape:connector-curvature="0"
       style="stroke:#ffffff;stroke-width:3;stroke-linecap:round;stroke-linejoin:round;stroke-miterlimit:10" />
    <path
       d="m 124.864,353.907 c 0,0 36.408,-44.263 112.159,-60.205"
       stroke-miterlimit="10"
       id="path20"
       inkscape:connector-curvature="0"
       style="stroke:#ffffff;stroke-width:3;stroke-linecap:round;stroke-linejoin:round;stroke-miterlimit:10" />
    <path
       d="m 91.7386,328.363 c 0,0 30.1054,-39.293 87.9354,-47.985"
       stroke-miterlimit="10"
       id="path22"
       inkscape:connector-curvature="0"
       style="stroke:#ffffff;stroke-width:3;stroke-linecap:round;stroke-linejoin:round;stroke-miterlimit:10" />
    <path
       d="m 66.5394,286.775 c 0,0 24.7795,-25.632 80.5466,-21.521"
       stroke-miterlimit="10"
       id="path24"
       inkscape:connector-curvature="0"
       style="stroke:#ffffff;stroke-width:3;stroke-linecap:round;stroke-linejoin:round;stroke-miterlimit:10" />
    <path
       d="M 62.8043,123.722 C 48.7806,67.8957 10.107,52.7586 0.712232,49.9375 0.589701,49.9602 0.566989,49.8376 0.444458,49.8604 36.139,161.743 38.1241,227.152 42.4663,248.526 c 2.2348,11.373 8.5392,42.649 28.6896,71.359 -15.0952,-85.538 2.5695,-76.392 -3.6221,-165.862 -0.8415,-11.377 -2.4361,-21.347 -4.7295,-30.301 z"
       id="path26"
       inkscape:connector-curvature="0"
       style="fill:#c6110c" />
    <path
       d="m 138.679,62.6381 c 0,0 43.03,37.2692 27.13,103.9659 -15.9,66.696 37.932,88.402 68.955,79.356 31.022,-9.046 61.588,-34.229 46.727,-77.48 C 266.63,125.229 217.086,80.1689 138.679,62.6381 Z"
       id="path28"
       inkscape:connector-curvature="0"
       style="fill:#c6110c" />
    <path
       d="m 146.539,59.9138 c 0,0 43.03,37.2692 27.13,103.9652 -15.901,66.697 26.36,94.349 57.383,85.304 31.022,-9.046 73.16,-40.176 58.299,-83.427 C 274.267,122.673 224.824,77.4673 146.539,59.9138 Z"
       id="path30"
       inkscape:connector-curvature="0"
       style="fill:#ff644e" />
    <path
       d="m 174.639,79.5456 c 0,0 55.835,23.6164 55.97,154.2574"
       stroke-miterlimit="10"
       id="path32"
       inkscape:connector-curvature="0"
       style="stroke:#ffffff;stroke-width:3;stroke-linecap:round;stroke-linejoin:round;stroke-miterlimit:10" />
    <path
       d="m 181.921,119.512 c 0,0 16.94,-10.491 29.845,5.114"
       stroke-miterlimit="10"
       id="path34"
       inkscape:connector-curvature="0"
       style="stroke:#ffffff;stroke-width:3;stroke-linecap:round;stroke-linejoin:round;stroke-miterlimit:10" />
    <path
       d="m 254.721,127.31 c 0,0 -29.566,4.593 -30.123,40.563"
       stroke-miterlimit="10"
       id="path36"
       inkscape:connector-curvature="0"
       style="stroke:#ffffff;stroke-width:3;stroke-linecap:round;stroke-linejoin:round;stroke-miterlimit:10" />
    <path
       d="m 233.071,109.651 c 0,0 -14.222,6.692 -17.265,23.098"
       stroke-miterlimit="10"
       id="path38"
       inkscape:connector-curvature="0"
       style="stroke:#ffffff;stroke-width:3;stroke-linecap:round;stroke-linejoin:round;stroke-miterlimit:10" />
    <path
       d="m 184.417,148.706 c 0,0 19.731,-12.529 35.613,-0.011"
       stroke-miterlimit="10"
       id="path40"
       inkscape:connector-curvature="0"
       style="stroke:#ffffff;stroke-width:3;stroke-linecap:round;stroke-linejoin:round;stroke-miterlimit:10" />
    <path
       d="m 228.215,192.17 c 0,0 14.749,-28.462 42.11,-32.646"
       stroke-miterlimit="10"
       id="path42"
       inkscape:connector-curvature="0"
       style="stroke:#ffffff;stroke-width:3;stroke-linecap:round;stroke-linejoin:round;stroke-miterlimit:10" />
    <path
       d="m 226.17,177.721 c 0,0 -22.589,-11.782 -47.61,8.445"
       stroke-miterlimit="10"
       id="path44"
       inkscape:connector-curvature="0"
       style="stroke:#ffffff;stroke-width:3;stroke-linecap:round;stroke-linejoin:round;stroke-miterlimit:10" />
  </g>
  <defs
     id="defs51">
    <clipPath
       id="clip0">
      <rect
         x="0.16293301"
         y="49.025398"
         width="263.56699"
         height="354.90302"
         transform="rotate(-10.5014,0.162933,49.0254)"
         id="rect48"
         style="fill:#ffffff" />
    </clipPath>
  </defs>
</svg>
