<svg width="1330" height="614" viewBox="0 0 1330 614" fill="none" xmlns="http://www.w3.org/2000/svg">
<path d="M1002.61 576.731C953.829 572.543 905.672 560.608 856.677 560.19C834.064 559.98 806.426 560.399 785.488 570.449C765.597 580.081 749.685 597.04 728.747 605.416C719.115 609.184 708.856 610.65 698.596 611.487C616.101 617.141 546.378 569.402 470.583 546.789C440.223 537.786 406.513 549.093 376.153 555.165C335.533 563.121 295.542 576.521 253.666 574.846C162.796 570.868 52.4531 524.386 15.8118 434.981C0.108413 396.455 -3.86978 349.554 18.5338 312.494C44.2874 270.2 98.5165 257.637 146.045 244.028C199.437 228.743 250.316 196.499 288.423 155.46C316.061 125.729 328.624 86.3654 352.074 53.7023C378.456 16.8516 427.241 -8.48322 472.467 7.42958C520.624 24.3893 555.381 57.8899 609.191 61.6587C648.345 64.3806 685.196 53.0742 723.722 51.8179C780.882 49.7241 838.461 76.5246 873.637 121.75C890.387 143.316 902.531 168.651 922.213 187.286C958.017 221.415 1012.46 227.487 1061.66 223.718C1111.07 219.74 1160.49 193.149 1209.48 200.477C1265.8 208.852 1322.75 252.822 1326.73 314.379C1331.97 392.687 1294.07 466.807 1234.4 516.011C1170.54 568.356 1083.64 583.64 1002.61 576.731Z" stroke="#9DD4F9" stroke-width="4" stroke-linejoin="round" stroke-dasharray="3.5 3.5"/>
</svg>
