<?xml version="1.0" encoding="UTF-8" standalone="no"?>
<svg
   xmlns:dc="http://purl.org/dc/elements/1.1/"
   xmlns:cc="http://creativecommons.org/ns#"
   xmlns:rdf="http://www.w3.org/1999/02/22-rdf-syntax-ns#"
   xmlns:svg="http://www.w3.org/2000/svg"
   xmlns="http://www.w3.org/2000/svg"
   xmlns:sodipodi="http://sodipodi.sourceforge.net/DTD/sodipodi-0.dtd"
   xmlns:inkscape="http://www.inkscape.org/namespaces/inkscape"
   width="289.26135"
   height="329.3129"
   viewBox="0 0 289.26135 329.3129"
   version="1.1"
   id="svg53"
   sodipodi:docname="s001-06.svg"
   style="fill:none"
   inkscape:version="0.92.4 (5da689c313, 2019-01-14)">
  <metadata
     id="metadata57">
    <rdf:RDF>
      <cc:Work
         rdf:about="">
        <dc:format>image/svg+xml</dc:format>
        <dc:type
           rdf:resource="http://purl.org/dc/dcmitype/StillImage" />
        <dc:title></dc:title>
      </cc:Work>
    </rdf:RDF>
  </metadata>
  <sodipodi:namedview
     pagecolor="#ffffff"
     bordercolor="#666666"
     borderopacity="1"
     objecttolerance="10"
     gridtolerance="10"
     guidetolerance="10"
     inkscape:pageopacity="0"
     inkscape:pageshadow="2"
     inkscape:window-width="716"
     inkscape:window-height="480"
     id="namedview55"
     showgrid="false"
     fit-margin-top="0"
     fit-margin-left="0"
     fit-margin-right="0"
     fit-margin-bottom="0"
     inkscape:zoom="0.60050891"
     inkscape:cx="130.55335"
     inkscape:cy="175.3262"
     inkscape:window-x="0"
     inkscape:window-y="0"
     inkscape:window-maximized="0"
     inkscape:current-layer="svg53" />
  <g
     clip-path="url(#clip0)"
     id="g46"
     transform="translate(-28.446651,-42.5133)">
    <path
       d="m 214.315,60.2764 c 0,0 36.25,51.1006 -16.805,85.3906 -43.469,28.149 -31.644,94.338 -31.644,94.338"
       stroke-miterlimit="10"
       id="path2"
       inkscape:connector-curvature="0"
       style="stroke:#ff644e;stroke-width:3;stroke-linecap:round;stroke-linejoin:round;stroke-miterlimit:10" />
    <path
       d="m 208.594,64.3954 c -5.842,-0.951 -9.807,-6.4577 -8.856,-12.2996 0.951,-5.8418 6.457,-9.8067 12.299,-8.8557 5.842,0.951 9.807,6.4577 8.856,12.2996 -0.95,5.8418 -6.457,9.8067 -12.299,8.8557 z"
       id="path4"
       inkscape:connector-curvature="0"
       style="fill:#ff644e" />
    <path
       d="m 185.756,103.857 c 0,0 -36.458,51.006 16.509,85.511 43.376,28.271 31.334,94.489 31.334,94.489"
       stroke-miterlimit="10"
       id="path6"
       inkscape:connector-curvature="0"
       style="stroke:#ff644e;stroke-width:3;stroke-linecap:round;stroke-linejoin:round;stroke-miterlimit:10" />
    <path
       d="m 183.88,111.506 c -5.842,-0.951 -9.807,-6.458 -8.856,-12.2999 0.951,-5.8418 6.458,-9.8067 12.3,-8.8557 5.842,0.951 9.807,6.4577 8.856,12.2996 -0.951,5.842 -6.458,9.807 -12.3,8.856 z"
       id="path8"
       inkscape:connector-curvature="0"
       style="fill:#ff644e" />
    <path
       d="m 61.3177,266.418 c -6.1211,22.865 -3.3033,47.439 8.7794,67.839 13.1955,22.096 39.1709,43.243 90.4449,36.186 99.045,-13.547 115.392,-106.208 119.264,-127.673 3.873,-21.464 4.342,-87.166 37.902,-200.2567 0,0 -60.306,105.2017 -137.268,118.0507 C 98.1334,174.437 70.5708,232.067 61.3177,266.418 Z"
       id="path10"
       inkscape:connector-curvature="0"
       style="fill:#ff644e" />
    <path
       d="M 64.5989,294.349 C 103.784,292.521 225.622,276.245 261.287,145.57"
       stroke-miterlimit="10"
       id="path12"
       inkscape:connector-curvature="0"
       style="stroke:#ffffff;stroke-width:3;stroke-linecap:round;stroke-linejoin:round;stroke-miterlimit:10" />
    <path
       d="m 206.555,169.992 c 0,0 9.066,35.059 -5.825,73.794"
       stroke-miterlimit="10"
       id="path14"
       inkscape:connector-curvature="0"
       style="stroke:#ffffff;stroke-width:3;stroke-linecap:round;stroke-linejoin:round;stroke-miterlimit:10" />
    <path
       d="m 169.362,265.067 c 16.061,-43.595 1.249,-81.357 1.249,-81.357"
       stroke-miterlimit="10"
       id="path16"
       inkscape:connector-curvature="0"
       style="stroke:#ffffff;stroke-width:3;stroke-linecap:round;stroke-linejoin:round;stroke-miterlimit:10" />
    <path
       d="m 126.633,283.236 c 12.626,-47.31 -6.571,-85.281 -6.571,-85.281"
       stroke-miterlimit="10"
       id="path18"
       inkscape:connector-curvature="0"
       style="stroke:#ffffff;stroke-width:3;stroke-linecap:round;stroke-linejoin:round;stroke-miterlimit:10" />
    <path
       d="m 199.718,350.054 c 0,0 -37.369,-43.454 -113.4513,-57.733"
       stroke-miterlimit="10"
       id="path20"
       inkscape:connector-curvature="0"
       style="stroke:#ffffff;stroke-width:3;stroke-linecap:round;stroke-linejoin:round;stroke-miterlimit:10" />
    <path
       d="m 232.275,323.79 c 0,0 -30.959,-38.623 -88.966,-46.045"
       stroke-miterlimit="10"
       id="path22"
       inkscape:connector-curvature="0"
       style="stroke:#ffffff;stroke-width:3;stroke-linecap:round;stroke-linejoin:round;stroke-miterlimit:10" />
    <path
       d="m 256.557,281.66 c 0,0 -25.335,-25.082 -80.999,-19.751"
       stroke-miterlimit="10"
       id="path24"
       inkscape:connector-curvature="0"
       style="stroke:#ffffff;stroke-width:3;stroke-linecap:round;stroke-linejoin:round;stroke-miterlimit:10" />
    <path
       d="m 256.718,118.565 c 12.797,-56.1205 51.13,-72.1015 60.461,-75.1278 0.123,0.02 0.143,-0.103 0.266,-0.083 -33.234,112.6388 -33.786,178.0748 -37.659,199.5388 -1.985,11.419 -7.602,42.826 -27.119,71.97 13.217,-85.848 -4.243,-76.317 -0.013,-165.901 0.592,-11.393 1.968,-21.396 4.064,-30.397 z"
       id="path26"
       inkscape:connector-curvature="0"
       style="fill:#c6110c" />
    <path
       d="m 179.523,59.1581 c 0,0 -42.202,38.2031 -24.845,104.5349 17.358,66.332 -35.986,89.212 -67.199,80.849 C 56.2657,236.178 25.1553,211.67 39.0651,168.104 52.975,124.538 101.519,78.4028 179.523,59.1581 Z"
       id="path28"
       inkscape:connector-curvature="0"
       style="fill:#c6110c" />
    <path
       d="m 171.605,56.6067 c 0,0 -42.202,38.2031 -24.844,104.5353 17.358,66.332 -24.287,94.904 -55.5004,86.54 C 60.0473,239.319 17.2376,209.119 31.1475,165.553 45.2833,122.149 93.7243,75.8715 171.605,56.6067 Z"
       id="path30"
       inkscape:connector-curvature="0"
       style="fill:#ff644e" />
    <path
       d="m 143.942,76.8495 c 0,0 -55.3032,24.8335 -52.5758,155.4465"
       stroke-miterlimit="10"
       id="path32"
       inkscape:connector-curvature="0"
       style="stroke:#ffffff;stroke-width:3;stroke-linecap:round;stroke-linejoin:round;stroke-miterlimit:10" />
    <path
       d="m 137.538,116.966 c 0,0 -17.166,-10.117 -29.726,5.767"
       stroke-miterlimit="10"
       id="path34"
       inkscape:connector-curvature="0"
       style="stroke:#ffffff;stroke-width:3;stroke-linecap:round;stroke-linejoin:round;stroke-miterlimit:10" />
    <path
       d="m 64.926,126.357 c 0,0 29.6599,3.944 31.0047,39.893"
       stroke-miterlimit="10"
       id="path36"
       inkscape:connector-curvature="0"
       style="stroke:#ffffff;stroke-width:3;stroke-linecap:round;stroke-linejoin:round;stroke-miterlimit:10" />
    <path
       d="m 86.1845,108.228 c 0,0 14.3655,6.379 17.7665,22.714"
       stroke-miterlimit="10"
       id="path38"
       inkscape:connector-curvature="0"
       style="stroke:#ffffff;stroke-width:3;stroke-linecap:round;stroke-linejoin:round;stroke-miterlimit:10" />
    <path
       d="m 135.682,146.208 c 0,0 -20,-12.094 -35.604,0.769"
       stroke-miterlimit="10"
       id="path40"
       inkscape:connector-curvature="0"
       style="stroke:#ffffff;stroke-width:3;stroke-linecap:round;stroke-linejoin:round;stroke-miterlimit:10" />
    <path
       d="m 92.8475,190.621 c 0,0 -15.3695,-28.132 -42.8155,-31.716"
       stroke-miterlimit="10"
       id="path42"
       inkscape:connector-curvature="0"
       style="stroke:#ffffff;stroke-width:3;stroke-linecap:round;stroke-linejoin:round;stroke-miterlimit:10" />
    <path
       d="m 94.575,176.13 c 0,0 22.326,-12.274 47.784,7.4"
       stroke-miterlimit="10"
       id="path44"
       inkscape:connector-curvature="0"
       style="stroke:#ffffff;stroke-width:3;stroke-linecap:round;stroke-linejoin:round;stroke-miterlimit:10" />
  </g>
  <defs
     id="defs51">
    <clipPath
       id="clip0">
      <rect
         width="263.56699"
         height="354.90302"
         transform="matrix(-0.987008,-0.160669,-0.160669,0.987008,317.708,42.5133)"
         id="rect48"
         x="0"
         y="0"
         style="fill:#ffffff" />
    </clipPath>
  </defs>
</svg>
