<?xml version="1.0" encoding="UTF-8" standalone="no"?>
<svg
   xmlns:dc="http://purl.org/dc/elements/1.1/"
   xmlns:cc="http://creativecommons.org/ns#"
   xmlns:rdf="http://www.w3.org/1999/02/22-rdf-syntax-ns#"
   xmlns:svg="http://www.w3.org/2000/svg"
   xmlns="http://www.w3.org/2000/svg"
   xmlns:sodipodi="http://sodipodi.sourceforge.net/DTD/sodipodi-0.dtd"
   xmlns:inkscape="http://www.inkscape.org/namespaces/inkscape"
   width="254"
   height="653"
   viewBox="0 0 254 653"
   version="1.1"
   id="svg47"
   sodipodi:docname="s001-bg-5.svg"
   style="fill:none"
   inkscape:version="0.92.4 (5da689c313, 2019-01-14)">
  <metadata
     id="metadata51">
    <rdf:RDF>
      <cc:Work
         rdf:about="">
        <dc:format>image/svg+xml</dc:format>
        <dc:type
           rdf:resource="http://purl.org/dc/dcmitype/StillImage" />
        <dc:title></dc:title>
      </cc:Work>
    </rdf:RDF>
  </metadata>
  <sodipodi:namedview
     pagecolor="#ffffff"
     bordercolor="#666666"
     borderopacity="1"
     objecttolerance="10"
     gridtolerance="10"
     guidetolerance="10"
     inkscape:pageopacity="0"
     inkscape:pageshadow="2"
     inkscape:window-width="716"
     inkscape:window-height="480"
     id="namedview49"
     showgrid="false"
     fit-margin-top="0"
     fit-margin-left="0"
     fit-margin-right="0"
     fit-margin-bottom="0"
     inkscape:zoom="0.36085627"
     inkscape:cx="126.61694"
     inkscape:cy="326.13922"
     inkscape:window-x="0"
     inkscape:window-y="0"
     inkscape:window-maximized="0"
     inkscape:current-layer="svg47" />
  <g
     clip-path="url(#clip0)"
     id="g40"
     transform="translate(-0.883057,-0.139221)">
    <path
       d="M 91.9749,177.89 C 75.4976,166.664 58.243,155.905 40.0557,145.614 31.0398,108.973 26.6873,74.6698 18.7595,45.0447 14.2515,42.8618 9.1218,43.0177 5.08018,45.5124 0.416778,81.5303 2.12669,119.263 10.2099,158.712 c 4.1971,23.856 31.7112,42.098 80.5214,73.751 12.2807,-16.216 12.1247,-28.066 1.2436,-54.573 z"
       id="path2"
       inkscape:connector-curvature="0"
       style="clip-rule:evenodd;fill:#030047;fill-rule:evenodd" />
    <path
       d="m 85.2906,316.66 c -24.8714,61.122 -26.7368,158.261 -5.9069,291.574 0.9326,6.704 11.9693,7.016 23.6283,0.779 5.44,-66.266 5.129,-114.758 8.549,-145.163 27.825,-72.347 48.033,-118.344 60.78,-137.99 -42.282,-27.287 -71.35,-30.405 -87.0504,-9.2 z"
       id="path4"
       inkscape:connector-curvature="0"
       style="clip-rule:evenodd;fill:#f9ae10;fill-rule:evenodd" />
    <path
       d="m 117.157,329.446 c 5.441,33.055 14.457,72.815 26.893,119.124 6.528,36.33 32.022,92.617 76.479,168.863 4.197,1.403 13.991,-1.403 20.364,-8.731 -16.322,-65.643 -35.131,-117.721 -47.101,-156.234 7.306,-50.207 4.198,-94.333 -9.326,-132.377 -24.25,-10.603 -46.79,-7.485 -67.309,9.355 z"
       id="path6"
       inkscape:connector-curvature="0"
       style="clip-rule:evenodd;fill:#fdc510;fill-rule:evenodd" />
    <path
       d="m 70.8341,353.146 c 17.5655,15.436 59.6919,12.474 126.6889,-8.888 -7.461,-50.674 -8.705,-101.349 -3.42,-152.023 -32.333,-11.694 -66.22,-16.372 -101.8172,-14.345 -37.9291,48.336 1.2435,76.869 -21.4517,175.256 z"
       id="path8"
       inkscape:connector-curvature="0"
       style="clip-rule:evenodd;fill:#2b2b68;fill-rule:evenodd" />
    <path
       d="m 194.103,192.235 c 23.784,10.447 40.727,41.943 50.521,92.305 4.041,18.711 -31.867,37.422 -107.725,56.444 -4.663,-3.274 -6.84,-7.952 -6.684,-13.721 26.581,-15.28 52.541,-30.717 78.19,-46.309 -20.519,-24.791 -29.691,-40.384 -32.644,-55.976 -1.399,-19.178 2.642,-33.835 18.342,-32.743 z"
       id="path10"
       inkscape:connector-curvature="0"
       style="clip-rule:evenodd;fill:#030047;fill-rule:evenodd" />
    <path
       d="m 122.909,177.578 c 12.435,-0.624 11.347,-4.21 8.86,-22.764 10.571,-3.899 20.519,-3.275 30.157,1.559 -3.731,14.5 -7.617,21.205 2.798,27.442 -20.83,20.582 -50.831,17.931 -41.815,-6.237 z"
       id="path12"
       inkscape:connector-curvature="0"
       style="clip-rule:evenodd;fill:#ffe4c4;fill-rule:evenodd" />
    <path
       d="M 18.9134,45.0447 C 23.1105,21.3446 15.9599,0.139221 11.9183,0.139221 c -5.75153,0 3.5753,11.538179 -7.30599,22.140879 -8.70502,8.4198 0.46634,23.0764 0.46634,23.0764 z"
       id="path14"
       inkscape:connector-curvature="0"
       style="clip-rule:evenodd;fill:#ffe4c4;fill-rule:evenodd" />
    <path
       d="m 50.0043,628.348 c 0.3109,2.962 0.3109,5.301 0.6218,10.291 0.1554,3.742 14.612,3.742 20.208,2.962 l 33.8879,-4.678 c 4.818,-0.623 6.684,-5.145 6.217,-9.979 l -0.31,-4.833 c -16.167,12.474 -41.9711,15.124 -60.6247,6.237 z"
       id="path16"
       inkscape:connector-curvature="0"
       style="fill:#536fb7" />
    <path
       d="m 78.762,603.088 c -4.8189,9.512 -14.612,13.877 -24.8715,19.958 -4.508,2.651 -4.0416,6.549 -3.8862,8.108 0.1555,2.027 8.3941,3.898 10.8813,4.21 10.5704,1.092 21.4516,-0.312 35.2864,-2.806 4.663,-0.78 9.638,-1.248 13.058,-4.054 2.331,-2.027 1.865,-5.146 1.865,-7.952 0.155,-7.329 -7.306,-16.996 -7.306,-16.996 0,0 -7.617,5.613 -11.1923,7.017 -3.4198,1.247 -7.6169,1.403 -10.7258,-0.312 -2.1763,-1.559 -3.1089,-4.99 -3.1089,-7.173 z"
       id="path18"
       inkscape:connector-curvature="0"
       style="fill:#b1c4e5" />
    <path
       d="m 83.672,619.053 -10.4941,-9.746 -3.802,4.119 10.4941,9.746 z"
       id="path20"
       inkscape:connector-curvature="0"
       style="fill:#536fb7" />
    <path
       d="m 195.813,642.069 c 1.088,2.806 1.71,4.989 3.42,9.667 1.244,3.586 15.079,-0.468 20.364,-2.807 l 31.244,-14.033 c 4.508,-2.027 4.975,-6.704 3.265,-11.382 l -1.71,-4.522 c -12.28,16.528 -36.219,26.351 -56.583,23.077 z"
       id="path22"
       inkscape:connector-curvature="0"
       style="fill:#536fb7" />
    <path
       d="m 216.332,609.793 c -2.021,10.603 -10.104,17.307 -18.342,26.039 -3.576,3.742 -2.021,7.328 -1.4,8.887 0.778,2.027 9.172,1.404 11.659,0.936 10.415,-1.871 20.519,-6.393 33.11,-12.63 4.197,-2.027 9.016,-3.898 11.348,-7.484 1.71,-2.65 0.311,-5.457 -0.467,-8.264 -2.02,-7.016 -11.814,-14.344 -11.814,-14.344 0,0 -5.751,7.64 -8.705,9.823 -2.953,2.183 -6.995,3.43 -10.414,2.65 -2.488,-0.467 -4.353,-3.586 -4.975,-5.613 z"
       id="path24"
       inkscape:connector-curvature="0"
       style="fill:#b1c4e5" />
    <path
       d="m 226.452,621.82 -13.542,-4.615 -1.8,5.315 13.541,4.615 z"
       id="path26"
       inkscape:connector-curvature="0"
       style="fill:#536fb7" />
    <path
       d="m 118.401,351.743 -17.566,3.43 c -3.8858,0.779 -7.6165,-1.871 -8.3937,-5.769 l -9.6377,-50.363 c -0.7772,-3.898 1.8653,-7.64 5.7515,-8.42 l 17.5659,-3.43 c 3.886,-0.78 7.616,1.871 8.394,5.769 l 9.637,50.363 c 0.622,3.898 -1.865,7.64 -5.751,8.42 z"
       id="path28"
       inkscape:connector-curvature="0"
       style="fill:#e3e5fc" />
    <path
       d="m 99.2809,303.719 c 2.4901,0 4.5081,-2.025 4.5081,-4.522 0,-2.497 -2.018,-4.522 -4.5081,-4.522 -2.4897,0 -4.508,2.025 -4.508,4.522 0,2.497 2.0183,4.522 4.508,4.522 z"
       id="path30"
       inkscape:connector-curvature="0"
       style="fill:#a7adff" />
    <path
       d="m 142.184,90.4179 c 13.68,-0.9355 30.157,8.4198 33.732,22.2971 3.109,12.473 0.777,27.91 -5.441,39.136 -7.772,14.345 -26.581,19.022 -40.105,12.474 -4.663,-2.339 -5.596,-5.613 -7.617,-9.667 -4.041,-7.796 -6.528,-14.813 -5.285,-18.555 1.866,-5.769 6.995,-4.834 5.285,-21.829 -1.399,-13.097 9.638,-23.2324 19.431,-23.8561 z"
       id="path32"
       inkscape:connector-curvature="0"
       style="fill:#ffe4c4" />
    <path
       d="m 179.491,139.065 c 0,0 -8.705,-1.715 -9.948,-7.016 -1.244,-5.301 5.751,-6.393 0,-10.135 -5.752,-3.742 -9.793,-6.549 -10.104,-11.538 -0.467,-9.667 -8.861,-4.21 -21.296,-1.559 -12.436,2.65 -17.1,4.833 -26.893,3.586 -9.793,-1.248 3.42,-17.1516 3.42,-17.1516 0,0 -8.549,0.4678 -5.13,-5.7691 3.576,-6.2369 24.25,-16.0599 43.215,-13.4093 18.964,2.6507 31.711,13.0975 33.265,16.2159 0,0 0.622,-4.2099 3.42,-3.2744 2.798,0.9356 2.953,6.8606 2.953,6.8606 0,0 4.819,1.2474 4.664,2.9625 -0.156,1.7154 -3.575,2.3384 -3.575,2.3384 0,0 2.331,5.302 -0.311,12.786 -2.487,7.172 -13.68,25.103 -13.68,25.103 z"
       id="path34"
       inkscape:connector-curvature="0"
       style="fill:#030047" />
    <path
       d="m 168.766,136.103 c 0,0 7.461,-10.603 13.368,-7.484 5.751,3.118 3.575,11.382 -2.021,16.839 -5.596,5.457 -12.28,-0.623 -12.28,-0.623"
       id="path36"
       inkscape:connector-curvature="0"
       style="fill:#ffe4c4" />
    <path
       d="m 130.37,327.263 c -8.083,-3.274 -26.581,-1.092 -26.892,6.393 -0.311,7.484 3.731,22.297 18.654,16.839 14.922,-5.457 14.767,-9.355 14.767,-9.355 z"
       id="path38"
       inkscape:connector-curvature="0"
       style="clip-rule:evenodd;fill:#ffe4c4;fill-rule:evenodd" />
  </g>
  <defs
     id="defs45">
    <clipPath
       id="clip0">
      <rect
         x="0.883057"
         y="0.139221"
         width="254"
         height="653"
         id="rect42"
         style="fill:#ffffff" />
    </clipPath>
  </defs>
</svg>
