<svg width="518" height="485" viewBox="0 0 518 485" fill="none" xmlns="http://www.w3.org/2000/svg">
<path d="M447.592 352.382H21.7776C10.298 352.382 0.863403 342.993 0.863403 331.467V20.9142C0.863403 9.38817 10.2516 0 21.7776 0H447.638C459.118 0 468.552 9.38817 468.552 20.9142V331.514C468.506 342.993 459.118 352.382 447.592 352.382Z" fill="#4256D6"/>
<path d="M435.554 323.009H33.815C22.3354 323.009 12.9008 313.621 12.9008 302.095V36.205C12.9008 24.7254 22.2889 15.2908 33.815 15.2908H435.554C447.034 15.2908 456.469 24.6789 456.469 36.205V302.095C456.469 313.621 447.034 323.009 435.554 323.009Z" fill="#EBEFFB"/>
<path d="M267.032 339.136H202.337C200.757 339.136 199.456 337.835 199.456 336.254C199.456 334.674 200.757 333.373 202.337 333.373H266.985C268.566 333.373 269.867 334.674 269.867 336.254C269.867 337.881 268.612 339.136 267.032 339.136Z" fill="#EBEFFB"/>
<path d="M40.8794 11.8514C42.6762 11.8514 44.1328 10.3948 44.1328 8.59805C44.1328 6.80129 42.6762 5.34473 40.8794 5.34473C39.0827 5.34473 37.6261 6.80129 37.6261 8.59805C37.6261 10.3948 39.0827 11.8514 40.8794 11.8514Z" fill="#E3E5FC"/>
<path d="M54.9151 11.8514C56.7118 11.8514 58.1684 10.3948 58.1684 8.59805C58.1684 6.80129 56.7118 5.34473 54.9151 5.34473C53.1183 5.34473 51.6617 6.80129 51.6617 8.59805C51.6617 10.3948 53.1183 11.8514 54.9151 11.8514Z" fill="white"/>
<path d="M69.0904 11.8514C70.8871 11.8514 72.3437 10.3948 72.3437 8.59805C72.3437 6.80129 70.8871 5.34473 69.0904 5.34473C67.2936 5.34473 65.837 6.80129 65.837 8.59805C65.837 10.3948 67.2936 11.8514 69.0904 11.8514Z" fill="#4B369D"/>
<path d="M58.8655 147.654H223.344C234.824 147.654 244.259 138.266 244.259 126.74V67.2973C244.259 55.8177 234.87 46.3831 223.344 46.3831H58.8655C47.3859 46.3831 37.9513 55.7712 37.9513 67.2973V126.74C37.9513 138.22 47.3395 147.654 58.8655 147.654Z" fill="white"/>
<path d="M56.4024 296.285C54.2645 296.285 52.4984 294.519 52.4984 292.381V202.496C52.4984 200.358 54.2645 198.592 56.4024 198.592C58.5403 198.592 60.3064 200.358 60.3064 202.496V292.381C60.3064 294.519 58.5403 296.285 56.4024 296.285Z" fill="#C6110C"/>
<path d="M75.0857 296.285C72.9478 296.285 71.1818 294.519 71.1818 292.381V252.272C71.1818 250.134 72.9478 248.368 75.0857 248.368C77.2236 248.368 78.9897 250.134 78.9897 252.272V292.381C78.9897 294.519 77.2236 296.285 75.0857 296.285Z" fill="#3555DB"/>
<path d="M93.8155 296.285C91.6776 296.285 89.9115 294.519 89.9115 292.381V214.022C89.9115 211.884 91.6776 210.118 93.8155 210.118C95.9534 210.118 97.7195 211.884 97.7195 214.022V292.381C97.7195 294.519 95.9534 296.285 93.8155 296.285Z" fill="#C6110C"/>
<path d="M112.545 296.285C110.408 296.285 108.641 294.519 108.641 292.381V263.566C108.641 261.428 110.408 259.662 112.545 259.662C114.683 259.662 116.449 261.428 116.449 263.566V292.381C116.449 294.519 114.683 296.285 112.545 296.285Z" fill="#3555DB"/>
<path d="M131.229 296.285C129.091 296.285 127.325 294.519 127.325 292.381V243.814C127.325 241.676 129.091 239.91 131.229 239.91C133.367 239.91 135.133 241.676 135.133 243.814V292.335C135.133 294.519 133.413 296.285 131.229 296.285Z" fill="#C6110C"/>
<path d="M149.959 296.285C147.821 296.285 146.055 294.519 146.055 292.381V278.02C146.055 275.882 147.821 274.116 149.959 274.116C152.097 274.116 153.863 275.882 153.863 278.02V292.381C153.863 294.519 152.097 296.285 149.959 296.285Z" fill="#3555DB"/>
<path d="M168.689 296.285C166.551 296.285 164.785 294.519 164.785 292.381V214.022C164.785 211.884 166.551 210.118 168.689 210.118C170.826 210.118 172.593 211.884 172.593 214.022V292.381C172.593 294.519 170.826 296.285 168.689 296.285Z" fill="#C6110C"/>
<path d="M187.419 296.285C185.281 296.285 183.515 294.519 183.515 292.381V263.566C183.515 261.428 185.281 259.662 187.419 259.662C189.556 259.662 191.323 261.428 191.323 263.566V292.381C191.323 294.519 189.556 296.285 187.419 296.285Z" fill="#3555DB"/>
<path d="M206.102 296.285C203.964 296.285 202.198 294.519 202.198 292.381V243.814C202.198 241.676 203.964 239.91 206.102 239.91C208.24 239.91 210.006 241.676 210.006 243.814V292.335C210.052 294.519 208.286 296.285 206.102 296.285Z" fill="#C6110C"/>
<path d="M224.832 296.285C222.694 296.285 220.928 294.519 220.928 292.381V278.02C220.928 275.882 222.694 274.116 224.832 274.116C226.97 274.116 228.736 275.882 228.736 278.02V292.381C228.736 294.519 226.97 296.285 224.832 296.285Z" fill="#3555DB"/>
<path d="M64.7216 116.98C75.7364 132.178 97.0225 135.524 112.22 124.509L72.2507 69.4817C57.053 80.4965 53.7068 101.783 64.7216 116.98Z" fill="#4256D6"/>
<path d="M75.8292 66.879L94.1408 92.0691L119.842 73.4322C109.431 59.6752 89.865 56.7008 75.8292 66.879Z" fill="#4256D6"/>
<path d="M131.786 71.2478C131.601 71.0155 131.415 70.8295 131.229 70.5972L96.7435 95.6478L122.352 130.877C141.407 117.027 145.636 90.3495 131.786 71.2478Z" fill="#FDC510"/>
<path d="M160.648 72.5956C160.648 70.3183 162.507 68.4592 164.784 68.4592H220.277C222.554 68.4592 224.413 70.3183 224.413 72.5956C224.413 74.8729 222.554 76.732 220.277 76.732H164.784C162.507 76.732 160.648 74.8729 160.648 72.5956Z" fill="#FDC510"/>
<path d="M160.648 92.3944C160.648 90.1171 162.507 88.2581 164.784 88.2581H183.607C185.885 88.2581 187.744 90.1171 187.744 92.3944C187.744 94.6718 185.885 96.5308 183.607 96.5308H164.784C162.507 96.5308 160.648 94.6718 160.648 92.3944Z" fill="#4256D6"/>
<path d="M290.409 150.35C290.131 150.35 289.852 150.304 289.573 150.118C288.736 149.653 288.411 148.584 288.876 147.747L303.19 121.721L314.623 132.643L322.246 120.559L328.938 124.602L344.926 84.9582L356.08 104.711L366.537 89.1875L375.368 100.016L393.215 67.1114C393.772 66.0889 394.516 64.927 395.306 63.7186C395.957 62.7426 396.654 61.6737 397.258 60.6047C396.561 60.8836 395.91 61.2089 395.259 61.5342C394.051 62.092 392.889 62.6497 391.867 62.975C390.937 63.3003 389.961 62.7891 389.682 61.8596C389.357 60.9301 389.868 59.9541 390.798 59.6752C391.634 59.3963 392.703 58.8851 393.819 58.3739C396.05 57.3514 398.327 56.2825 400.372 56.0965L402.835 55.9106L402.184 58.2809C401.534 60.6047 399.907 63.1144 398.28 65.5777C397.537 66.7396 396.84 67.8085 396.328 68.738L375.972 106.198L366.816 94.9506L355.801 111.264L345.437 92.9056L330.658 129.622L323.407 125.253L315.367 138.034L304.166 127.298L292.036 149.374C291.618 150.025 291.06 150.35 290.409 150.35Z" fill="#3555DB"/>
<path d="M401.441 68.3663C400.465 68.3663 399.721 67.5762 399.721 66.6467V57.9557C399.721 56.9797 400.511 56.2361 401.441 56.2361C402.371 56.2361 403.161 57.0262 403.161 57.9557V66.6467C403.207 67.5762 402.417 68.3663 401.441 68.3663Z" fill="#3555DB"/>
<path d="M288.69 160.482C287.714 160.482 286.97 159.692 286.97 158.762V47.5914C286.97 46.6154 287.76 45.8718 288.69 45.8718C289.666 45.8718 290.409 46.6619 290.409 47.5914V158.762C290.409 159.738 289.619 160.482 288.69 160.482Z" fill="#4256D6"/>
<path d="M278.093 150.35C278.093 149.374 278.883 148.63 279.813 148.63H390.984C391.96 148.63 392.703 149.42 392.703 150.35C392.703 151.326 391.913 152.07 390.984 152.07H279.813C278.883 152.07 278.093 151.326 278.093 150.35Z" fill="#4256D6"/>
<path d="M346.553 90.7678H344.926C342.742 90.7678 340.975 89.0017 340.975 86.8174V85.1907C340.975 83.0063 342.742 81.2402 344.926 81.2402H346.553C348.737 81.2402 350.503 83.0063 350.503 85.1907V86.8174C350.503 89.0017 348.691 90.7678 346.553 90.7678Z" fill="#D7384E"/>
<path d="M504.246 168.987C504.246 168.987 510.381 198.081 509.823 209.979C509.312 221.877 498.994 239.584 498.994 239.584L492.301 168.987H504.246Z" fill="#EAC2AB"/>
<path d="M467.762 115.632L469.11 140.683L488.723 148.259C488.723 148.259 476.918 131.016 478.916 115.632C480.915 100.295 467.762 115.632 467.762 115.632Z" fill="#D4A79A"/>
<path d="M450.241 64.4159C450.241 64.4159 445.965 70.086 450.148 87.4215C454.33 104.757 461.069 119.583 466.321 118.561C480.775 115.679 485.841 105.454 490.861 96.6703C496.996 85.9343 484.819 59.6753 484.819 59.6753L473.293 53.4475L450.241 64.4159Z" fill="#EAC2AB"/>
<path d="M434.811 59.7217C433.556 55.6318 435.787 50.4265 438.715 47.9168C439.877 46.9408 441.317 46.3366 442.712 46.476C443.781 46.569 444.849 47.1267 445.918 46.9408C449.125 46.3831 449.544 41.6425 452.518 40.6665C454.749 39.9694 456.887 41.9678 459.164 42.4791C460.884 42.8974 462.65 42.4326 464.369 42.0608C469.249 41.0383 473.711 38.7145 478.73 38.1103C482.913 37.5991 487.329 38.0638 491.14 40.1088C495.09 42.2467 497.972 46.1507 499.459 50.6589C500.388 53.3545 500.667 56.3754 499.924 59.164C500.528 56.8867 504.618 59.3499 505.268 60.2329C507.871 63.7651 508.336 71.3872 506.941 75.4771C505.826 78.7304 504.06 81.5655 503.037 84.8653C501.829 88.7692 501.364 93.138 499.18 96.6237C496.67 100.621 483.285 113.68 479.056 112.611C480.357 108.986 473.99 105.733 474.222 101.829C474.455 97.9715 476.871 77.7544 457.816 73.9898C450.241 72.5026 459.954 70.0394 452.379 70.3182C448.753 70.4577 445.175 69.7605 441.782 68.3662C439.179 67.2973 436.623 63.3933 435.182 60.5583C435.043 60.3259 434.904 60.047 434.811 59.7217Z" fill="#011627"/>
<path d="M473.06 85.8877C473.06 85.8877 481.008 79.1022 480.403 88.3044C479.799 97.5067 472.41 100.156 472.41 100.156L473.06 85.8877Z" fill="#EAC2AB"/>
<path d="M494.253 432.785L489.373 465.876L500.249 468.665L503.27 433.854C503.316 433.808 497.553 431.437 494.253 432.785Z" fill="#D4A79A"/>
<path d="M446.708 481.725C446.708 481.725 454.842 483.862 470.225 483.955C485.609 484.048 502.619 483.398 505.594 480.888C508.568 478.378 509.172 458.998 504.106 459.37C499.04 459.741 497.553 467.224 488.119 461.275C480.032 456.163 474.64 467.224 461.441 470.989C448.196 474.8 442.851 476.333 446.708 481.725Z" fill="#DB910E"/>
<path d="M467.111 442.963C467.53 441.616 468.785 440.547 469.9 439.478C479.892 429.439 476.314 415.496 473.758 403.273C467.669 374.225 469.9 344.388 469.482 314.968C469.063 286.246 464.416 257.71 456.468 230.242C453.587 220.25 449.497 204.82 464.044 206.772C470.969 207.702 477.662 206.958 484.354 205.192C487.886 204.262 484.168 203.24 487.886 204.262C500.621 207.702 507.871 244.325 505.965 253.434C502.154 271.56 500.853 277.323 501.318 296.192C502.015 322.916 499.831 349.918 504.571 376.177C506.895 389.051 509.451 401.879 511.961 414.706C513.402 422.189 520.373 438.316 516.98 445.427C512.333 455.187 488.026 448.912 480.078 449.238C474.036 449.377 465.671 447.518 467.111 442.963Z" fill="#030047"/>
<path d="M469.575 433.901L462.417 466.573L473.107 470.105L478.591 435.574C478.545 435.574 473.014 432.832 469.575 433.901Z" fill="#EAC2AB"/>
<path d="M418.73 479.447C418.73 479.447 426.724 482.189 442.014 483.305C457.305 484.42 474.408 485.024 477.475 482.747C480.589 480.47 482.588 461.182 477.475 461.182C472.363 461.182 470.411 468.572 461.395 461.972C453.68 456.348 447.545 466.992 434.113 469.827C420.682 472.662 415.29 473.777 418.73 479.447Z" fill="#FDC510"/>
<path d="M441.828 443.056C442.34 441.848 443.687 440.965 444.849 440.035C455.539 431.53 452.936 418.517 451.217 407.177C447.173 380.267 451.495 353.125 453.122 326.169C454.702 299.864 452.053 273.512 446.058 247.857C443.873 238.562 440.852 224.154 455.26 226.896C462.092 228.197 468.831 227.919 475.617 226.757C479.195 226.153 475.524 224.944 479.195 226.153C491.651 230.103 496.484 243.395 493.928 251.575C488.862 267.888 487.003 293.775 486.167 311.064C485.005 335.557 480.915 360.097 483.843 384.357C485.284 396.255 486.91 408.153 488.49 420.051C489.42 426.976 495.229 442.173 491.325 448.448C485.981 457.046 462.185 449.749 454.238 449.563C448.289 449.377 440.062 447.146 441.828 443.056Z" fill="#2B2B68"/>
<path d="M426.259 164.479C421.054 168.383 415.476 171.868 409.62 174.982C405.066 177.399 392.75 185.254 387.405 181.396C385.825 180.281 385.081 178.561 384.384 176.888C380.48 167.128 375.182 157.879 369.976 148.584C365.329 140.311 359.845 131.574 359.426 122.186C359.008 112.565 357.242 99.7376 355.941 97.4602C354.639 95.1829 344.6 82.0302 344.786 86.3524C344.972 90.6747 354.546 101.829 350.596 101.69C346.645 101.55 338.512 104.896 339.906 109.823C341.301 114.749 348.458 125.021 348.458 125.021C351.99 134.502 355.708 143.983 359.519 153.371C362.354 160.435 365.282 167.453 368.443 174.378C371.51 181.117 374.485 188.507 382.107 192.55C383.083 193.062 384.152 193.526 385.267 193.898C394.144 196.733 403.95 192.364 411.991 187.949C429.233 178.422 445.454 167.686 461.767 157.089C458.188 154.579 454.609 152.023 451.031 149.513C450.194 148.909 449.218 148.259 448.103 148.212C446.801 148.119 445.593 148.863 444.571 149.56C439.505 153.092 435.136 157.321 430.395 161.179C429.048 162.294 427.653 163.41 426.259 164.479Z" fill="#EAC2AB"/>
<path d="M482.634 172.194C482.634 172.194 466.089 144.401 478.73 139.196C491.372 133.99 504.292 168.987 504.292 168.987L483.471 177.213L482.634 172.194Z" fill="#C6110C"/>
<path d="M444.338 232.473C444.338 231.312 442.433 201.474 446.615 182.326C450.845 163.178 446.615 146.725 461.162 135.245C475.709 123.766 487.561 139.056 491.418 147.097C495.276 155.137 498.436 180.653 498.994 194.177C499.552 207.981 506.802 237.167 507.081 237.818C512.844 249.809 509.033 248.926 508.568 250.088C505.454 257.199 485.191 258.593 480.311 256.037C469.621 250.506 467.344 247.532 455.864 249.298C450.891 250.041 445.407 248.554 443.92 247.02C442.433 245.487 444.338 232.473 444.338 232.473Z" fill="#FF644E"/>
<path d="M436.205 150.629C436.205 150.629 463.068 122 473.386 134.967C483.703 147.933 447.22 174.75 447.22 174.75L430.674 153.232L436.205 150.629Z" fill="#C6110C"/>
<path d="M363.284 204.123H284.879C281.114 204.123 278.093 201.102 278.093 197.338C278.093 193.573 281.114 190.552 284.879 190.552H363.284C367.049 190.552 370.07 193.573 370.07 197.338C370.07 201.056 367.002 204.123 363.284 204.123Z" fill="#FDC510"/>
<path d="M323.036 227.454H281.486C279.627 227.454 278.093 225.92 278.093 224.061C278.093 222.202 279.627 220.668 281.486 220.668H323.036C324.895 220.668 326.428 222.202 326.428 224.061C326.428 225.92 324.895 227.454 323.036 227.454Z" fill="#4256D6"/>
<path d="M402.974 227.454H335.166C333.307 227.454 331.773 225.92 331.773 224.061C331.773 222.202 333.307 220.668 335.166 220.668H402.974C404.833 220.668 406.367 222.202 406.367 224.061C406.367 225.92 404.88 227.454 402.974 227.454Z" fill="#4256D6"/>
<path d="M352.548 244.325H281.486C279.627 244.325 278.093 242.791 278.093 240.932C278.093 239.073 279.627 237.539 281.486 237.539H352.548C354.407 237.539 355.941 239.073 355.941 240.932C355.941 242.838 354.454 244.325 352.548 244.325Z" fill="#4256D6"/>
<path d="M402.974 244.325H367.699C365.84 244.325 364.306 242.791 364.306 240.932C364.306 239.073 365.84 237.539 367.699 237.539H402.974C404.833 237.539 406.367 239.073 406.367 240.932C406.367 242.838 404.88 244.325 402.974 244.325Z" fill="#4256D6"/>
<path d="M366.677 261.242H281.486C279.627 261.242 278.093 259.708 278.093 257.849C278.093 255.99 279.627 254.457 281.486 254.457H366.677C368.536 254.457 370.07 255.99 370.07 257.849C370.07 259.708 368.536 261.242 366.677 261.242Z" fill="#4256D6"/>
<path d="M402.974 261.242H383.036C381.177 261.242 379.643 259.708 379.643 257.849C379.643 255.99 381.177 254.457 383.036 254.457H402.974C404.833 254.457 406.367 255.99 406.367 257.849C406.367 259.708 404.88 261.242 402.974 261.242Z" fill="#4256D6"/>
<path d="M303.702 278.16H281.486C279.627 278.16 278.093 276.626 278.093 274.767C278.093 272.908 279.627 271.374 281.486 271.374H303.702C305.561 271.374 307.095 272.908 307.095 274.767C307.095 276.626 305.561 278.16 303.702 278.16Z" fill="#4256D6"/>
<path d="M402.974 278.16H318.76C316.901 278.16 315.367 276.626 315.367 274.767C315.367 272.908 316.901 271.374 318.76 271.374H402.974C404.834 271.374 406.367 272.908 406.367 274.767C406.367 276.626 404.88 278.16 402.974 278.16Z" fill="#4256D6"/>
<path d="M366.677 295.03H281.486C279.627 295.03 278.093 293.496 278.093 291.637C278.093 289.778 279.627 288.245 281.486 288.245H366.677C368.536 288.245 370.07 289.778 370.07 291.637C370.07 293.496 368.536 295.03 366.677 295.03Z" fill="#4256D6"/>
</svg>
