<svg width="455" height="377" viewBox="0 0 455 377" fill="none" xmlns="http://www.w3.org/2000/svg">
<path d="M2.29726 375.753C-0.356776 373.101 0.944222 354.537 1.36054 351.574C3.02582 339.614 4.6911 327.706 6.35637 315.747C9.73897 291.515 13.1216 267.284 16.5042 243.105C16.8684 240.349 17.2848 237.593 17.649 234.785C18.4296 230.157 23.0091 226.673 27.7968 226.985C32.5845 227.297 35.863 231.353 35.0304 235.929C24.9867 281.584 12.7573 327.238 5.26353 373.101C5.15945 373.725 5.05538 374.349 4.63906 374.921C3.6503 376.169 2.8697 376.325 2.29726 375.753Z" fill="#EBEFFB"/>
<path d="M114.235 375.285C116.837 372.581 115.12 354.069 114.651 351.105C112.726 339.198 110.8 327.342 108.823 315.435C104.92 291.307 100.965 267.232 97.0619 243.105C96.5935 240.349 96.1772 237.593 95.7089 234.837C94.8242 230.261 90.1406 226.881 85.3529 227.349C80.5653 227.817 77.3908 231.925 78.3275 236.501C89.412 281.792 102.682 327.082 111.217 372.685C111.321 373.309 111.477 373.933 111.893 374.453C112.934 375.701 113.715 375.857 114.235 375.285Z" fill="#EBEFFB"/>
<path d="M99.5598 248.513H15.3592C7.55321 248.513 1.20435 242.169 1.20435 234.369C1.20435 226.622 7.55321 220.226 15.3592 220.226H99.5598C107.314 220.226 113.715 226.57 113.715 234.369C113.715 242.169 107.314 248.513 99.5598 248.513Z" fill="#4256D6"/>
<path d="M304.025 149.144L333.948 81.754C334.416 80.7141 335.665 80.1941 336.758 80.6621L337.278 80.8701C338.319 81.3381 338.839 82.586 338.371 83.678L308.448 151.068C307.98 152.108 306.731 152.628 305.638 152.16L305.117 151.952C304.025 151.484 303.556 150.236 304.025 149.144Z" fill="#4B369D"/>
<path d="M332.959 79.7782L309.593 9.84046C309.229 8.7485 309.853 7.55254 310.946 7.13655L311.466 6.98055C312.559 6.61656 313.756 7.24054 314.172 8.33251L337.538 78.2703C337.903 79.3623 337.278 80.5582 336.185 80.9742L335.665 81.1302C334.52 81.4942 333.323 80.9222 332.959 79.7782Z" fill="#4B369D"/>
<path d="M336.29 88.2021C339.566 88.2021 342.222 85.5481 342.222 82.2743C342.222 79.0004 339.566 76.3464 336.29 76.3464C333.013 76.3464 330.357 79.0004 330.357 82.2743C330.357 85.5481 333.013 88.2021 336.29 88.2021Z" fill="#A7ADFF"/>
<path d="M303.764 145.036C292.836 145.036 283.989 153.304 283.989 163.496H323.54C323.54 153.304 314.693 145.036 303.764 145.036Z" fill="#E3E5FC"/>
<path d="M315.525 1.8327C309.645 -4.04311 290.702 5.26459 273.269 22.684L294.657 44.0554C312.091 26.6359 321.406 7.70852 315.525 1.8327Z" fill="#FDC510"/>
<path d="M271.5 47.8511C271.24 47.8511 270.979 47.7471 270.771 47.5391C270.407 47.1751 270.407 46.5511 270.823 46.1871L279.878 37.5034C280.242 37.1394 280.867 37.1394 281.231 37.5554C281.596 37.9194 281.596 38.5434 281.179 38.9073L272.124 47.5391C271.968 47.7471 271.76 47.8511 271.5 47.8511Z" fill="#E3E5FC"/>
<path d="M281.699 56.8468C281.543 56.8468 281.387 56.7948 281.231 56.7428C280.763 56.4828 280.607 55.9108 280.867 55.3908L287.008 44.4712C287.268 44.0032 287.84 43.8472 288.361 44.1072C288.829 44.3672 288.985 44.9392 288.725 45.4591L282.584 56.3788C282.376 56.6908 282.064 56.8468 281.699 56.8468Z" fill="#E3E5FC"/>
<path d="M261.508 37.7635C261.092 37.7635 260.727 37.5035 260.623 37.1395C260.415 36.6195 260.675 36.0476 261.196 35.8916L272.853 31.3677C273.373 31.1597 273.894 31.4197 274.102 31.9397C274.31 32.4597 274.05 33.0316 273.529 33.1876L261.872 37.7115C261.768 37.7115 261.664 37.7635 261.508 37.7635Z" fill="#E3E5FC"/>
<path d="M110.176 78.7383L101.433 105.101L78.2756 107.441C78.2756 107.441 95.8651 92.4659 98.2069 75.5144C100.549 58.563 110.176 78.7383 110.176 78.7383Z" fill="#D4A79A"/>
<path d="M147.384 39.5314C147.384 39.5314 150.299 46.8112 140.775 64.1267C131.252 81.4421 119.751 95.2217 114.495 92.6218C99.872 85.342 97.4781 72.9664 94.668 62.1507C91.2334 48.8911 111.893 24.4519 111.893 24.4519L125.996 21.176L147.384 39.5314Z" fill="#EAC2AB"/>
<path d="M165.442 39.1675C165.599 38.9076 165.755 38.6476 165.859 38.3876C168.721 32.7198 169.814 25.336 168.617 19.0962C166.535 8.54053 155.919 7.39656 146.968 9.3205C142.909 10.2045 139.058 12.8564 134.739 11.4524C131.512 10.4125 129.899 7.39656 127.453 5.36863C124.643 3.0287 121.104 1.62475 117.462 1.26076C109.864 0.480785 102.838 4.38066 98.6753 10.6205C96.9579 13.1684 95.8651 16.1323 95.709 19.2002C94.9284 18.1082 93.8876 17.7962 92.5866 18.0562C81.9704 20.1362 82.5949 35.5277 83.0633 43.5874C83.4796 50.3472 83.0633 58.7189 87.1744 64.4907C88.8397 66.7787 93.107 70.4705 95.709 67.9226C98.0508 65.6347 96.2294 58.6669 96.8539 55.651C97.7385 51.4392 97.3222 31.2638 118.815 32.7718C127.349 33.3957 133.386 47.9553 141.4 50.5032C149.622 52.9991 160.915 46.9673 165.442 39.1675Z" fill="#011627"/>
<path d="M98.8312 49.9832C98.8312 49.9832 92.8986 43.3794 93.6272 53.5191C94.3557 63.6588 99.7159 65.7387 99.7159 65.7387L98.8312 49.9832Z" fill="#EAC2AB"/>
<path d="M211.758 295.727L225.496 329.734L215.297 335.818L202.911 299.419C202.911 299.367 208.011 295.207 211.758 295.727Z" fill="#EAC2AB"/>
<path d="M272.749 334.57C272.749 334.57 265.099 339.198 249.695 343.67C234.239 348.09 216.91 352.301 213.267 350.481C209.624 348.662 203.796 328.07 209 327.03C214.204 325.938 217.69 333.582 225.6 324.534C232.366 316.787 240.744 327.082 255.055 327.342C269.366 327.55 275.142 327.654 272.749 334.57Z" fill="#DB910E"/>
<path d="M107.886 198.022C114.86 198.802 132.241 206.914 138.642 209.306C152.38 214.454 173.04 244.145 181.367 254.649C190.578 266.244 199.372 270.3 207.647 282.364C213.475 290.735 224.82 292.919 230.7 300.563C235.176 306.387 233.094 306.439 226.277 310.183C216.858 315.279 189.068 342.266 184.801 325.782C183.188 319.647 171.791 306.595 167.628 301.447C157.897 289.383 160.655 270.924 152.328 258.184C148.269 251.945 145.355 244.665 138.225 240.817C132.293 237.593 124.695 237.541 117.618 237.593C107.834 237.697 102.318 220.694 92.5344 220.798C79.6285 220.902 66.3063 233.433 55.9504 226.985C38.5691 216.118 62.0911 215.182 71.8226 214.766C91.1294 214.038 88.7355 195.89 107.886 198.022Z" fill="#030047"/>
<path d="M172.832 317.463L189.277 350.274L178.869 356.878L163.777 321.623C163.777 321.623 168.929 317.203 172.832 317.463Z" fill="#EAC2AB"/>
<path d="M236.633 360.569C236.633 360.569 228.255 364.521 211.706 367.641C195.157 370.761 176.579 373.413 172.884 371.333C169.241 369.253 164.662 348.454 170.23 347.83C175.798 347.206 178.869 355.005 187.872 346.738C195.574 339.666 203.588 350.482 218.575 351.938C233.615 353.393 239.651 353.965 236.633 360.569Z" fill="#FDC510"/>
<path d="M92.5864 194.59C99.5598 195.578 105.961 198.49 112.362 201.506C126.1 208.058 137.601 225.997 145.979 239.309C155.19 254.025 163.985 269.052 172.259 284.444C175.382 290.267 176.683 296.767 179.649 302.643C184.489 312.367 209.52 325.626 193.232 336.598C182.772 343.618 166.275 340.238 154.462 340.186C153.837 340.186 153.161 340.186 152.693 339.77C152.12 339.302 152.016 338.522 151.912 337.794C150.299 322.454 148.737 309.663 141.764 295.779C132.033 280.492 125.267 269.832 116.889 253.609C112.83 245.705 113.09 239.205 106.013 234.317C100.08 230.209 93.9394 231.457 86.81 231.509C77.0265 231.613 68.648 231.405 58.8645 231.509C45.9587 231.665 37.5282 231.249 30.5548 220.018C17.1806 198.542 26.7039 198.906 36.4353 198.438C55.6901 197.554 73.4357 191.835 92.5864 194.59Z" fill="#2B2B68"/>
<path d="M108.25 120.285C108.25 120.285 116.421 151.432 119.543 152.16C122.197 152.732 125.424 152.16 128.078 152.056C133.542 151.796 139.006 151.432 144.47 151.068C153.941 150.444 163.673 150.184 173.04 148.676C178.764 147.74 189.277 146.336 193.596 142.124C199.476 136.456 209.988 149.508 212.955 152.992C213.371 153.512 213.787 154.292 213.319 154.76C213.111 154.968 212.746 154.968 212.486 154.968C210.353 154.864 208.479 153.616 206.762 152.42C208.375 154.188 209.676 156.268 210.665 158.452C208.739 157.724 207.074 156.424 205.149 155.644C197.447 152.472 191.254 163.652 182.615 159.648C176.839 156.996 170.334 158.816 164.297 159.492C158.885 160.116 153.473 160.636 148.061 161.156C137.913 162.144 127.349 163.86 117.149 163.444C116.525 163.444 115.796 163.496 115.224 163.288C111.997 162.196 105.909 148.468 101.381 136.508C98.5189 128.969 94.8241 120.857 97.4781 109.001C99.8199 98.1337 111.217 103.074 108.25 120.285Z" fill="#EAC2AB"/>
<path d="M94.408 142.176C95.9172 136.197 97.7906 130.373 99.9763 125.069C103.411 116.697 109.552 105.257 104.296 96.3138C103.567 95.0658 102.734 93.7659 101.537 92.8299C87.7989 82.2742 66.5146 102.398 57.6158 112.901C46.4272 126.161 46.0109 131.829 41.2752 147.376C36.0192 164.692 31.2836 182.787 23.3215 199.271C22.4368 201.038 21.7603 203.482 23.5817 204.678C24.4143 205.198 25.5071 205.302 26.5479 205.302C33.6774 205.302 40.4946 203.326 47.2078 201.454C57.8239 198.491 57.3556 197.295 68.4921 199.271C72.8635 200.05 77.0267 198.751 81.4501 198.699C82.5429 198.699 86.8622 198.179 87.7989 197.763C95.0325 194.383 86.1857 192.407 85.8734 191.523C79.2123 174.987 90.0366 159.908 94.408 142.176Z" fill="#FF644E"/>
<path d="M111.269 130.529C111.269 130.529 112.57 92.8298 95.6567 95.5857C78.7438 98.3416 85.7692 140.876 85.7692 140.876L113.402 135.988L111.269 130.529Z" fill="#C6110C"/>
<path d="M145.199 375.701C142.649 372.113 144.782 345.854 145.355 341.642C147.593 324.691 149.83 307.739 152.016 290.788C156.543 256.417 161.071 221.994 165.546 187.623C166.067 183.671 166.587 179.771 167.108 175.819C168.148 169.267 172.884 164.068 177.672 164.224C182.459 164.38 185.582 169.891 184.541 176.443C172.312 241.441 157.896 306.647 148.269 371.801C148.165 372.685 148.009 373.621 147.541 374.401C146.552 376.169 145.771 376.429 145.199 375.701Z" fill="#EBEFFB"/>
<path d="M316.254 375.701C318.804 372.113 316.67 345.854 316.098 341.642C313.86 324.691 311.622 307.739 309.437 290.788C304.909 256.417 300.382 221.994 295.906 187.623C295.386 183.671 294.866 179.771 294.345 175.819C293.304 169.267 288.569 164.068 283.781 164.224C278.993 164.38 275.871 169.891 276.912 176.443C289.141 241.441 303.556 306.647 313.184 371.801C313.288 372.685 313.444 373.621 313.912 374.401C314.953 376.169 315.734 376.429 316.254 375.701Z" fill="#EBEFFB"/>
<path d="M390.567 174.259H107.47C104.504 174.259 102.058 171.815 102.058 168.851C102.058 165.888 104.504 163.444 107.47 163.444H390.619C393.585 163.444 396.031 165.888 396.031 168.851C395.979 171.815 393.533 174.259 390.567 174.259Z" fill="#4256D6"/>
<path d="M342.222 145.452C344.095 144.308 345.032 141.76 344.251 139.68C343.054 136.248 339.932 137.444 337.694 135.624C335.092 133.492 338.215 130.217 338.059 127.721C337.85 124.965 335.405 122.313 334.676 119.713C332.959 113.629 339.88 118.153 341.858 117.477C342.69 117.165 343.211 116.333 343.419 115.501C343.887 113.317 343.002 111.549 344.199 109.469C345.344 107.493 347.062 106.557 346.593 103.853C346.333 102.293 345.344 100.889 345.396 99.3295C345.396 98.8616 345.552 98.3936 345.917 98.1856C346.229 98.0296 346.593 98.0816 346.905 98.1856C347.946 98.5496 348.675 99.5375 349.507 100.266C350.392 100.993 351.745 101.461 352.578 100.682C353.15 100.162 353.202 99.3295 353.306 98.6016C353.515 97.2496 354.451 96.3136 355.596 97.0936C356.845 97.9256 356.377 101.253 356.169 102.449C355.856 104.321 355.388 106.297 355.96 108.117C356.897 111.133 359.447 107.753 360.54 106.765C361.425 105.933 362.986 105.465 363.818 106.297C365.536 108.013 362.778 110.301 362.413 111.913C362.257 112.693 362.465 113.629 363.142 113.993C365.171 115.137 366.837 113.109 367.149 116.177C367.357 118.309 365.432 120.337 366.629 122.417C367.669 124.289 371.156 125.069 369.751 127.669C368.918 129.281 365.276 129.177 365.484 131.465C365.588 132.92 367.826 133.596 367.826 135.104C367.826 136.248 366.525 136.872 365.432 136.924C364.339 136.976 363.142 136.716 362.101 137.132C360.956 137.652 360.28 139.056 360.592 140.304C360.904 141.344 361.893 142.332 361.581 143.372C361.216 144.62 359.447 144.672 358.146 144.464C352.89 143.684 347.114 143.112 342.222 145.452Z" fill="#FDC510"/>
<path d="M352.37 145.556C351.849 145.556 351.381 145.14 351.381 144.568V120.649C351.381 120.129 351.797 119.661 352.37 119.661C352.89 119.661 353.358 120.077 353.358 120.649V144.568C353.358 145.14 352.89 145.556 352.37 145.556Z" fill="white"/>
<path d="M352.37 136.249C352.162 136.249 351.953 136.197 351.745 136.041C351.329 135.677 351.277 135.105 351.589 134.689L357.834 126.941C358.198 126.525 358.771 126.473 359.187 126.785C359.603 127.149 359.655 127.721 359.343 128.137L353.098 135.885C352.942 136.145 352.63 136.249 352.37 136.249Z" fill="white"/>
<path d="M352.37 129.748C352.162 129.748 351.901 129.696 351.745 129.54L344.251 123.249C343.835 122.885 343.783 122.313 344.147 121.897C344.512 121.481 345.136 121.429 345.5 121.793L352.994 128.085C353.41 128.449 353.463 129.02 353.098 129.436C352.942 129.644 352.63 129.748 352.37 129.748Z" fill="white"/>
<path d="M341.181 142.124C342.17 148.676 343.055 155.488 344.72 161.78C344.876 162.3 345.032 162.872 345.344 163.184C345.761 163.6 346.281 163.6 346.749 163.6C349.612 163.548 352.474 163.704 355.336 163.704C358.042 163.704 360.28 163.912 360.54 159.44C360.644 157.88 360.904 142.124 362.309 142.124H341.181Z" fill="#FF644E"/>
<path d="M360.384 146.024H343.107C340.973 146.024 339.204 144.256 339.204 142.124C339.204 139.992 340.973 138.224 343.107 138.224H360.384C362.517 138.224 364.287 139.992 364.287 142.124C364.287 144.256 362.57 146.024 360.384 146.024Z" fill="#C6110C"/>
<path d="M374.695 278.516C377.349 276.852 378.65 273.264 377.609 270.3C375.892 265.464 371.468 267.076 368.346 264.58C364.651 261.617 369.127 256.885 368.866 253.349C368.606 249.449 365.12 245.705 364.027 241.961C361.633 233.329 371.416 239.777 374.227 238.789C375.371 238.373 376.152 237.177 376.412 235.981C377.089 232.861 375.788 230.365 377.505 227.454C379.17 224.646 381.564 223.346 380.888 219.498C380.471 217.314 379.17 215.338 379.17 213.102C379.17 212.478 379.378 211.75 379.899 211.438C380.315 211.178 380.836 211.282 381.304 211.438C382.813 211.958 383.802 213.362 384.999 214.402C386.196 215.442 388.173 216.066 389.318 214.974C390.099 214.246 390.151 213.05 390.307 212.01C390.567 210.086 391.92 208.786 393.585 209.878C395.407 211.074 394.678 215.806 394.418 217.47C394.002 220.174 393.325 222.93 394.106 225.53C395.407 229.845 399.05 225.01 400.611 223.606C401.912 222.462 404.045 221.734 405.294 222.982C407.74 225.426 403.785 228.65 403.265 230.937C403.005 232.029 403.317 233.329 404.306 233.901C407.168 235.565 409.562 232.601 409.978 237.021C410.29 240.037 407.532 242.897 409.249 245.913C410.706 248.513 415.65 249.657 413.673 253.349C412.476 255.585 407.376 255.481 407.636 258.705C407.792 260.785 410.967 261.772 410.967 263.852C410.967 265.412 409.145 266.348 407.532 266.452C405.971 266.556 404.306 266.14 402.796 266.764C401.131 267.492 400.194 269.52 400.715 271.236C401.183 272.744 402.536 274.096 402.12 275.604C401.599 277.424 399.102 277.476 397.228 277.164C389.786 275.968 381.616 275.188 374.695 278.516Z" fill="#FF644E"/>
<path d="M389.058 278.672C388.277 278.672 387.653 278.048 387.653 277.268V243.417C387.653 242.637 388.277 242.013 389.058 242.013C389.839 242.013 390.463 242.637 390.463 243.417V277.268C390.411 278.048 389.786 278.672 389.058 278.672Z" fill="white"/>
<path d="M389.058 265.464C388.746 265.464 388.433 265.36 388.173 265.152C387.601 264.684 387.497 263.801 387.965 263.229L396.864 252.257C397.332 251.685 398.217 251.581 398.789 252.049C399.362 252.517 399.466 253.401 398.998 253.973L390.099 264.944C389.839 265.308 389.474 265.464 389.058 265.464Z" fill="white"/>
<path d="M389.058 256.209C388.746 256.209 388.433 256.105 388.173 255.897L377.557 247.005C376.985 246.537 376.881 245.653 377.401 245.081C377.869 244.509 378.754 244.405 379.326 244.925L389.943 253.817C390.515 254.285 390.619 255.169 390.099 255.741C389.839 256.053 389.422 256.209 389.058 256.209Z" fill="white"/>
<path d="M373.238 273.784C374.643 283.04 375.892 292.712 378.234 301.655C378.442 302.383 378.65 303.163 379.118 303.631C379.691 304.203 380.419 304.203 381.148 304.203C385.207 304.099 389.266 304.359 393.273 304.359C397.072 304.359 400.246 304.671 400.663 298.327C400.819 296.143 401.131 273.836 403.161 273.836C403.161 273.784 373.238 273.784 373.238 273.784Z" fill="#FDC510"/>
<path d="M400.455 279.296H375.996C372.926 279.296 370.48 276.8 370.48 273.784C370.48 270.716 372.978 268.272 375.996 268.272H400.455C403.525 268.272 405.971 270.768 405.971 273.784C405.971 276.8 403.473 279.296 400.455 279.296Z" fill="#0028D0"/>
<path d="M238.923 162.872H151.6C150.455 162.872 149.466 161.936 149.466 160.74C149.466 159.596 150.403 158.608 151.6 158.608H238.923C240.068 158.608 241.056 159.544 241.056 160.74C241.056 161.936 240.068 162.872 238.923 162.872Z" fill="#4B369D"/>
<path d="M236.737 159.908L280.399 84.354C280.971 83.3661 282.272 83.0021 283.313 83.5741C284.302 84.146 284.666 85.446 284.093 86.486L240.432 162.04C239.86 163.028 238.559 163.392 237.518 162.82C236.529 162.196 236.165 160.896 236.737 159.908Z" fill="#4B369D"/>
<path d="M432.823 325.782H345.084C340.192 325.782 336.133 321.779 336.133 316.839V313.459C336.133 308.571 340.14 304.515 345.084 304.515H432.823C437.715 304.515 441.774 308.519 441.774 313.459V316.839C441.774 321.779 437.715 325.782 432.823 325.782Z" fill="#4256D6"/>
<path d="M445.365 348.87H357.626C352.734 348.87 348.675 344.866 348.675 339.926V336.546C348.675 331.658 352.682 327.602 357.626 327.602H445.365C450.257 327.602 454.316 331.606 454.316 336.546V339.926C454.316 344.866 450.309 348.87 445.365 348.87Z" fill="#4256D6"/>
<path d="M432.823 372.165H345.084C340.192 372.165 336.133 368.161 336.133 363.221V359.893C336.133 355.006 340.14 350.95 345.084 350.95H432.823C437.715 350.95 441.774 354.954 441.774 359.893V363.273C441.774 368.161 437.715 372.165 432.823 372.165Z" fill="#4256D6"/>
<path d="M344.772 317.463C346.123 317.463 347.218 316.368 347.218 315.019C347.218 313.669 346.123 312.575 344.772 312.575C343.421 312.575 342.326 313.669 342.326 315.019C342.326 316.368 343.421 317.463 344.772 317.463Z" fill="white"/>
<path d="M432.511 317.463C433.862 317.463 434.957 316.368 434.957 315.019C434.957 313.669 433.862 312.575 432.511 312.575C431.16 312.575 430.065 313.669 430.065 315.019C430.065 316.368 431.16 317.463 432.511 317.463Z" fill="white"/>
<path d="M356.949 339.718C358.3 339.718 359.395 338.624 359.395 337.274C359.395 335.924 358.3 334.83 356.949 334.83C355.598 334.83 354.503 335.924 354.503 337.274C354.503 338.624 355.598 339.718 356.949 339.718Z" fill="white"/>
<path d="M444.689 339.718C446.039 339.718 447.134 338.624 447.134 337.274C447.134 335.924 446.039 334.83 444.689 334.83C443.338 334.83 442.243 335.924 442.243 337.274C442.243 338.624 443.338 339.718 444.689 339.718Z" fill="white"/>
<path d="M345.24 363.897C346.591 363.897 347.686 362.803 347.686 361.453C347.686 360.103 346.591 359.009 345.24 359.009C343.889 359.009 342.794 360.103 342.794 361.453C342.794 362.803 343.889 363.897 345.24 363.897Z" fill="white"/>
<path d="M432.98 363.897C434.33 363.897 435.425 362.803 435.425 361.453C435.425 360.103 434.33 359.009 432.98 359.009C431.629 359.009 430.534 360.103 430.534 361.453C430.534 362.803 431.629 363.897 432.98 363.897Z" fill="white"/>
</svg>
