<svg width="203" height="281" viewBox="0 0 203 281" fill="none" xmlns="http://www.w3.org/2000/svg">
<path d="M14.0276 220.627H96.6113C103.776 220.627 109.665 214.751 109.665 207.537V13.1562C109.665 5.97097 103.805 0.0656738 96.6113 0.0656738H14.0276C6.86282 0.0656738 0.974342 5.94188 0.974342 13.1562V207.566C1.00335 214.751 6.86282 220.627 14.0276 220.627Z" fill="#4256D6"/>
<path d="M20.9312 200.06H89.7075C96.8723 200.06 102.761 194.184 102.761 186.97V20.5452C102.761 13.3599 96.9013 7.45459 89.7075 7.45459H20.9312C13.7664 7.45459 7.87798 13.3308 7.87798 20.5452V186.97C7.87798 194.184 13.7664 200.06 20.9312 200.06Z" fill="#EBEFFB"/>
<path d="M45.0943 5.09827H65.5734C66.0666 5.09827 66.4727 4.691 66.4727 4.19647C66.4727 3.70194 66.0666 3.29468 65.5734 3.29468H45.0943C44.6012 3.29468 44.1951 3.70194 44.1951 4.19647C44.1661 4.691 44.6012 5.09827 45.0943 5.09827Z" fill="#E3E5FC"/>
<path d="M55.3338 215.304C52.2258 215.304 49.7064 212.777 49.7064 209.66C49.7064 206.543 52.2258 204.017 55.3338 204.017C58.4417 204.017 60.9612 206.543 60.9612 209.66C60.9612 212.777 58.4417 215.304 55.3338 215.304Z" fill="#E3E5FC"/>
<path d="M29.4594 177.079H81.1794C85.7916 177.079 89.5625 173.297 89.5625 168.672V165.414C89.5625 160.789 85.7916 157.007 81.1794 157.007H29.4305C24.8183 157.007 21.0473 160.789 21.0473 165.414V168.672C21.0763 173.297 24.8473 177.079 29.4594 177.079Z" fill="#FF644E"/>
<path d="M54.7536 60.5149C59.1047 59.4385 60.178 46.348 64.5291 46.348C74.0725 47.2207 77.3793 59.904 82.7747 69.4165C82.0785 73.3436 78.6266 76.3399 74.5366 76.3399H36.276C31.6639 76.3399 27.8929 72.5582 27.8929 67.9329V40.4136C29.2273 40.5299 30.5906 40.9954 31.9249 41.9844C39.5248 48.5297 44.9782 62.6966 54.7536 60.5149Z" fill="#3555DB"/>
<path d="M36.1891 29.0977H74.4497C79.0618 29.0977 82.8328 32.8794 82.8328 37.5047V67.933C82.8328 68.4275 82.7747 68.9221 82.6877 69.4166C77.3214 59.9041 74.0146 47.2208 64.4422 46.3481C60.0911 46.3481 59.0178 59.4387 54.6667 60.515C44.8913 62.6968 39.4379 48.5299 31.838 41.9846C30.4746 41.0246 29.1113 40.5301 27.806 40.4137V37.5047C27.806 32.9085 31.5769 29.0977 36.1891 29.0977Z" fill="white"/>
<path d="M30.5037 94.0851H80.1351C81.4695 94.0851 82.5427 92.9796 82.5427 91.6706C82.5427 90.3324 81.4404 89.2561 80.1351 89.2561H30.5037C29.1693 89.2561 28.0961 90.3615 28.0961 91.6706C28.0961 93.0087 29.1693 94.0851 30.5037 94.0851Z" fill="#4256D6"/>
<path d="M30.5037 105.198H80.1351C81.4695 105.198 82.5427 104.092 82.5427 102.783C82.5427 101.445 81.4404 100.369 80.1351 100.369H30.5037C29.1693 100.369 28.0961 101.474 28.0961 102.783C28.0961 104.121 29.1693 105.198 30.5037 105.198Z" fill="#4256D6"/>
<path d="M30.5037 116.339H80.1351C81.4695 116.339 82.5427 115.234 82.5427 113.924C82.5427 112.586 81.4404 111.51 80.1351 111.51H30.5037C29.1693 111.51 28.0961 112.615 28.0961 113.924C28.0961 115.234 29.1693 116.339 30.5037 116.339Z" fill="#4256D6"/>
<path d="M49.8806 48.6462C47.2212 48.6462 45.0654 46.4842 45.0654 43.8172C45.0654 41.1503 47.2212 38.9883 49.8806 38.9883C52.54 38.9883 54.6958 41.1503 54.6958 43.8172C54.6958 46.4842 52.54 48.6462 49.8806 48.6462Z" fill="#3555DB"/>
<path d="M55.74 147.553C56.0591 147.291 56.0881 146.854 55.8561 146.534L49.2134 138.36C48.9523 138.04 48.5172 138.011 48.1981 138.244C47.8791 138.506 47.85 138.942 48.0821 139.262L54.7248 147.436C54.9568 147.756 55.4209 147.814 55.74 147.553Z" fill="white"/>
<path d="M54.8988 147.553C54.5797 147.291 54.5507 146.854 54.7828 146.534L61.4255 138.36C61.6865 138.04 62.1216 138.011 62.4407 138.244C62.7598 138.506 62.7888 138.942 62.5567 139.262L55.9141 147.436C55.682 147.756 55.2179 147.814 54.8988 147.553Z" fill="white"/>
<path d="M167.853 106.855C167.853 106.855 174.467 115.612 174.844 121.953C175.25 128.324 158.513 130.855 158.513 130.855L167.853 106.855Z" fill="#D4A79A"/>
<path d="M149.202 82.5071L149.898 95.714L160.195 99.6994C160.195 99.6994 153.988 90.5941 155.032 82.5071C156.134 74.42 149.202 82.5071 149.202 82.5071Z" fill="#D4A79A"/>
<path d="M139.977 55.4823C139.977 55.4823 137.743 58.4786 139.919 67.6129C142.095 76.7472 145.662 84.5725 148.418 84.0198C156.018 82.5071 158.687 77.0963 161.326 72.471C164.546 66.7984 158.136 52.9515 158.136 52.9515L152.073 49.6643L139.977 55.4823Z" fill="#EAC2AB"/>
<path d="M131.884 53.0096C131.217 50.857 132.377 48.1225 133.944 46.7844C134.553 46.2607 135.307 45.9407 136.061 46.028C136.641 46.0862 137.192 46.348 137.743 46.2607C139.426 45.9698 139.629 43.4681 141.224 42.9735C142.385 42.5954 143.516 43.6717 144.705 43.9335C145.604 44.1371 146.533 43.9044 147.461 43.7008C150.014 43.1772 152.392 41.9263 155.003 41.6063C157.207 41.3445 159.528 41.5772 161.529 42.6535C163.618 43.7881 165.126 45.8535 165.91 48.2389C166.374 49.6643 166.548 51.2642 166.171 52.7187C166.49 51.526 168.636 52.806 168.984 53.2715C170.348 55.1332 170.58 59.1477 169.855 61.3003C169.274 63.0167 168.317 64.5293 167.795 66.2457C167.157 68.3111 166.896 70.6092 165.765 72.4419C164.459 74.5364 161.849 75.6127 159.615 75.0309C160.311 73.14 160.978 71.191 161.123 69.1256C161.239 67.0893 163.937 57.8386 153.93 55.8605C149.956 55.075 145.14 58.3913 141.137 58.5659C139.252 58.6531 137.337 58.275 135.568 57.5477C134.205 56.995 132.841 54.9296 132.087 53.4169C132 53.3296 131.942 53.1842 131.884 53.0096Z" fill="#011627"/>
<path d="M161.094 62.5512C161.094 62.5512 163.908 59.3804 163.589 64.2094C163.27 69.0383 160.746 70.0565 160.746 70.0565L161.094 62.5512Z" fill="#EAC2AB"/>
<path d="M185.025 248.117L191.088 264.117L196.628 262.633L189.289 246.314C189.289 246.314 186.157 246.692 185.025 248.117Z" fill="#D4A79A"/>
<path d="M176.903 279.011C177.106 279.331 179.05 279.215 179.34 279.215C182.357 279.273 187.027 279.477 189.609 277.731C192.132 276.015 193.786 273.077 196.019 271.011C197.586 269.557 199.616 268.684 201.472 267.666C203.532 266.531 199.355 257.135 196.86 258.648C194.83 259.87 195.845 263.302 190.682 262.837C186.273 262.459 189.057 268.771 183.952 272.553C179.398 275.869 174.728 275.375 176.903 279.011Z" fill="#DB910E"/>
<path d="M173.8 191.013C176.265 204.453 181.4 216.7 189.058 228.016C192.77 233.514 196.773 238.838 200.631 244.248C206.143 251.957 187.462 253.79 182.879 255.157C179.862 256.059 175.395 256.292 175.598 253.965C175.656 253.295 176.178 252.597 176.613 251.957C180.558 245.936 177.107 239.856 174.38 234.445C166.229 218.242 160.717 199.566 154.307 182.665C151.87 176.236 152.973 169.894 152.624 162.854C152.392 158.549 159.876 139.524 168.027 144.207C173.104 147.116 170.29 158.229 169.739 162.68C169.362 165.763 168.694 169.109 169.217 172.221C170.261 178.592 172.639 184.643 173.8 191.013Z" fill="#030047"/>
<path d="M153.929 253.499L150.159 270.72L155.757 272.582L158.629 254.372C158.629 254.372 155.728 252.917 153.929 253.499Z" fill="#EAC2AB"/>
<path d="M127.185 277.498C127.185 277.498 131.391 278.924 139.426 279.535C147.461 280.146 156.453 280.436 158.078 279.244C159.702 278.051 160.746 267.87 158.078 267.87C155.409 267.87 154.365 271.768 149.637 268.277C145.576 265.31 142.356 270.924 135.307 272.408C128.229 273.92 125.357 274.502 127.185 277.498Z" fill="#FDC510"/>
<path d="M139.31 258.328C139.571 257.688 140.296 257.222 140.905 256.728C146.533 252.248 145.141 245.383 144.241 239.39C142.095 225.194 144.386 210.882 145.257 196.657C146.098 182.781 144.705 168.876 141.544 155.378C140.383 150.462 138.817 142.869 146.388 144.323C149.985 144.993 153.524 144.876 157.092 144.236C158.977 143.916 157.063 143.305 158.977 143.916C165.533 146.011 167.969 158.403 166.606 162.738C163.937 171.348 163.067 179.581 162.632 188.715C162.023 201.631 159.876 214.576 161.414 227.376C162.168 233.659 163.038 239.914 163.879 246.197C164.372 249.863 167.418 257.862 165.359 261.179C162.545 265.717 150.043 261.877 145.866 261.76C142.733 261.644 138.411 260.451 139.31 258.328Z" fill="#2B2B68"/>
<path d="M144.879 120.295C146.765 112.586 144.705 99.583 150.13 93.8522C150.681 93.2704 151.29 92.6886 152.015 92.3396C158.832 89.256 162.951 94.8704 165.881 99.7285C168.81 104.616 168.752 109.881 170.174 115.321C171.798 121.517 171.479 128.004 171.595 134.404C171.653 138.302 171.189 142.2 171.421 146.098C171.566 148.833 171.972 151.538 172.581 154.185C172.987 155.96 175.308 159.48 174.641 161.254C174.119 162.68 171.653 162.156 170.464 162.185C165.823 162.33 161.268 160.963 157.149 158.898C153.378 157.036 150.072 154.127 145.721 153.778C143.574 153.603 136.757 154.476 137.744 150.549C140.064 141.211 142.704 133.24 143.661 126.666C143.951 124.601 144.357 122.448 144.879 120.295Z" fill="#FF644E"/>
<path d="M135.423 126.782C135.423 126.782 127.446 135.626 126.17 134.375C124.864 133.124 101.049 107.612 99.8601 104.819C98.6708 102.056 95.8281 93.9975 96.1181 92.3976C96.4082 90.7685 97.1624 90.9431 94.0296 90.3904C90.8678 89.8086 84.8633 89.6922 85.3564 90.914C85.8496 92.1358 88.3442 92.2521 88.3442 92.2521C88.3442 92.2521 85.1244 93.0376 86.3427 93.7066C87.561 94.3757 91.622 94.9284 91.2449 96.092C90.8388 97.2556 90.2587 99.961 90.4907 102.259C90.6938 104.557 91.593 105.575 94.2327 107.204C96.8723 108.834 97.3364 107.699 98.8738 110.928C100.411 114.157 123.762 142.142 125.27 143.276C126.779 144.411 127.156 145.72 130.463 142.665C133.77 139.611 139.6 132.018 144.27 127.131C148.563 122.651 150.304 116.31 150.304 116.31L143.371 115.292C143.313 115.233 142.501 120.033 135.423 126.782Z" fill="#EAC2AB"/>
<path d="M140.528 115.408C140.528 115.408 146.011 97.5759 153.117 100.979C160.224 104.383 150.246 123.437 150.246 123.437L138.73 117.677L140.528 115.408Z" fill="#C6110C"/>
</svg>
