<svg width="281" height="263" viewBox="0 0 281 263" fill="none" xmlns="http://www.w3.org/2000/svg">
<path d="M242.424 191.091H11.826C5.60931 191.091 0.5 186.007 0.5 179.765V11.5859C0.5 5.34402 5.58414 0.259888 11.826 0.259888H242.45C248.666 0.259888 253.776 5.34402 253.776 11.5859V179.79C253.75 186.007 248.666 191.091 242.424 191.091Z" fill="#4256D6"/>
<path d="M235.906 175.184H18.3448C12.1281 175.184 7.0188 170.1 7.0188 163.858V19.8666C7.0188 13.6498 12.1029 8.54053 18.3448 8.54053H235.906C242.122 8.54053 247.232 13.6247 247.232 19.8666V163.858C247.232 170.1 242.122 175.184 235.906 175.184Z" fill="#EBEFFB"/>
<path d="M144.643 183.918H109.608C108.752 183.918 108.047 183.213 108.047 182.357C108.047 181.502 108.752 180.797 109.608 180.797H144.618C145.473 180.797 146.178 181.502 146.178 182.357C146.178 183.238 145.499 183.918 144.643 183.918Z" fill="#EBEFFB"/>
<path d="M22.1705 6.67796C23.1436 6.67796 23.9324 5.88916 23.9324 4.91613C23.9324 3.94309 23.1436 3.1543 22.1705 3.1543C21.1975 3.1543 20.4087 3.94309 20.4087 4.91613C20.4087 5.88916 21.1975 6.67796 22.1705 6.67796Z" fill="#E3E5FC"/>
<path d="M29.7716 6.67796C30.7446 6.67796 31.5334 5.88916 31.5334 4.91613C31.5334 3.94309 30.7446 3.1543 29.7716 3.1543C28.7986 3.1543 28.0098 3.94309 28.0098 4.91613C28.0098 5.88916 28.7986 6.67796 29.7716 6.67796Z" fill="white"/>
<path d="M37.4481 6.67796C38.4211 6.67796 39.2099 5.88916 39.2099 4.91613C39.2099 3.94309 38.4211 3.1543 37.4481 3.1543C36.4751 3.1543 35.6863 3.94309 35.6863 4.91613C35.6863 5.88916 36.4751 6.67796 37.4481 6.67796Z" fill="#4B369D"/>
<path d="M31.911 80.2218H120.984C127.201 80.2218 132.31 75.1376 132.31 68.8957V36.7046C132.31 30.4878 127.226 25.3785 120.984 25.3785H31.911C25.6943 25.3785 20.585 30.4627 20.585 36.7046V68.8957C20.585 75.1125 25.6691 80.2218 31.911 80.2218Z" fill="white"/>
<path d="M30.5768 160.712C29.4191 160.712 28.4626 159.756 28.4626 158.598V109.921C28.4626 108.763 29.4191 107.807 30.5768 107.807C31.7346 107.807 32.691 108.763 32.691 109.921V158.598C32.691 159.756 31.7346 160.712 30.5768 160.712Z" fill="#C6110C"/>
<path d="M40.695 160.712C39.5372 160.712 38.5808 159.756 38.5808 158.598V136.877C38.5808 135.719 39.5372 134.763 40.695 134.763C41.8528 134.763 42.8092 135.719 42.8092 136.877V158.598C42.8092 159.756 41.8528 160.712 40.695 160.712Z" fill="#3555DB"/>
<path d="M50.8378 160.712C49.6801 160.712 48.7236 159.756 48.7236 158.598V116.163C48.7236 115.005 49.6801 114.049 50.8378 114.049C51.9956 114.049 52.952 115.005 52.952 116.163V158.598C52.952 159.756 51.9956 160.712 50.8378 160.712Z" fill="#C6110C"/>
<path d="M60.9811 160.712C59.8234 160.712 58.8669 159.756 58.8669 158.598V142.993C58.8669 141.835 59.8234 140.879 60.9811 140.879C62.1389 140.879 63.0953 141.835 63.0953 142.993V158.598C63.0953 159.756 62.1389 160.712 60.9811 160.712Z" fill="#3555DB"/>
<path d="M71.0991 160.712C69.9413 160.712 68.9849 159.756 68.9849 158.598V132.297C68.9849 131.139 69.9413 130.182 71.0991 130.182C72.2568 130.182 73.2132 131.139 73.2132 132.297V158.573C73.2132 159.756 72.282 160.712 71.0991 160.712Z" fill="#C6110C"/>
<path d="M81.2421 160.712C80.0843 160.712 79.1279 159.756 79.1279 158.598V150.821C79.1279 149.663 80.0843 148.707 81.2421 148.707C82.3999 148.707 83.3563 149.663 83.3563 150.821V158.598C83.3563 159.756 82.3999 160.712 81.2421 160.712Z" fill="#3555DB"/>
<path d="M91.3852 160.712C90.2274 160.712 89.271 159.756 89.271 158.598V116.163C89.271 115.005 90.2274 114.049 91.3852 114.049C92.543 114.049 93.4994 115.005 93.4994 116.163V158.598C93.4994 159.756 92.543 160.712 91.3852 160.712Z" fill="#C6110C"/>
<path d="M101.528 160.712C100.37 160.712 99.4141 159.756 99.4141 158.598V142.993C99.4141 141.835 100.37 140.879 101.528 140.879C102.686 140.879 103.642 141.835 103.642 142.993V158.598C103.642 159.756 102.686 160.712 101.528 160.712Z" fill="#3555DB"/>
<path d="M111.646 160.712C110.489 160.712 109.532 159.756 109.532 158.598V132.297C109.532 131.139 110.489 130.182 111.646 130.182C112.804 130.182 113.761 131.139 113.761 132.297V158.573C113.786 159.756 112.829 160.712 111.646 160.712Z" fill="#C6110C"/>
<path d="M121.789 160.712C120.631 160.712 119.675 159.756 119.675 158.598V150.821C119.675 149.663 120.631 148.707 121.789 148.707C122.947 148.707 123.903 149.663 123.903 150.821V158.598C123.903 159.756 122.947 160.712 121.789 160.712Z" fill="#3555DB"/>
<path d="M35.0822 63.6102C41.0473 71.8404 52.5747 73.6526 60.8049 67.6875L39.1596 37.8875C30.9293 43.8525 29.1172 55.3799 35.0822 63.6102Z" fill="#4256D6"/>
<path d="M41.0974 36.478L51.014 50.1196L64.9324 40.0268C59.2946 32.5768 48.6984 30.966 41.0974 36.478Z" fill="#4256D6"/>
<path d="M71.4012 38.8441C71.3006 38.7182 71.1999 38.6175 71.0992 38.4917L52.4238 52.0578L66.2919 71.1359C76.6112 63.6355 78.9016 49.1885 71.4012 38.8441Z" fill="#FDC510"/>
<path d="M87.0308 39.5738C87.0308 38.3405 88.0375 37.3337 89.2708 37.3337H119.323C120.556 37.3337 121.563 38.3405 121.563 39.5738C121.563 40.8071 120.556 41.8138 119.323 41.8138H89.2708C88.0375 41.8138 87.0308 40.8071 87.0308 39.5738Z" fill="#FDC510"/>
<path d="M87.0308 50.2958C87.0308 49.0625 88.0375 48.0558 89.2708 48.0558H99.4643C100.698 48.0558 101.704 49.0625 101.704 50.2958C101.704 51.5291 100.698 52.5359 99.4643 52.5359H89.2708C88.0375 52.5359 87.0308 51.5291 87.0308 50.2958Z" fill="#4256D6"/>
<path d="M157.303 81.6815C157.152 81.6815 157.001 81.6563 156.85 81.5556C156.397 81.304 156.22 80.7251 156.472 80.272L164.224 66.1774L170.416 72.0921L174.543 65.5482L178.168 67.7379L186.826 46.2687L192.867 56.9655L198.53 48.5591L203.312 54.4235L212.977 36.6038C213.279 36.0501 213.681 35.4209 214.109 34.7665C214.462 34.2379 214.839 33.659 215.166 33.0802C214.789 33.2312 214.436 33.4073 214.084 33.5835C213.43 33.8856 212.8 34.1876 212.247 34.3638C211.743 34.54 211.215 34.2631 211.064 33.7597C210.888 33.2563 211.164 32.7278 211.668 32.5768C212.121 32.4258 212.7 32.1489 213.304 31.872C214.512 31.3183 215.745 30.7394 216.853 30.6388L218.187 30.5381L217.834 31.8217C217.482 33.0802 216.601 34.4393 215.72 35.7732C215.317 36.4025 214.94 36.9813 214.663 37.4847L203.639 57.7709L198.681 51.68L192.716 60.5144L187.103 50.5726L179.099 70.4561L175.173 68.0902L170.818 75.0117L164.753 69.1977L158.184 81.1529C157.957 81.5053 157.655 81.6815 157.303 81.6815Z" fill="#3555DB"/>
<path d="M217.432 37.2835C216.903 37.2835 216.5 36.8556 216.5 36.3522V31.6456C216.5 31.1171 216.928 30.7144 217.432 30.7144C217.935 30.7144 218.363 31.1422 218.363 31.6456V36.3522C218.388 36.8556 217.96 37.2835 217.432 37.2835Z" fill="#3555DB"/>
<path d="M156.371 87.1683C155.843 87.1683 155.44 86.7404 155.44 86.2371V26.0328C155.44 25.5043 155.868 25.1016 156.371 25.1016C156.9 25.1016 157.303 25.5294 157.303 26.0328V86.2371C157.303 86.7656 156.875 87.1683 156.371 87.1683Z" fill="#4256D6"/>
<path d="M150.633 81.6816C150.633 81.1531 151.061 80.7504 151.564 80.7504H211.769C212.297 80.7504 212.7 81.1782 212.7 81.6816C212.7 82.2102 212.272 82.6129 211.769 82.6129H151.564C151.061 82.6129 150.633 82.2102 150.633 81.6816Z" fill="#4256D6"/>
<path d="M187.707 49.4149H186.826C185.643 49.4149 184.687 48.4585 184.687 47.2755V46.3946C184.687 45.2117 185.643 44.2552 186.826 44.2552H187.707C188.89 44.2552 189.846 45.2117 189.846 46.3946V47.2755C189.846 48.4585 188.865 49.4149 187.707 49.4149Z" fill="#D7384E"/>
<path d="M273.105 91.7744C273.105 91.7744 276.428 107.53 276.126 113.973C275.849 120.417 270.261 130.006 270.261 130.006L266.637 91.7744H273.105Z" fill="#EAC2AB"/>
<path d="M253.348 62.8803L254.078 76.4464L264.699 80.5489C264.699 80.5489 258.306 71.2112 259.388 62.8803C260.47 54.5745 253.348 62.8803 253.348 62.8803Z" fill="#D4A79A"/>
<path d="M243.859 35.1441C243.859 35.1441 241.543 38.2147 243.809 47.6028C246.074 56.9908 249.723 65.0197 252.567 64.466C260.395 62.9055 263.138 57.3683 265.857 52.6114C269.179 46.7973 262.585 32.5769 262.585 32.5769L256.343 29.2042L243.859 35.1441Z" fill="#EAC2AB"/>
<path d="M235.503 32.602C234.823 30.3871 236.031 27.5682 237.617 26.2091C238.246 25.6805 239.026 25.3533 239.781 25.4288C240.36 25.4792 240.939 25.7812 241.518 25.6805C243.255 25.3785 243.481 22.8113 245.092 22.2827C246.3 21.9052 247.458 22.9875 248.691 23.2643C249.623 23.4908 250.579 23.2391 251.51 23.0378C254.153 22.4841 256.569 21.2256 259.287 20.8984C261.553 20.6216 263.944 20.8733 266.008 21.9807C268.147 23.1385 269.707 25.2527 270.513 27.6941C271.016 29.1539 271.167 30.7898 270.764 32.3C271.092 31.0667 273.307 32.4007 273.659 32.8789C275.068 34.7917 275.32 38.9194 274.565 41.1343C273.961 42.8961 273.005 44.4314 272.451 46.2184C271.796 48.3326 271.545 50.6985 270.362 52.5862C269.003 54.7507 261.754 61.8232 259.464 61.2443C260.168 59.2811 256.72 57.5193 256.846 55.4051C256.972 53.3161 258.281 42.3676 247.961 40.3289C243.859 39.5235 249.119 38.1895 245.017 38.3405C243.053 38.416 241.115 38.0385 239.278 37.2834C237.869 36.7046 236.484 34.5904 235.704 33.055C235.629 32.9292 235.553 32.7782 235.503 32.602Z" fill="#011627"/>
<path d="M256.217 46.7721C256.217 46.7721 260.521 43.0974 260.193 48.0809C259.866 53.0644 255.864 54.499 255.864 54.499L256.217 46.7721Z" fill="#EAC2AB"/>
<path d="M267.694 234.634L265.052 252.554L270.941 254.064L272.577 235.212C272.602 235.187 269.481 233.904 267.694 234.634Z" fill="#D4A79A"/>
<path d="M241.946 261.136C241.946 261.136 246.351 262.294 254.682 262.345C263.013 262.395 272.224 262.043 273.835 260.683C275.446 259.324 275.773 248.829 273.03 249.03C270.286 249.232 269.481 253.284 264.372 250.062C259.992 247.294 257.073 253.284 249.925 255.322C242.752 257.386 239.857 258.217 241.946 261.136Z" fill="#DB910E"/>
<path d="M252.995 240.145C253.222 239.416 253.901 238.837 254.505 238.258C259.917 232.821 257.979 225.271 256.594 218.651C253.297 202.921 254.505 186.762 254.279 170.83C254.052 155.276 251.535 139.822 247.232 124.947C245.671 119.536 243.456 111.18 251.334 112.237C255.084 112.74 258.709 112.337 262.333 111.381C264.246 110.877 262.232 110.324 264.246 110.877C271.142 112.74 275.068 132.573 274.036 137.506C271.973 147.322 271.268 150.443 271.52 160.662C271.897 175.134 270.714 189.757 273.281 203.978C274.54 210.949 275.924 217.896 277.283 224.843C278.063 228.895 281.839 237.629 280.002 241.479C277.485 246.765 264.321 243.367 260.017 243.543C256.745 243.619 252.215 242.612 252.995 240.145Z" fill="#030047"/>
<path d="M254.329 235.238L250.453 252.931L256.242 254.844L259.212 236.144C259.187 236.144 256.192 234.659 254.329 235.238Z" fill="#EAC2AB"/>
<path d="M226.794 259.903C226.794 259.903 231.123 261.388 239.404 261.992C247.685 262.596 256.947 262.923 258.608 261.69C260.294 260.457 261.377 250.012 258.608 250.012C255.839 250.012 254.782 254.014 249.899 250.44C245.721 247.394 242.399 253.158 235.125 254.693C227.851 256.229 224.932 256.833 226.794 259.903Z" fill="#FDC510"/>
<path d="M239.303 240.196C239.58 239.542 240.31 239.063 240.939 238.56C246.728 233.954 245.319 226.907 244.388 220.765C242.198 206.193 244.539 191.494 245.419 176.896C246.275 162.65 244.841 148.379 241.594 134.486C240.411 129.452 238.775 121.65 246.577 123.135C250.277 123.84 253.927 123.689 257.601 123.059C259.539 122.732 257.551 122.078 259.539 122.732C266.285 124.872 268.902 132.07 267.518 136.5C264.774 145.334 263.768 159.353 263.315 168.716C262.685 181.98 260.471 195.269 262.056 208.408C262.836 214.851 263.717 221.294 264.573 227.737C265.076 231.487 268.223 239.718 266.108 243.116C263.214 247.772 250.327 243.82 246.024 243.72C242.802 243.619 238.347 242.411 239.303 240.196Z" fill="#2B2B68"/>
<path d="M230.872 89.3328C228.053 91.447 225.033 93.3347 221.861 95.021C219.395 96.3298 212.725 100.583 209.83 98.4943C208.975 97.8902 208.572 96.959 208.195 96.0529C206.08 90.7674 203.211 85.7588 200.392 80.725C197.875 76.2449 194.905 71.5131 194.679 66.429C194.452 61.219 193.496 54.2724 192.791 53.0391C192.086 51.8058 186.65 44.683 186.751 47.0237C186.851 49.3644 192.036 55.405 189.897 55.3295C187.757 55.254 183.353 57.0661 184.108 59.7341C184.863 62.402 188.739 67.9643 188.739 67.9643C190.652 73.0988 192.665 78.2333 194.729 83.3174C196.264 87.1431 197.85 90.9436 199.562 94.6938C201.223 98.3433 202.834 102.345 206.961 104.535C207.49 104.812 208.069 105.063 208.673 105.265C213.48 106.8 218.791 104.434 223.145 102.043C232.483 96.8835 241.267 91.0694 250.101 85.3309C248.163 83.9718 246.225 82.5875 244.287 81.2284C243.834 80.9012 243.305 80.5488 242.701 80.5236C241.996 80.4733 241.342 80.876 240.788 81.2535C238.045 83.1664 235.679 85.4568 233.112 87.5458C232.382 88.1498 231.627 88.7539 230.872 89.3328Z" fill="#EAC2AB"/>
<path d="M261.402 93.5109C261.402 93.5109 252.442 78.4598 259.287 75.6409C266.133 72.822 273.13 91.7743 273.13 91.7743L261.855 96.2292L261.402 93.5109Z" fill="#C6110C"/>
<path d="M240.663 126.155C240.663 125.526 239.631 109.367 241.896 98.9978C244.186 88.6281 241.896 79.7183 249.774 73.5016C257.652 67.2848 264.07 75.5654 266.159 79.9197C268.248 84.2739 269.959 98.0917 270.261 105.416C270.563 112.891 274.49 128.697 274.641 129.05C277.762 135.543 275.698 135.065 275.446 135.694C273.76 139.545 262.786 140.3 260.143 138.916C254.354 135.921 253.121 134.31 246.904 135.266C244.211 135.669 241.241 134.864 240.436 134.033C239.631 133.202 240.663 126.155 240.663 126.155Z" fill="#FF644E"/>
<path d="M236.258 81.8325C236.258 81.8325 250.806 66.3285 256.393 73.3506C261.981 80.3727 242.223 94.8952 242.223 94.8952L233.263 83.242L236.258 81.8325Z" fill="#C6110C"/>
<path d="M196.768 110.802H154.308C152.269 110.802 150.633 109.166 150.633 107.127C150.633 105.089 152.269 103.453 154.308 103.453H196.768C198.806 103.453 200.442 105.089 200.442 107.127C200.442 109.141 198.781 110.802 196.768 110.802Z" fill="#FDC510"/>
<path d="M174.971 123.437H152.47C151.464 123.437 150.633 122.606 150.633 121.6C150.633 120.593 151.464 119.762 152.47 119.762H174.971C175.978 119.762 176.809 120.593 176.809 121.6C176.809 122.606 175.978 123.437 174.971 123.437Z" fill="#4256D6"/>
<path d="M218.262 123.437H181.54C180.534 123.437 179.703 122.606 179.703 121.6C179.703 120.593 180.534 119.762 181.54 119.762H218.262C219.269 119.762 220.099 120.593 220.099 121.6C220.099 122.606 219.294 123.437 218.262 123.437Z" fill="#4256D6"/>
<path d="M190.954 132.573H152.47C151.464 132.573 150.633 131.743 150.633 130.736C150.633 129.729 151.464 128.899 152.47 128.899H190.954C191.961 128.899 192.791 129.729 192.791 130.736C192.791 131.768 191.986 132.573 190.954 132.573Z" fill="#4256D6"/>
<path d="M218.262 132.573H199.159C198.152 132.573 197.322 131.743 197.322 130.736C197.322 129.729 198.152 128.899 199.159 128.899H218.262C219.269 128.899 220.099 129.729 220.099 130.736C220.099 131.768 219.294 132.573 218.262 132.573Z" fill="#4256D6"/>
<path d="M198.605 141.735H152.47C151.464 141.735 150.633 140.904 150.633 139.898C150.633 138.891 151.464 138.06 152.47 138.06H198.605C199.612 138.06 200.442 138.891 200.442 139.898C200.442 140.904 199.612 141.735 198.605 141.735Z" fill="#4256D6"/>
<path d="M218.262 141.735H207.465C206.458 141.735 205.627 140.904 205.627 139.898C205.627 138.891 206.458 138.06 207.465 138.06H218.262C219.269 138.06 220.1 138.891 220.1 139.898C220.1 140.904 219.294 141.735 218.262 141.735Z" fill="#4256D6"/>
<path d="M164.501 150.896H152.47C151.464 150.896 150.633 150.066 150.633 149.059C150.633 148.052 151.464 147.222 152.47 147.222H164.501C165.508 147.222 166.339 148.052 166.339 149.059C166.339 150.066 165.508 150.896 164.501 150.896Z" fill="#4256D6"/>
<path d="M218.262 150.896H172.656C171.649 150.896 170.819 150.066 170.819 149.059C170.819 148.052 171.649 147.222 172.656 147.222H218.262C219.269 147.222 220.099 148.052 220.099 149.059C220.099 150.066 219.294 150.896 218.262 150.896Z" fill="#4256D6"/>
<path d="M198.605 160.033H152.47C151.464 160.033 150.633 159.202 150.633 158.195C150.633 157.189 151.464 156.358 152.47 156.358H198.605C199.612 156.358 200.442 157.189 200.442 158.195C200.442 159.202 199.612 160.033 198.605 160.033Z" fill="#4256D6"/>
</svg>
