<svg width="281" height="213" viewBox="0 0 281 213" fill="none" xmlns="http://www.w3.org/2000/svg">
<path d="M99.2957 96.9382C99.2957 96.9382 85.642 118.865 72.6048 130.949C59.5675 143.034 44.3612 155.416 53.5626 178.144C62.764 200.871 89.866 210.186 138.339 208.996C186.812 207.806 203.936 207.554 214.553 183.454C225.17 159.353 189.803 153.951 165.624 146.604C141.444 139.258 99.2957 96.9382 99.2957 96.9382Z" fill="#EBEFFB"/>
<path d="M96.9439 144.819C96.9439 144.819 90.2998 170.545 114 176.656C137.7 182.767 181.949 181.852 198.593 169.973C215.238 158.094 96.9439 144.819 96.9439 144.819Z" fill="#9DD4F9"/>
<path d="M35.2511 189.359C32.8993 187.917 31.7805 184.735 32.6938 182.126C34.2008 177.869 38.0823 179.311 40.845 177.068C44.0872 174.436 40.16 170.293 40.3883 167.18C40.6167 163.77 43.699 160.451 44.6123 157.156C46.7357 149.557 38.1279 155.233 35.662 154.34C34.6346 153.974 33.9496 152.944 33.7213 151.869C33.1276 149.145 34.2693 146.925 32.7623 144.338C31.3239 141.844 29.2005 140.722 29.817 137.335C30.1594 135.412 31.3467 133.65 31.3239 131.704C31.3239 131.155 31.1641 130.514 30.6618 130.24C30.2965 130.034 29.8398 130.079 29.4288 130.24C28.1046 130.697 27.2369 131.956 26.1638 132.872C25.0907 133.787 23.3783 134.359 22.3508 133.398C21.6658 132.757 21.5973 131.727 21.4603 130.789C21.2092 129.118 20.0447 127.951 18.5835 128.912C17.008 129.965 17.6017 134.131 17.8528 135.618C18.241 137.976 18.8118 140.425 18.104 142.713C16.9396 146.49 13.7887 142.256 12.3959 140.997C11.2771 139.967 9.38206 139.349 8.28611 140.425C6.11704 142.553 9.58754 145.414 10.067 147.428C10.2953 148.39 9.99852 149.534 9.15372 150.038C6.665 151.479 4.54159 148.893 4.15344 152.761C3.90228 155.416 6.27686 157.934 4.79276 160.566C3.49131 162.878 -0.801155 163.862 0.888435 167.112C1.93872 169.103 6.43667 169.011 6.20835 171.849C6.04852 173.703 3.28583 174.527 3.28583 176.381C3.28583 177.777 4.90691 178.601 6.29968 178.67C7.69245 178.739 9.15372 178.418 10.4323 178.968C11.8936 179.586 12.7384 181.371 12.2818 182.904C11.8936 184.232 10.6607 185.422 11.0488 186.749C11.5055 188.329 13.7202 188.397 15.3413 188.146C22.0083 187.116 29.1548 186.406 35.2511 189.359Z" fill="#FDC510"/>
<path d="M22.6475 188.695C22.8758 188.695 23.0813 188.512 23.0813 188.26V158.414C23.0813 158.185 22.8986 157.979 22.6475 157.979C22.4192 157.979 22.2137 158.163 22.2137 158.414V188.26C22.2137 188.489 22.4192 188.695 22.6475 188.695Z" fill="white"/>
<path d="M22.6476 177.068C22.7389 177.068 22.8302 177.045 22.9216 176.976C23.1042 176.816 23.127 176.564 22.9901 176.381L15.1814 166.722C15.0216 166.539 14.7705 166.516 14.5878 166.654C14.4052 166.814 14.3823 167.066 14.5193 167.249L22.3279 176.907C22.3964 177.022 22.5106 177.068 22.6476 177.068Z" fill="white"/>
<path d="M22.6476 168.943C22.739 168.943 22.8532 168.92 22.9216 168.851L32.2144 161.001C32.397 160.841 32.4199 160.589 32.2601 160.406C32.1002 160.223 31.8262 160.2 31.6664 160.36L22.3737 168.211C22.191 168.371 22.1682 168.623 22.328 168.806C22.3965 168.874 22.5335 168.943 22.6476 168.943Z" fill="white"/>
<path d="M36.5525 185.17C35.3195 193.318 34.2236 201.856 32.1687 209.729C31.986 210.393 31.8034 211.079 31.3924 211.491C30.9129 211.995 30.2279 211.995 29.6115 211.995C26.0496 211.903 22.5107 212.132 18.9488 212.132C15.5925 212.109 12.8069 212.384 12.4644 206.799C12.3503 204.854 12.0306 185.193 10.2497 185.193C10.2497 185.17 36.5525 185.17 36.5525 185.17Z" fill="#3555DB"/>
<path d="M12.647 190.045H34.155C36.8264 190.045 39.0183 187.848 39.0183 185.17C39.0183 182.492 36.8264 180.295 34.155 180.295H12.647C9.97562 180.295 7.78371 182.492 7.78371 185.17C7.78371 187.848 9.97562 190.045 12.647 190.045Z" fill="#0028D0"/>
<path d="M116.283 11.0177C116.283 11.0177 113.475 17.2889 117.858 21.1569C122.265 25.025 128.247 21.958 134.047 25.5056C139.846 29.0532 139.23 33.2416 136.558 42.5798C133.384 53.6803 129.937 53.3599 126.809 54.161C123.704 54.962 122.767 63.6594 122.425 67.6876C122.082 71.7158 121.534 74.4394 132.631 79.9096C143.727 85.3798 137.677 93.7566 136.558 104.605C135.325 116.599 149.527 123.534 151.993 126.417C154.459 129.301 160.258 129.805 163.432 123.671C166.605 117.56 150.486 113.051 151.901 103.232C153.317 93.4133 161.902 86.7988 149.755 77.1631C137.608 67.5274 140.006 59.7913 144.047 51.8951C148.088 43.9988 150.029 40.9548 146.696 30.8155C143.362 20.6763 146.924 23.7204 142.517 15.6868C138.111 7.63033 122.105 -1.20432 116.283 11.0177Z" fill="#011627"/>
<path d="M123.955 58.6472L123.064 75.1721L110.164 80.1616C110.164 80.1616 117.927 68.7864 116.603 58.6472C115.301 48.508 123.955 58.6472 123.955 58.6472Z" fill="#D4A79A"/>
<path d="M94.0443 112.25C94.0443 112.25 94.8891 110.671 97.4691 102.591C100.026 94.5119 100.962 91.5136 104.524 83.7089C108.086 75.9042 115.507 71.0062 115.507 71.0062L124.777 70.5027C124.777 70.5027 125.918 70.5714 131.261 75.0116C136.604 79.4518 141.741 92.0858 141.741 92.0858L144.024 117.239L127.973 129.095L116.625 133.192C117.173 132.46 117.607 131.681 117.881 130.857C119.776 125.204 113.406 93.8481 113.201 91.0558C112.995 88.2635 107.607 114.859 107.607 114.859L102.949 113.509L99.7523 123.739L97.7431 113.303L94.0443 112.25Z" fill="#FF644E"/>
<path d="M99.1131 125.822L99.7524 123.762L100.803 129.141L99.1131 125.822Z" fill="url(#paint0_linear)"/>
<path d="M107.63 114.882C107.63 114.882 113.018 88.2864 113.223 91.0787C113.429 93.871 119.799 125.204 117.904 130.88C117.63 131.704 117.196 132.483 116.648 133.215L104.981 137.426L100.803 129.141L99.7752 123.739L102.972 113.509L107.63 114.882Z" fill="#FDC510"/>
<path d="M107.63 114.882C107.63 114.882 113.018 88.2864 113.223 91.0787C113.429 93.871 119.799 125.204 117.904 130.88C117.63 131.704 117.196 132.483 116.648 133.215L104.981 137.426L100.803 129.141L99.7752 123.739L102.972 113.509L107.63 114.882Z" fill="#C6110C"/>
<path d="M202.155 104.903L136.649 108.062L123.955 120.398L185.122 118.865L202.155 104.903Z" fill="black"/>
<path d="M140.394 110.053L199.529 106.047C201.128 106.162 202.52 105.086 202.635 103.644L214.553 71.6014C214.667 70.1366 213.457 68.8549 211.859 68.7405L152.723 72.7458C151.125 72.6314 149.732 73.7071 149.618 75.149L137.7 107.192C137.585 108.657 138.796 109.938 140.394 110.053Z" fill="#9DD4F9"/>
<path d="M170.059 92.0914C169.357 88.8551 171.845 85.5655 175.616 84.744C179.386 83.9224 183.012 85.8799 183.714 89.1162C184.415 92.3525 181.927 95.6421 178.157 96.4636C174.386 97.2852 170.761 95.3277 170.059 92.0914Z" fill="white"/>
<path d="M229.097 161.802L245.811 186.36L238.207 192.815L222.27 166.15C222.27 166.15 225.924 162.031 229.097 161.802Z" fill="#D4A79A"/>
<path d="M279.694 200.047C279.694 200.047 273.255 202.244 260.948 203.16C248.619 204.075 234.874 204.533 232.362 202.702C229.851 200.871 228.252 185.285 232.362 185.285C236.472 185.285 238.07 191.235 245.308 185.925C251.519 181.371 256.473 189.954 267.273 192.242C278.073 194.531 282.456 195.447 279.694 200.047Z" fill="#DB910E"/>
<path d="M125.028 135.252C126.512 132.46 134.503 134.039 144.093 130.469C153.682 126.898 159.87 119.391 170.761 110.74C181.652 102.088 180.898 103.599 185.602 103.232C190.305 102.866 196.128 115.592 199.393 122.321C206.311 136.465 215.056 149.122 228.116 157.339C232.088 159.834 249.578 169.355 252.501 173.337C258.665 181.714 228.39 181.783 220.467 182.767C212.635 183.728 208.252 179.265 205.078 172.216C201.47 164.182 197.497 156.309 193.547 148.436C191.561 144.499 189.575 140.562 187.657 136.603C186.812 134.886 185.008 128.706 182.999 127.928C176.789 125.571 168.615 144.499 166.879 148.779C163.363 157.362 150.554 167.364 141.216 168.371C131.9 169.378 124.891 163.152 121.831 154.066C118.749 144.979 125.028 135.252 125.028 135.252Z" fill="#030047"/>
<path d="M197.201 163.655L213.914 188.214L206.311 194.668L190.374 168.027C190.397 168.004 194.027 163.884 197.201 163.655Z" fill="#EAC2AB"/>
<path d="M247.797 201.901C247.797 201.901 241.358 204.098 229.052 205.014C216.722 205.929 202.977 206.387 200.466 204.556C197.954 202.725 196.356 187.139 200.466 187.139C204.575 187.139 206.174 193.089 213.411 187.78C219.622 183.225 224.576 191.808 235.376 194.097C246.176 196.408 250.56 197.324 247.797 201.901Z" fill="#FDC510"/>
<path d="M100.825 135.252C102.241 132.46 109.89 134.039 119.046 130.469C128.201 126.898 134.115 119.391 144.526 110.74C154.938 102.088 154.23 103.599 158.705 103.232C163.203 102.866 168.751 115.592 171.902 122.321C181.56 142.988 201.424 156.858 219.485 169.629C220.604 170.431 221.859 171.529 221.631 172.88C221.517 173.566 221.015 174.138 220.512 174.619C213.8 181.119 201.242 184.026 192.223 183.614C183.136 183.179 178.204 175.58 174.756 168.073C168.614 154.615 162.61 140.768 155.143 127.997C152.335 123.213 143.408 142.553 142.631 144.361C137.996 155.119 128.818 166.975 116.26 168.371C107.355 169.378 100.643 163.152 97.7201 154.066C94.8433 144.979 100.825 135.252 100.825 135.252Z" fill="#2B2B68"/>
<path d="M135.485 23.4687C135.485 23.4687 142.38 28.5726 139.64 40.0165C136.901 51.4603 128.361 61.2333 124.936 60.5467C115.415 58.647 112.082 51.8952 108.794 46.1275C104.753 39.0323 112.79 21.7292 112.79 21.7292L120.37 17.6323L135.485 23.4687Z" fill="#EAC2AB"/>
<path d="M121.74 18.4106C121.74 18.4106 116.945 20.0127 112.744 26.7875C108.543 33.5394 111.305 34.638 111.305 43.7015C111.305 46.3564 111.808 48.9656 113.223 51.2086C114.274 52.8566 115.735 54.1383 116.831 55.7404C118.178 57.7774 118.635 60.0662 118.52 62.4694C118.292 67.5733 117.47 71.8304 112.949 74.7143C108.04 77.827 105.757 82.0154 104.479 87.6458C102.949 94.3977 91.8295 98.2199 87.9709 95.6336C84.0894 93.0473 95.6425 94.7868 93.3593 83.6634C91.0761 72.5399 90.2769 67.848 96.9668 64.7581C103.657 61.6683 100.46 60.8672 96.944 54.0925C93.4278 47.3177 102.492 47.4093 98.9075 35.645C94.7749 22.0726 98.5194 6.92098 118.772 11.1094C139.024 15.2979 121.74 18.4106 121.74 18.4106Z" fill="#011627"/>
<path d="M126.672 31.342C120.872 27.7944 122.265 25.025 117.858 21.1569C113.452 17.2889 116.283 11.0177 116.283 11.0177C122.082 -1.20432 138.111 7.63033 142.517 15.6868C146.924 23.7204 143.408 20.6763 146.741 30.8155C149.047 37.7963 148.842 41.4354 147.175 45.5781L137.7 49.4232C141.536 34.8438 131.055 33.9969 126.672 31.342Z" fill="#011627"/>
<path d="M103.109 125.388C103.109 125.388 103.109 129.324 104.616 128.615C106.122 127.905 120.164 119.116 122.014 117.034C123.863 114.951 128.224 107.467 128.43 105.956C128.635 104.445 127.927 104.377 130.85 104.812C133.772 105.247 139.047 106.894 138.27 107.81C137.494 108.748 135.279 108.085 135.279 108.085C135.279 108.085 137.859 109.732 136.604 109.938C135.348 110.144 131.626 109.435 131.626 110.579C131.626 111.724 131.832 115.592 130.987 117.514C130.142 119.437 129.069 120.078 126.283 120.741C123.498 121.382 123.018 121.176 120.735 123.534C118.452 125.891 105.689 137.266 104.045 137.839C102.401 138.411 101.693 139.418 99.7066 135.756C97.7202 132.117 96.2817 129.324 96.1447 123.602C96.0078 117.881 96.6471 112.387 96.6471 112.387L102.994 113.532C102.949 113.532 102.401 119.963 103.109 125.388Z" fill="#EAC2AB"/>
<path d="M82.5823 52.7876C81.4407 47.5692 78.9063 42.3509 77.0341 37.3385C76.0523 34.6835 73.8604 31.0901 73.6549 28.2292C73.5864 27.2908 72.6959 26.6041 71.6685 26.6728L33.6983 24.1094C32.6709 24.178 31.8946 25.002 31.9631 25.9404L39.6119 46.5164C39.6804 47.4548 40.5709 48.1414 41.5983 48.0728L72.2393 50.0411C74.1115 51.1855 77.1026 52.3299 78.9748 53.4514C81.0525 54.7331 83.6098 57.594 82.5823 52.7876Z" fill="#EBEFFB"/>
<path d="M55.0923 39.6958L42.7628 39.1694C41.9408 39.1236 41.2787 38.4141 41.3243 37.5902C41.37 36.7662 42.0778 36.1025 42.8998 36.1482L55.2293 36.6746C56.0512 36.7204 56.7134 37.4299 56.6677 38.2539C56.622 39.0779 55.9142 39.7187 55.0923 39.6958Z" fill="white"/>
<path d="M63.9741 34.5691L41.6213 33.5849C40.7993 33.5392 40.1372 32.8296 40.1828 32.0057C40.2285 31.1817 40.9363 30.518 41.7583 30.5638L64.1111 31.5479C64.9331 31.5937 65.5952 32.3032 65.5495 33.1272C65.5039 33.9511 64.7961 34.6149 63.9741 34.5691Z" fill="white"/>
<path d="M193.753 57.4796C195.077 51.4373 198 45.3949 200.169 39.6043C201.31 36.5145 203.845 32.3718 204.096 29.0531C204.187 27.9774 205.215 27.1763 206.402 27.2679L250.354 24.2925C251.542 24.384 252.432 25.3453 252.363 26.421L243.505 50.2471C243.413 51.3228 242.386 52.1239 241.198 52.0323L205.74 54.2982C203.571 55.6257 200.123 56.9532 197.954 58.2578C195.534 59.7226 192.543 63.0184 193.753 57.4796Z" fill="#EBEFFB"/>
<path d="M225.581 42.3051L239.874 41.6871C240.833 41.6414 241.586 40.8174 241.541 39.8561C241.495 38.8948 240.673 38.1396 239.714 38.1853L225.421 38.8033C224.462 38.8491 223.709 39.673 223.754 40.6343C223.8 41.5956 224.622 42.3509 225.581 42.3051Z" fill="white"/>
<path d="M215.307 36.3775L241.176 35.256C242.134 35.2102 242.888 34.3863 242.842 33.425C242.797 32.4637 241.975 31.7084 241.016 31.7542L215.147 32.8757C214.188 32.9214 213.434 33.7454 213.48 34.7067C213.526 35.668 214.348 36.4233 215.307 36.3775Z" fill="white"/>
<path d="M169.619 22.2099C170.464 18.3189 172.359 14.428 173.752 10.6974C174.482 8.70612 176.104 6.02827 176.286 3.89971C176.332 3.21308 176.994 2.68667 177.77 2.75533L206.06 0.832764C206.813 0.901427 207.407 1.49651 207.338 2.20602L201.63 17.5408C201.584 18.2274 200.922 18.7538 200.146 18.6852L177.314 20.15C175.921 20.9968 173.706 21.8436 172.291 22.6905C170.761 23.6518 168.843 25.7803 169.619 22.2099Z" fill="#EBEFFB"/>
<path d="M190.1 12.4366L199.301 12.0475C199.918 12.0246 200.397 11.4982 200.374 10.8802C200.351 10.2622 199.826 9.78161 199.21 9.8045L190.008 10.1936C189.392 10.2165 188.912 10.7429 188.935 11.3609C188.958 11.9788 189.483 12.4595 190.1 12.4366Z" fill="white"/>
<path d="M183.501 8.61437L200.169 7.88196C200.785 7.85907 201.265 7.33266 201.242 6.71469C201.219 6.09672 200.694 5.61608 200.077 5.63897L183.41 6.37137C182.793 6.39426 182.314 6.92068 182.337 7.53864C182.36 8.15661 182.885 8.63725 183.501 8.61437Z" fill="white"/>
<path d="M167.907 44.3881L182.2 43.7701C183.159 43.7244 183.912 42.9004 183.866 41.9391C183.821 40.9779 182.999 40.2226 182.04 40.2683L167.747 40.8863C166.788 40.9321 166.034 41.756 166.08 42.7173C166.126 43.6786 166.948 44.4339 167.907 44.3881Z" fill="#EBEFFB"/>
<path d="M166.468 51.3915L180.761 50.7736C181.72 50.7278 182.474 49.9038 182.428 48.9425C182.382 47.9813 181.56 47.226 180.601 47.2718L166.308 47.8897C165.349 47.9355 164.596 48.7595 164.642 49.7207C164.687 50.682 165.509 51.4373 166.468 51.3915Z" fill="#EBEFFB"/>
<path d="M163.934 58.5783L178.227 57.9603C179.186 57.9146 179.939 57.0906 179.894 56.1293C179.848 55.168 179.026 54.4127 178.067 54.4585L163.774 55.0765C162.815 55.1223 162.061 55.9462 162.107 56.9075C162.153 57.8688 162.975 58.6241 163.934 58.5783Z" fill="#EBEFFB"/>
<defs>
<linearGradient id="paint0_linear" x1="100.219" y1="126.517" x2="114.574" y2="74.7702" gradientUnits="userSpaceOnUse">
<stop stop-color="#A7ADFF"/>
<stop offset="1" stop-color="#E3E5FC"/>
</linearGradient>
</defs>
</svg>
