<svg width="281" height="234" viewBox="0 0 281 234" fill="none" xmlns="http://www.w3.org/2000/svg">
<path d="M1.50218 232.863C-0.135965 231.227 0.667045 219.769 0.924008 217.939C1.95186 210.558 2.97971 203.208 4.00757 195.826C6.09539 180.87 8.18322 165.914 10.271 150.99C10.4959 149.289 10.7529 147.588 10.9777 145.855C11.4595 142.998 14.2861 140.848 17.2412 141.04C20.1963 141.233 22.2198 143.736 21.7059 146.561C15.5067 174.74 7.95838 202.919 3.33304 231.227C3.2688 231.612 3.20456 231.997 2.94759 232.35C2.33731 233.12 1.8555 233.216 1.50218 232.863Z" fill="#EBEFFB"/>
<path d="M70.5931 232.575C72.1992 230.906 71.1392 219.48 70.8501 217.651C69.6616 210.301 68.4732 202.983 67.2526 195.634C64.8436 180.742 62.4024 165.882 59.9934 150.99C59.7043 149.289 59.4474 147.588 59.1583 145.887C58.6122 143.063 55.7214 140.976 52.7663 141.265C49.8112 141.554 47.8519 144.09 48.4301 146.914C55.2717 174.868 63.4624 202.823 68.7301 230.97C68.7944 231.355 68.8908 231.74 69.1477 232.061C69.7901 232.832 70.2719 232.928 70.5931 232.575Z" fill="#EBEFFB"/>
<path d="M61.5352 154.328H9.56439C4.74633 154.328 0.827637 150.412 0.827637 145.598C0.827637 140.816 4.74633 136.868 9.56439 136.868H61.5352C66.3211 136.868 70.2719 140.784 70.2719 145.598C70.2719 150.412 66.3211 154.328 61.5352 154.328Z" fill="#4256D6"/>
<path d="M187.736 92.9945L206.206 51.3997C206.495 50.7578 207.266 50.4369 207.94 50.7257L208.261 50.8541C208.904 51.1429 209.225 51.9132 208.936 52.5872L190.467 94.182C190.178 94.8239 189.407 95.1448 188.732 94.856L188.411 94.7276C187.736 94.4388 187.447 93.6685 187.736 92.9945Z" fill="#4B369D"/>
<path d="M205.595 50.1803L191.173 7.01281C190.948 6.33882 191.334 5.60064 192.008 5.34388L192.33 5.2476C193.004 5.02293 193.743 5.40807 194 6.08206L208.422 49.2495C208.647 49.9235 208.261 50.6617 207.587 50.9184L207.266 51.0147C206.559 51.2394 205.82 50.8863 205.595 50.1803Z" fill="#4B369D"/>
<path d="M207.651 55.3796C209.673 55.3796 211.313 53.7415 211.313 51.7208C211.313 49.7001 209.673 48.062 207.651 48.062C205.629 48.062 203.989 49.7001 203.989 51.7208C203.989 53.7415 205.629 55.3796 207.651 55.3796Z" fill="#A7ADFF"/>
<path d="M187.576 90.4592C180.83 90.4592 175.37 95.5623 175.37 101.853H199.781C199.781 95.5623 194.321 90.4592 187.576 90.4592Z" fill="#E3E5FC"/>
<path d="M194.835 2.07023C191.205 -1.55648 179.514 4.18848 168.753 14.9402L181.955 28.1312C192.715 17.3794 198.465 5.69694 194.835 2.07023Z" fill="#FDC510"/>
<path d="M167.661 30.4741C167.501 30.4741 167.34 30.41 167.211 30.2816C166.987 30.0569 166.987 29.6718 167.244 29.4471L172.833 24.0873C173.057 23.8626 173.443 23.8626 173.668 24.1194C173.893 24.3441 173.893 24.7292 173.636 24.9539L168.047 30.2816C167.95 30.41 167.822 30.4741 167.661 30.4741Z" fill="#E3E5FC"/>
<path d="M173.957 36.0265C173.86 36.0265 173.764 35.9944 173.667 35.9623C173.378 35.8018 173.282 35.4488 173.443 35.1278L177.233 28.3879C177.393 28.0991 177.747 28.0028 178.068 28.1632C178.357 28.3237 178.453 28.6768 178.293 28.9977L174.503 35.7376C174.374 35.9302 174.181 36.0265 173.957 36.0265Z" fill="#E3E5FC"/>
<path d="M161.494 24.2478C161.237 24.2478 161.012 24.0874 160.948 23.8627C160.819 23.5417 160.98 23.1887 161.301 23.0924L168.496 20.3002C168.817 20.1718 169.139 20.3323 169.267 20.6532C169.396 20.9742 169.235 21.3272 168.914 21.4235L161.719 24.2157C161.655 24.2157 161.59 24.2478 161.494 24.2478Z" fill="#E3E5FC"/>
<path d="M68.088 49.5384L62.6918 65.8104L48.3982 67.2547C48.3982 67.2547 59.2549 58.0114 60.7003 47.5485C62.1457 37.0856 68.088 49.5384 68.088 49.5384Z" fill="#D4A79A"/>
<path d="M91.0538 25.339C91.0538 25.339 92.8526 29.8322 86.9745 40.5198C81.0965 51.2073 73.9979 59.7125 70.7537 58.1077C61.7279 53.6144 60.2504 45.9759 58.5159 39.3002C56.3959 31.116 69.1477 16.0315 69.1477 16.0315L77.8524 14.0095L91.0538 25.339Z" fill="#EAC2AB"/>
<path d="M102.2 25.1141C102.296 24.9536 102.392 24.7932 102.457 24.6327C104.223 21.1344 104.898 16.5769 104.159 12.7255C102.874 6.21031 96.3216 5.50423 90.7969 6.69173C88.2915 7.23734 85.9146 8.87418 83.2486 8.00762C81.2572 7.36572 80.2614 5.50423 78.7518 4.25253C77.0173 2.80827 74.8331 1.94171 72.5846 1.71705C67.8951 1.23563 63.5588 3.64273 60.9892 7.4941C59.9292 9.06674 59.2547 10.8961 59.1583 12.7897C58.6765 12.1157 58.0341 11.9232 57.2311 12.0837C50.6785 13.3674 51.064 22.8675 51.3531 27.8422C51.61 32.0145 51.3531 37.1817 53.8906 40.7443C54.9184 42.1564 57.5523 44.4352 59.1583 42.8625C60.6037 41.4503 59.4795 37.1497 59.865 35.2882C60.411 32.6885 60.1541 20.2357 73.4198 21.1665C78.6875 21.5516 82.4135 30.5381 87.36 32.1108C92.4351 33.6513 99.4052 29.9283 102.2 25.1141Z" fill="#011627"/>
<path d="M61.0855 31.79C61.0855 31.79 57.4238 27.714 57.8735 33.9724C58.3232 40.2309 61.6316 41.5147 61.6316 41.5147L61.0855 31.79Z" fill="#EAC2AB"/>
<path d="M130.787 183.47L139.267 204.46L132.971 208.215L125.326 185.748C125.326 185.716 128.474 183.149 130.787 183.47Z" fill="#EAC2AB"/>
<path d="M168.432 207.444C168.432 207.444 163.71 210.301 154.202 213.061C144.663 215.789 133.967 218.389 131.718 217.265C129.47 216.142 125.872 203.433 129.084 202.791C132.296 202.117 134.448 206.835 139.331 201.25C143.506 196.468 148.678 202.823 157.511 202.983C166.344 203.112 169.909 203.176 168.432 207.444Z" fill="#DB910E"/>
<path d="M66.6745 123.164C70.9786 123.645 81.7068 128.652 85.6576 130.128C94.1374 133.305 106.889 151.632 112.028 158.115C117.714 165.272 123.142 167.775 128.249 175.221C131.847 180.388 138.849 181.736 142.479 186.454C145.241 190.049 143.956 190.081 139.748 192.392C133.935 195.537 116.782 212.194 114.148 202.02C113.153 198.233 106.118 190.177 103.549 187C97.5422 179.554 99.2446 168.16 94.1053 160.297C91.5999 156.446 89.8012 151.953 85.4007 149.578C81.739 147.588 77.0494 147.556 72.681 147.588C66.6424 147.652 63.2376 137.157 57.199 137.221C49.2331 137.285 41.0103 145.02 34.6183 141.04C23.8901 134.333 38.4085 133.755 44.4151 133.498C56.3317 133.049 54.8542 121.848 66.6745 123.164Z" fill="#030047"/>
<path d="M106.761 196.885L116.911 217.137L110.487 221.213L101.172 199.453C101.172 199.453 104.352 196.725 106.761 196.885Z" fill="#EAC2AB"/>
<path d="M146.14 223.492C146.14 223.492 140.969 225.931 130.755 227.857C120.54 229.783 109.073 231.419 106.793 230.136C104.544 228.852 101.718 216.014 105.155 215.629C108.592 215.244 110.487 220.058 116.044 214.955C120.797 210.59 125.744 217.266 134.995 218.164C144.277 219.063 148.003 219.416 146.14 223.492Z" fill="#FDC510"/>
<path d="M57.2309 121.045C61.5351 121.655 65.4859 123.452 69.4367 125.314C77.9165 129.358 85.0151 140.431 90.1865 148.647C95.8718 157.73 101.3 167.005 106.407 176.505C108.334 180.1 109.137 184.112 110.968 187.738C113.956 193.74 129.405 201.924 119.352 208.696C112.896 213.029 102.713 210.943 95.4221 210.911C95.0366 210.911 94.6191 210.911 94.33 210.654C93.9767 210.365 93.9124 209.884 93.8482 209.434C92.8524 199.966 91.8888 192.071 87.5847 183.502C81.5782 174.066 77.4025 167.486 72.2312 157.473C69.7258 152.594 69.8864 148.583 65.518 145.566C61.8563 143.03 58.0661 143.801 53.6656 143.833C47.6269 143.897 42.4555 143.768 36.4169 143.833C28.451 143.929 23.2475 143.672 18.9434 136.74C10.6885 123.485 16.5665 123.709 22.573 123.42C34.4576 122.875 45.4106 119.344 57.2309 121.045Z" fill="#2B2B68"/>
<path d="M66.8993 75.182C66.8993 75.182 71.9422 94.4068 73.8694 94.8561C75.5076 95.2091 77.4991 94.8561 79.1372 94.7919C82.5098 94.6314 85.8825 94.4068 89.2551 94.1821C95.101 93.797 101.108 93.6365 106.889 92.7057C110.422 92.128 116.911 91.2615 119.577 88.6618C123.206 85.1635 129.695 93.2193 131.526 95.3696C131.783 95.6906 132.039 96.172 131.75 96.4608C131.622 96.5892 131.397 96.5892 131.236 96.5892C129.92 96.525 128.763 95.7548 127.703 95.0166C128.699 96.1078 129.502 97.3916 130.112 98.7396C128.924 98.2902 127.896 97.4879 126.708 97.0065C121.954 95.0487 118.131 101.949 112.799 99.4777C109.234 97.8409 105.219 98.9642 101.493 99.3815C98.1525 99.7666 94.812 100.088 91.4714 100.408C85.208 101.018 78.6875 102.077 72.3919 101.821C72.0065 101.821 71.5568 101.853 71.2035 101.724C69.212 101.05 65.4539 92.5774 62.6594 85.1956C60.8928 80.5418 58.6123 75.5351 60.2504 68.2175C61.6958 61.5097 68.7302 64.5587 66.8993 75.182Z" fill="#EAC2AB"/>
<path d="M58.3554 88.6939C59.2868 85.003 60.4432 81.4084 61.7922 78.1347C63.9122 72.9674 67.7024 65.9066 64.4582 60.3863C64.0085 59.616 63.4946 58.8136 62.7559 58.2359C54.2761 51.7207 41.1388 64.1414 35.6462 70.6245C28.7403 78.8087 28.4834 82.307 25.5604 91.9033C22.3163 102.591 19.3933 113.76 14.4789 123.934C13.9328 125.025 13.5153 126.534 14.6395 127.272C15.1534 127.593 15.8279 127.657 16.4703 127.657C20.8708 127.657 25.0786 126.437 29.2221 125.282C35.7747 123.452 35.4856 122.714 42.3594 123.934C45.0575 124.415 47.6271 123.613 50.3574 123.581C51.0319 123.581 53.6979 123.26 54.2761 123.003C58.7408 120.917 53.2803 119.697 53.0876 119.152C48.9762 108.946 55.6572 99.6382 58.3554 88.6939Z" fill="#FF644E"/>
<path d="M68.7623 81.5047C68.7623 81.5047 69.5653 58.236 59.1262 59.9371C48.687 61.6381 53.0233 87.8916 53.0233 87.8916L70.0792 84.8747L68.7623 81.5047Z" fill="#C6110C"/>
<path d="M89.7047 232.832C88.1308 230.617 89.4477 214.409 89.8011 211.809C91.1822 201.347 92.5634 190.884 93.9125 180.421C96.7069 159.206 99.5014 137.959 102.264 116.745C102.585 114.306 102.906 111.898 103.227 109.459C103.87 105.415 106.793 102.206 109.748 102.302C112.703 102.398 114.63 105.8 113.988 109.844C106.439 149.963 97.5421 190.21 91.5998 230.424C91.5356 230.97 91.4392 231.548 91.1501 232.029C90.5398 233.12 90.058 233.281 89.7047 232.832Z" fill="#EBEFFB"/>
<path d="M195.285 232.832C196.858 230.617 195.542 214.409 195.188 211.809C193.807 201.347 192.426 190.884 191.077 180.421C188.282 159.206 185.488 137.959 182.726 116.745C182.404 114.306 182.083 111.898 181.762 109.459C181.119 105.415 178.197 102.206 175.241 102.302C172.286 102.398 170.359 105.8 171.002 109.844C178.55 149.963 187.447 190.21 193.389 230.424C193.454 230.97 193.55 231.548 193.839 232.029C194.482 233.12 194.963 233.281 195.285 232.832Z" fill="#EBEFFB"/>
<path d="M241.153 108.497H66.4177C64.5868 108.497 63.0771 106.988 63.0771 105.159C63.0771 103.329 64.5868 101.821 66.4177 101.821H241.185C243.016 101.821 244.525 103.329 244.525 105.159C244.493 106.988 242.984 108.497 241.153 108.497Z" fill="#4256D6"/>
<path d="M211.313 90.7158C212.469 90.0097 213.047 88.437 212.565 87.1533C211.827 85.035 209.899 85.7732 208.518 84.6499C206.912 83.334 208.839 81.312 208.743 79.7715C208.615 78.0704 207.105 76.4336 206.655 74.8289C205.595 71.0738 209.867 73.866 211.088 73.4488C211.602 73.2562 211.923 72.7427 212.051 72.2292C212.341 70.8812 211.794 69.79 212.533 68.5062C213.24 67.2866 214.3 66.7089 214.011 65.04C213.85 64.0771 213.24 63.2106 213.272 62.2477C213.272 61.9589 213.368 61.67 213.593 61.5416C213.786 61.4454 214.011 61.4774 214.204 61.5416C214.846 61.7663 215.296 62.3761 215.81 62.8254C216.356 63.2748 217.191 63.5636 217.705 63.0822C218.058 62.7612 218.09 62.2477 218.154 61.7984C218.283 60.9639 218.861 60.3862 219.568 60.8676C220.339 61.3812 220.049 63.4352 219.921 64.1734C219.728 65.3288 219.439 66.5484 219.793 67.6717C220.371 69.5332 221.945 67.4471 222.619 66.8373C223.165 66.3238 224.129 66.0349 224.643 66.5484C225.703 67.6075 224 69.0197 223.775 70.0147C223.679 70.4961 223.808 71.0738 224.225 71.2984C225.478 72.0045 226.506 70.7528 226.698 72.6464C226.827 73.9623 225.638 75.214 226.377 76.4978C227.02 77.6532 229.172 78.1346 228.304 79.7394C227.791 80.7343 225.542 80.6701 225.671 82.0823C225.735 82.9809 227.116 83.3982 227.116 84.3289C227.116 85.035 226.313 85.4201 225.638 85.4522C224.964 85.4843 224.225 85.3239 223.583 85.5806C222.876 85.9016 222.458 86.7681 222.651 87.5384C222.844 88.1803 223.454 88.7901 223.262 89.432C223.037 90.2023 221.945 90.2344 221.142 90.106C217.897 89.6246 214.332 89.2715 211.313 90.7158Z" fill="#FDC510"/>
<path d="M217.576 90.7801C217.255 90.7801 216.966 90.5233 216.966 90.1703V75.4067C216.966 75.0857 217.223 74.7969 217.576 74.7969C217.897 74.7969 218.186 75.0536 218.186 75.4067V90.1703C218.186 90.5233 217.897 90.7801 217.576 90.7801Z" fill="white"/>
<path d="M217.576 85.0351C217.448 85.0351 217.319 85.003 217.191 84.9067C216.934 84.6821 216.902 84.329 217.094 84.0723L220.949 79.2901C221.174 79.0334 221.527 79.0013 221.784 79.1939C222.041 79.4185 222.073 79.7716 221.88 80.0283L218.026 84.8105C217.929 84.9709 217.737 85.0351 217.576 85.0351Z" fill="white"/>
<path d="M217.576 81.0231C217.448 81.0231 217.287 80.991 217.191 80.8948L212.565 77.0113C212.308 76.7866 212.276 76.4336 212.501 76.1768C212.726 75.9201 213.111 75.888 213.336 76.1126L217.962 79.9961C218.219 80.2208 218.251 80.5738 218.026 80.8306C217.93 80.9589 217.737 81.0231 217.576 81.0231Z" fill="white"/>
<path d="M210.67 88.6619C211.28 92.7058 211.826 96.9102 212.854 100.794C212.951 101.115 213.047 101.468 213.24 101.66C213.497 101.917 213.818 101.917 214.107 101.917C215.874 101.885 217.64 101.981 219.407 101.981C221.077 101.981 222.458 102.11 222.619 99.3494C222.683 98.3866 222.844 88.6619 223.711 88.6619H210.67Z" fill="#FF644E"/>
<path d="M222.523 91.0688H211.859C210.542 91.0688 209.45 89.9776 209.45 88.6617C209.45 87.3459 210.542 86.2546 211.859 86.2546H222.523C223.84 86.2546 224.932 87.3459 224.932 88.6617C224.932 89.9776 223.872 91.0688 222.523 91.0688Z" fill="#C6110C"/>
<path d="M231.356 172.846C232.994 171.819 233.797 169.605 233.155 167.775C232.095 164.791 229.364 165.786 227.437 164.245C225.157 162.416 227.919 159.495 227.758 157.313C227.598 154.905 225.446 152.595 224.771 150.284C223.294 144.956 229.332 148.936 231.067 148.326C231.773 148.069 232.255 147.331 232.416 146.593C232.833 144.667 232.03 143.127 233.09 141.329C234.118 139.596 235.596 138.794 235.178 136.419C234.921 135.071 234.118 133.851 234.118 132.471C234.118 132.086 234.247 131.637 234.568 131.444C234.825 131.284 235.146 131.348 235.435 131.444C236.367 131.765 236.977 132.632 237.716 133.274C238.454 133.915 239.675 134.301 240.382 133.627C240.863 133.177 240.896 132.439 240.992 131.797C241.153 130.61 241.988 129.807 243.016 130.481C244.14 131.22 243.69 134.14 243.529 135.167C243.272 136.836 242.855 138.537 243.337 140.142C244.14 142.806 246.388 139.821 247.352 138.954C248.155 138.248 249.472 137.799 250.243 138.569C251.752 140.078 249.311 142.068 248.99 143.48C248.829 144.154 249.022 144.956 249.632 145.309C251.399 146.336 252.876 144.507 253.133 147.235C253.326 149.096 251.624 150.862 252.684 152.723C253.583 154.328 256.635 155.034 255.414 157.313C254.675 158.693 251.527 158.628 251.688 160.618C251.784 161.902 253.744 162.512 253.744 163.796C253.744 164.759 252.62 165.336 251.624 165.4C250.66 165.465 249.632 165.208 248.701 165.593C247.673 166.042 247.095 167.294 247.416 168.353C247.705 169.284 248.54 170.118 248.283 171.049C247.962 172.172 246.42 172.205 245.264 172.012C240.671 171.274 235.628 170.792 231.356 172.846Z" fill="#FF644E"/>
<path d="M240.221 172.943C239.739 172.943 239.354 172.558 239.354 172.076V151.182C239.354 150.701 239.739 150.316 240.221 150.316C240.703 150.316 241.089 150.701 241.089 151.182V172.076C241.056 172.558 240.671 172.943 240.221 172.943Z" fill="white"/>
<path d="M240.221 164.791C240.028 164.791 239.836 164.727 239.675 164.598C239.322 164.309 239.257 163.764 239.547 163.411L245.039 156.639C245.328 156.286 245.874 156.221 246.228 156.51C246.581 156.799 246.645 157.345 246.356 157.698L240.863 164.47C240.703 164.694 240.478 164.791 240.221 164.791Z" fill="white"/>
<path d="M240.221 159.078C240.028 159.078 239.835 159.014 239.675 158.885L233.122 153.397C232.769 153.108 232.705 152.563 233.026 152.209C233.315 151.856 233.861 151.792 234.214 152.113L240.767 157.601C241.12 157.89 241.185 158.436 240.863 158.789C240.703 158.981 240.446 159.078 240.221 159.078Z" fill="white"/>
<path d="M230.457 169.926C231.324 175.639 232.095 181.609 233.54 187.129C233.669 187.578 233.797 188.06 234.086 188.348C234.439 188.701 234.889 188.701 235.339 188.701C237.844 188.637 240.35 188.798 242.823 188.798C245.168 188.798 247.127 188.99 247.384 185.075C247.48 183.727 247.673 169.958 248.926 169.958C248.926 169.926 230.457 169.926 230.457 169.926Z" fill="#FDC510"/>
<path d="M247.255 173.328H232.159C230.264 173.328 228.754 171.787 228.754 169.926C228.754 168.032 230.296 166.524 232.159 166.524H247.255C249.151 166.524 250.66 168.064 250.66 169.926C250.66 171.787 249.118 173.328 247.255 173.328Z" fill="#0028D0"/>
<path d="M147.554 101.468H93.6556C92.9489 101.468 92.3386 100.89 92.3386 100.152C92.3386 99.4457 92.9168 98.8359 93.6556 98.8359H147.554C148.26 98.8359 148.871 99.4136 148.871 100.152C148.871 100.89 148.26 101.468 147.554 101.468Z" fill="#4B369D"/>
<path d="M146.205 99.6383L173.154 53.0047C173.507 52.3949 174.31 52.1702 174.953 52.5232C175.563 52.8763 175.788 53.6786 175.434 54.3205L148.485 100.954C148.132 101.564 147.329 101.789 146.687 101.436C146.076 101.05 145.851 100.248 146.205 99.6383Z" fill="#4B369D"/>
<path d="M267.234 202.021H213.079C210.06 202.021 207.554 199.549 207.554 196.5V194.414C207.554 191.397 210.028 188.894 213.079 188.894H267.234C270.253 188.894 272.759 191.365 272.759 194.414V196.5C272.759 199.549 270.253 202.021 267.234 202.021Z" fill="#4256D6"/>
<path d="M274.975 216.271H220.82C217.801 216.271 215.296 213.799 215.296 210.75V208.664C215.296 205.647 217.769 203.144 220.82 203.144H274.975C277.995 203.144 280.5 205.615 280.5 208.664V210.75C280.5 213.799 278.027 216.271 274.975 216.271Z" fill="#4256D6"/>
<path d="M267.234 230.649H213.079C210.06 230.649 207.554 228.178 207.554 225.129V223.074C207.554 220.058 210.028 217.554 213.079 217.554H267.234C270.253 217.554 272.759 220.025 272.759 223.074V225.161C272.759 228.178 270.253 230.649 267.234 230.649Z" fill="#4256D6"/>
<path d="M212.887 196.885C213.72 196.885 214.396 196.21 214.396 195.377C214.396 194.544 213.72 193.868 212.887 193.868C212.053 193.868 211.377 194.544 211.377 195.377C211.377 196.21 212.053 196.885 212.887 196.885Z" fill="white"/>
<path d="M267.042 196.885C267.875 196.885 268.551 196.21 268.551 195.377C268.551 194.544 267.875 193.868 267.042 193.868C266.208 193.868 265.532 194.544 265.532 195.377C265.532 196.21 266.208 196.885 267.042 196.885Z" fill="white"/>
<path d="M220.403 210.622C221.236 210.622 221.912 209.947 221.912 209.113C221.912 208.28 221.236 207.605 220.403 207.605C219.569 207.605 218.893 208.28 218.893 209.113C218.893 209.947 219.569 210.622 220.403 210.622Z" fill="white"/>
<path d="M274.558 210.622C275.391 210.622 276.067 209.947 276.067 209.113C276.067 208.28 275.391 207.605 274.558 207.605C273.724 207.605 273.048 208.28 273.048 209.113C273.048 209.947 273.724 210.622 274.558 210.622Z" fill="white"/>
<path d="M213.176 225.546C214.009 225.546 214.685 224.871 214.685 224.038C214.685 223.204 214.009 222.529 213.176 222.529C212.342 222.529 211.666 223.204 211.666 224.038C211.666 224.871 212.342 225.546 213.176 225.546Z" fill="white"/>
<path d="M267.33 225.546C268.164 225.546 268.84 224.871 268.84 224.038C268.84 223.204 268.164 222.529 267.33 222.529C266.497 222.529 265.821 223.204 265.821 224.038C265.821 224.871 266.497 225.546 267.33 225.546Z" fill="white"/>
</svg>
