<svg width="486" height="367" viewBox="0 0 486 367" fill="none" xmlns="http://www.w3.org/2000/svg">
<path d="M171.552 166.486C171.552 166.486 147.899 204.47 125.315 225.405C102.73 246.339 76.3874 267.79 92.3273 307.161C108.267 346.532 155.217 362.67 239.188 360.608C323.159 358.546 352.824 358.11 371.216 316.36C389.608 274.609 328.341 265.252 286.454 252.525C244.567 239.797 171.552 166.486 171.552 166.486Z" fill="#EBEFFB"/>
<path d="M167.478 249.432C167.478 249.432 155.968 293.997 197.024 304.584C238.08 315.17 314.734 313.584 343.568 293.006C372.403 272.428 167.478 249.432 167.478 249.432Z" fill="#9DD4F9"/>
<path d="M60.6055 326.589C56.5316 324.091 54.5934 318.58 56.1756 314.06C58.7861 306.685 65.5101 309.183 70.2961 305.298C75.9126 300.738 69.1095 293.561 69.505 288.169C69.9005 282.261 75.2402 276.512 76.8223 270.803C80.5008 257.639 65.5892 267.472 61.3175 265.926C59.5376 265.292 58.351 263.507 57.9555 261.644C56.9271 256.926 58.9048 253.08 56.2942 248.599C53.8024 244.278 50.124 242.335 51.1919 236.467C51.7852 233.136 53.8419 230.083 53.8024 226.713C53.8024 225.762 53.5255 224.651 52.6554 224.176C52.0225 223.819 51.2315 223.898 50.5195 224.176C48.2254 224.969 46.7224 227.149 44.8634 228.735C43.0044 230.321 40.0379 231.312 38.258 229.647C37.0714 228.537 36.9528 226.753 36.7155 225.127C36.2804 222.233 34.2632 220.211 31.7318 221.876C29.0026 223.7 30.031 230.916 30.4661 233.493C31.1385 237.577 32.1273 241.819 30.9012 245.784C28.884 252.326 23.4256 244.991 21.0129 242.811C19.0748 241.026 15.7919 239.956 13.8933 241.819C10.1358 245.507 16.1478 250.463 16.9785 253.952C17.374 255.617 16.8598 257.6 15.3963 258.472C11.085 260.97 7.40659 256.49 6.73419 263.19C6.29911 267.79 10.4127 272.151 7.8417 276.711C5.58717 280.715 -1.8488 282.42 1.07813 288.05C2.89758 291.5 10.6895 291.341 10.294 296.258C10.0171 299.469 5.23121 300.896 5.23121 304.108C5.23121 306.527 8.03946 307.954 10.4522 308.073C12.8649 308.192 15.3963 307.637 17.6113 308.588C20.1427 309.659 21.6062 312.752 20.8151 315.408C20.1427 317.708 18.0069 319.769 18.6793 322.069C19.4703 324.805 23.3069 324.924 26.1152 324.488C37.6647 322.703 50.0449 321.474 60.6055 326.589Z" fill="#FDC510"/>
<path d="M38.7722 325.439C39.1678 325.439 39.5237 325.122 39.5237 324.686V272.983C39.5237 272.587 39.2073 272.23 38.7722 272.23C38.3767 272.23 38.0208 272.547 38.0208 272.983V324.686C38.0208 325.082 38.3767 325.439 38.7722 325.439Z" fill="white"/>
<path d="M38.7723 305.297C38.9305 305.297 39.0887 305.258 39.2469 305.139C39.5633 304.861 39.6029 304.425 39.3656 304.108L25.8385 287.376C25.5616 287.059 25.1265 287.019 24.8101 287.257C24.4937 287.534 24.4541 287.971 24.6914 288.288L38.2186 305.02C38.3372 305.218 38.5349 305.297 38.7723 305.297Z" fill="white"/>
<path d="M38.7724 291.222C38.9306 291.222 39.1284 291.182 39.2471 291.063L55.3452 277.464C55.6616 277.186 55.7012 276.75 55.4243 276.433C55.1474 276.116 54.6727 276.076 54.3959 276.354L38.2978 289.953C37.9814 290.231 37.9418 290.667 38.2187 290.984C38.3374 291.103 38.5746 291.222 38.7724 291.222Z" fill="white"/>
<path d="M62.8602 319.333C60.7243 333.448 58.8258 348.237 55.266 361.876C54.9496 363.026 54.6331 364.216 53.9212 364.929C53.0906 365.802 51.904 365.802 50.836 365.802C44.6658 365.643 38.5351 366.04 32.3648 366.04C26.5505 366 21.725 366.476 21.1317 356.801C20.934 353.431 20.3802 319.373 17.2951 319.373C17.2951 319.333 62.8602 319.333 62.8602 319.333Z" fill="#3555DB"/>
<path d="M21.4481 327.778H58.7071C63.3348 327.778 67.1319 323.972 67.1319 319.333C67.1319 314.694 63.3348 310.888 58.7071 310.888H21.4481C16.8204 310.888 13.0233 314.694 13.0233 319.333C13.0233 323.972 16.8204 327.778 21.4481 327.778Z" fill="#0028D0"/>
<path d="M200.98 17.6439C200.98 17.6439 196.115 28.5077 203.709 35.2084C211.343 41.9091 221.705 36.5961 231.752 42.7417C241.798 48.8873 240.73 56.1431 236.103 72.3198C230.605 91.5496 224.632 90.9945 219.214 92.3822C213.834 93.77 212.213 108.837 211.619 115.815C211.026 122.793 210.077 127.511 229.3 136.987C248.522 146.463 238.041 160.975 236.103 179.769C233.967 200.545 258.569 212.558 262.841 217.554C267.112 222.55 277.159 223.422 282.657 212.796C288.155 202.21 260.23 194.399 262.682 177.39C265.135 160.38 280.007 148.922 258.964 132.229C237.922 115.537 242.075 102.136 249.076 88.457C256.077 74.7781 259.439 69.5048 253.664 51.9403C247.89 34.3757 254.06 39.6491 246.426 25.7323C238.792 11.7758 211.066 -3.5287 200.98 17.6439Z" fill="#011627"/>
<path d="M214.269 100.154L212.727 128.78L190.379 137.424C190.379 137.424 203.827 117.718 201.533 100.154C199.279 82.5891 214.269 100.154 214.269 100.154Z" fill="#D4A79A"/>
<path d="M162.455 193.011C162.455 193.011 163.918 190.275 168.388 176.279C172.818 162.283 174.439 157.089 180.61 143.569C186.78 130.049 199.635 121.564 199.635 121.564L215.693 120.691C215.693 120.691 217.671 120.81 226.926 128.502C236.182 136.194 245.081 158.08 245.081 158.08L249.036 201.655L221.231 222.193L201.573 229.29C202.522 228.021 203.274 226.673 203.748 225.246C207.031 215.453 195.996 161.133 195.64 156.296C195.284 151.459 185.949 197.531 185.949 197.531L177.88 195.192L172.343 212.915L168.862 194.835L162.455 193.011Z" fill="#FF644E"/>
<path d="M171.236 216.523L172.343 212.955L174.163 222.272L171.236 216.523Z" fill="url(#paint0_linear)"/>
<path d="M185.989 197.571C185.989 197.571 195.324 151.499 195.68 156.336C196.036 161.173 207.071 215.453 203.788 225.285C203.313 226.713 202.562 228.061 201.613 229.33L181.401 236.625L174.163 222.272L172.383 212.915L177.92 195.192L185.989 197.571Z" fill="#FDC510"/>
<path d="M185.989 197.571C185.989 197.571 195.324 151.499 195.68 156.336C196.036 161.173 207.071 215.453 203.788 225.285C203.313 226.713 202.562 228.061 201.613 229.33L181.401 236.625L174.163 222.272L172.383 212.915L177.92 195.192L185.989 197.571Z" fill="#C6110C"/>
<path d="M349.739 180.284L236.261 185.756L214.27 207.127L320.232 204.47L349.739 180.284Z" fill="black"/>
<path d="M242.748 189.205L345.19 182.267C347.959 182.465 350.372 180.601 350.569 178.103L371.216 122.595C371.414 120.057 369.318 117.837 366.549 117.639L264.106 124.577C261.338 124.379 258.925 126.243 258.727 128.74L238.08 184.249C237.883 186.787 239.979 189.007 242.748 189.205Z" fill="#9DD4F9"/>
<path d="M294.137 158.09C292.921 152.484 297.231 146.785 303.763 145.362C310.295 143.939 316.576 147.33 317.792 152.936C319.007 158.543 314.697 164.241 308.165 165.664C301.633 167.088 295.353 163.696 294.137 158.09Z" fill="white"/>
<path d="M396.411 278.852L425.364 321.395L412.193 332.576L384.585 286.385C384.585 286.385 390.914 279.248 396.411 278.852Z" fill="#D4A79A"/>
<path d="M484.061 345.105C484.061 345.105 472.907 348.911 451.588 350.497C430.229 352.083 406.418 352.876 402.067 349.704C397.717 346.532 394.948 319.531 402.067 319.531C409.187 319.531 411.956 329.84 424.494 320.641C435.252 312.751 443.835 327.62 462.544 331.584C481.253 335.549 488.847 337.135 484.061 345.105Z" fill="#DB910E"/>
<path d="M216.128 232.859C218.699 228.022 232.543 230.757 249.155 224.572C265.767 218.387 276.486 205.382 295.353 190.395C314.22 175.407 312.915 178.024 321.063 177.39C329.211 176.755 339.297 198.8 344.953 210.457C356.937 234.96 372.086 256.886 394.711 271.12C401.593 275.442 431.89 291.936 436.953 298.835C447.633 313.346 395.185 313.465 381.46 315.17C367.894 316.835 360.299 309.104 354.802 296.892C348.552 282.975 341.67 269.336 334.827 255.697C331.386 248.877 327.945 242.057 324.622 235.198C323.159 232.224 320.034 221.519 316.554 220.171C305.795 216.087 291.635 248.877 288.629 256.291C282.538 271.16 260.349 288.486 244.171 290.231C228.034 291.975 215.891 281.191 210.591 265.45C205.251 249.71 216.128 232.859 216.128 232.859Z" fill="#030047"/>
<path d="M341.156 282.063L370.108 324.606L356.937 335.787L329.329 289.636C329.369 289.596 335.658 282.459 341.156 282.063Z" fill="#EAC2AB"/>
<path d="M428.805 348.317C428.805 348.317 417.651 352.123 396.332 353.709C374.974 355.295 351.163 356.088 346.812 352.916C342.461 349.744 339.692 322.743 346.812 322.743C353.931 322.743 356.7 333.052 369.238 323.853C379.997 315.963 388.58 330.832 407.288 334.796C425.997 338.801 433.591 340.387 428.805 348.317Z" fill="#FDC510"/>
<path d="M174.202 232.859C176.654 228.022 189.905 230.757 205.765 224.572C221.626 218.387 231.87 205.382 249.907 190.395C267.943 175.407 266.717 178.024 274.469 177.39C282.261 176.755 291.873 198.8 297.331 210.457C314.062 246.26 348.473 270.287 379.759 292.412C381.698 293.799 383.873 295.702 383.477 298.042C383.28 299.231 382.41 300.222 381.539 301.055C369.911 312.315 348.157 317.351 332.533 316.637C316.791 315.884 308.247 302.72 302.275 289.715C291.635 266.402 281.233 242.414 268.299 220.29C263.434 212.003 247.969 245.507 246.624 248.639C238.594 267.274 222.694 287.812 200.94 290.231C185.514 291.975 173.886 281.191 168.823 265.45C163.839 249.71 174.202 232.859 174.202 232.859Z" fill="#2B2B68"/>
<path d="M234.244 39.213C234.244 39.213 246.189 48.0548 241.442 67.8793C236.696 87.7038 221.903 104.634 215.97 103.444C199.477 100.154 193.702 88.4571 188.006 78.4656C181.005 66.1744 194.928 36.1997 194.928 36.1997L208.06 29.1025L234.244 39.213Z" fill="#EAC2AB"/>
<path d="M210.433 30.4504C210.433 30.4504 202.127 33.2258 194.849 44.9619C187.571 56.6584 192.357 58.5616 192.357 74.2626C192.357 78.8619 193.227 83.3818 195.68 87.2674C197.499 90.1222 200.03 92.3425 201.929 95.1179C204.263 98.6467 205.054 102.612 204.856 106.775C204.46 115.616 203.036 122.991 195.205 127.987C186.701 133.379 182.746 140.635 180.531 150.389C177.881 162.085 158.618 168.707 151.934 164.226C145.21 159.746 165.224 162.759 161.268 143.49C157.313 124.22 155.929 116.092 167.518 110.74C179.107 105.387 173.569 103.999 167.478 92.2632C161.387 80.5271 177.09 80.6857 170.88 60.3061C163.721 36.7943 170.207 10.5466 205.291 17.8024C240.374 25.0581 210.433 30.4504 210.433 30.4504Z" fill="#011627"/>
<path d="M218.976 52.8522C208.93 46.7066 211.343 41.9091 203.709 35.2084C196.075 28.5077 200.98 17.6439 200.98 17.6439C211.026 -3.5287 238.792 11.7758 246.426 25.7323C254.06 39.6491 247.969 34.3758 253.743 51.9403C257.738 64.0332 257.382 70.3374 254.495 77.5139L238.08 84.1749C244.725 58.9185 226.571 57.4515 218.976 52.8522Z" fill="#011627"/>
<path d="M178.157 215.77C178.157 215.77 178.157 222.59 180.768 221.361C183.378 220.131 207.704 204.906 210.907 201.298C214.111 197.69 221.666 184.725 222.022 182.108C222.378 179.491 221.152 179.372 226.214 180.126C231.277 180.879 240.414 183.734 239.069 185.32C237.724 186.945 233.888 185.795 233.888 185.795C233.888 185.795 238.357 188.65 236.182 189.007C234.006 189.364 227.559 188.135 227.559 190.117C227.559 192.1 227.915 198.8 226.452 202.131C224.988 205.461 223.129 206.571 218.304 207.721C213.478 208.831 212.648 208.475 208.692 212.558C204.737 216.642 182.627 236.348 179.779 237.339C176.931 238.33 175.705 240.075 172.264 233.731C168.823 227.427 166.331 222.59 166.094 212.677C165.856 202.765 166.964 193.249 166.964 193.249L177.96 195.232C177.881 195.232 176.931 206.373 178.157 215.77Z" fill="#EAC2AB"/>
<path d="M142.599 90.003C140.621 80.963 136.231 71.923 132.988 63.2399C131.287 58.6406 127.49 52.4157 127.134 47.4596C127.015 45.834 125.473 44.6445 123.693 44.7634L57.9159 40.3228C56.136 40.4417 54.7912 41.8691 54.9098 43.4947L68.1601 79.1391C68.2788 80.7648 69.8213 81.9542 71.6012 81.8353L124.682 85.2451C127.925 87.2275 133.106 89.21 136.35 91.1528C139.949 93.3731 144.379 98.3293 142.599 90.003Z" fill="#EBEFFB"/>
<path d="M94.977 67.3238L73.6183 66.4119C72.1944 66.3326 71.0473 65.1034 71.1264 63.6761C71.2055 62.2487 72.4317 61.0989 73.8556 61.1782L95.2143 62.0901C96.6382 62.1694 97.7853 63.3985 97.7062 64.8259C97.6271 66.2533 96.4009 67.3634 94.977 67.3238Z" fill="white"/>
<path d="M110.363 58.4424L71.6407 56.7375C70.2168 56.6582 69.0698 55.4291 69.1489 54.0018C69.228 52.5744 70.4541 51.4246 71.8781 51.5039L110.601 53.2088C112.024 53.2881 113.171 54.5172 113.092 55.9446C113.013 57.3719 111.787 58.5217 110.363 58.4424Z" fill="white"/>
<path d="M335.183 98.1312C337.477 87.6639 342.54 77.1965 346.298 67.1653C348.275 61.8127 352.666 54.6362 353.101 48.8871C353.259 47.0236 355.039 45.6359 357.096 45.7945L433.235 40.6401C435.292 40.7987 436.835 42.464 436.716 44.3275L421.369 85.6021C421.211 87.4656 419.431 88.8533 417.375 88.6947L355.949 92.62C352.191 94.9196 346.219 97.2193 342.461 99.4793C338.268 102.017 333.087 107.726 335.183 98.1312Z" fill="#EBEFFB"/>
<path d="M390.32 71.8439L415.08 70.7733C416.741 70.694 418.047 69.2667 417.968 67.6014C417.888 65.9362 416.465 64.6277 414.803 64.707L390.043 65.7776C388.382 65.8569 387.077 67.2842 387.156 68.9495C387.235 70.6147 388.659 71.9232 390.32 71.8439Z" fill="white"/>
<path d="M372.521 61.575L417.335 59.6322C418.996 59.5529 420.301 58.1256 420.222 56.4603C420.143 54.795 418.719 53.4866 417.058 53.5659L372.244 55.5087C370.583 55.588 369.278 57.0154 369.357 58.6806C369.436 60.3459 370.86 61.6543 372.521 61.575Z" fill="white"/>
<path d="M293.376 37.0322C294.839 30.2918 298.122 23.5515 300.535 17.0887C301.8 13.6393 304.609 9.00033 304.925 5.31297C305.004 4.1235 306.151 3.21157 307.496 3.33052L356.502 0C357.808 0.118947 358.836 1.14982 358.717 2.37894L348.829 28.9438C348.75 30.1332 347.603 31.0452 346.258 30.9262L306.705 33.4638C304.292 34.9308 300.456 36.3978 298.003 37.8648C295.353 39.5301 292.031 43.2174 293.376 37.0322Z" fill="#EBEFFB"/>
<path d="M328.855 20.1015L344.794 19.4275C345.862 19.3878 346.693 18.4759 346.653 17.4054C346.614 16.3349 345.704 15.5022 344.636 15.5419L328.696 16.2159C327.628 16.2556 326.798 17.1675 326.837 18.238C326.877 19.3085 327.787 20.1412 328.855 20.1015Z" fill="white"/>
<path d="M317.424 13.4804L346.298 12.2117C347.366 12.172 348.196 11.2601 348.157 10.1896C348.117 9.11905 347.207 8.28642 346.139 8.32607L317.266 9.59483C316.198 9.63448 315.367 10.5464 315.407 11.6169C315.446 12.6875 316.356 13.5201 317.424 13.4804Z" fill="white"/>
<path d="M290.409 75.4523L315.169 74.3817C316.831 74.3024 318.136 72.8751 318.057 71.2098C317.978 69.5446 316.554 68.2361 314.892 68.3154L290.132 69.386C288.471 69.4653 287.166 70.8926 287.245 72.5579C287.324 74.2231 288.748 75.5316 290.409 75.4523Z" fill="#EBEFFB"/>
<path d="M287.917 87.5846L312.677 86.514C314.339 86.4347 315.644 85.0074 315.565 83.3421C315.486 81.6769 314.062 80.3685 312.401 80.4478L287.64 81.5183C285.979 81.5976 284.674 83.0249 284.753 84.6902C284.832 86.3555 286.256 87.6639 287.917 87.5846Z" fill="#EBEFFB"/>
<path d="M283.527 100.034L308.287 98.9638C309.948 98.8845 311.253 97.4571 311.174 95.7918C311.095 94.1266 309.671 92.8182 308.01 92.8975L283.25 93.968C281.589 94.0473 280.283 95.4747 280.363 97.1399C280.442 98.8052 281.866 100.114 283.527 100.034Z" fill="#EBEFFB"/>
<defs>
<linearGradient id="paint0_linear" x1="173.152" y1="217.727" x2="198.018" y2="128.084" gradientUnits="userSpaceOnUse">
<stop stop-color="#A7ADFF"/>
<stop offset="1" stop-color="#E3E5FC"/>
</linearGradient>
</defs>
</svg>
