<svg width="394" height="547" viewBox="0 0 394 547" fill="none" xmlns="http://www.w3.org/2000/svg">
<path d="M26.3981 430.106H187.44C201.412 430.106 212.895 418.647 212.895 404.579V25.5273C212.895 11.5156 201.469 0 187.44 0H26.3981C12.4264 0 0.943542 11.4589 0.943542 25.5273V404.636C1.00011 418.647 12.4264 430.106 26.3981 430.106Z" fill="#4256D6"/>
<path d="M39.8607 390H173.978C187.95 390 199.432 378.541 199.432 364.473V39.936C199.432 25.9243 188.006 14.4087 173.978 14.4087H39.8607C25.8889 14.4087 14.4061 25.8676 14.4061 39.936V364.473C14.4061 378.541 25.8889 390 39.8607 390Z" fill="#EBEFFB"/>
<path d="M86.9798 9.81372H126.915C127.877 9.81372 128.669 9.01954 128.669 8.05518C128.669 7.09081 127.877 6.29663 126.915 6.29663H86.9798C86.0182 6.29663 85.2263 7.09081 85.2263 8.05518C85.1697 9.01954 86.0182 9.81372 86.9798 9.81372Z" fill="#E3E5FC"/>
<path d="M106.947 419.725C100.887 419.725 95.9737 414.798 95.9737 408.72C95.9737 402.642 100.887 397.715 106.947 397.715C113.008 397.715 117.921 402.642 117.921 408.72C117.921 414.798 113.008 419.725 106.947 419.725Z" fill="#E3E5FC"/>
<path d="M56.4908 345.185H157.347C166.341 345.185 173.695 337.811 173.695 328.791V322.438C173.695 313.418 166.341 306.043 157.347 306.043H56.4342C47.4403 306.043 40.0867 313.418 40.0867 322.438V328.791C40.1433 337.811 47.4968 345.185 56.4908 345.185Z" fill="#FF644E"/>
<path d="M105.816 117.879C114.301 115.78 116.394 90.253 124.879 90.253C143.489 91.9549 149.937 116.688 160.458 135.238C159.101 142.896 152.37 148.739 144.394 148.739H69.7838C60.7898 148.739 53.4363 141.364 53.4363 132.345V78.6807C56.0383 78.9076 58.6969 79.8152 61.2989 81.7439C76.1191 94.5076 86.7535 122.134 105.816 117.879Z" fill="#3555DB"/>
<path d="M69.6142 56.6138H144.224C153.218 56.6138 160.572 63.9883 160.572 73.0079V132.345C160.572 133.309 160.459 134.273 160.289 135.238C149.824 116.688 143.376 91.9549 124.709 90.253C116.224 90.253 114.131 115.78 105.647 117.879C86.5839 122.134 75.9495 94.5076 61.1293 81.744C58.4707 79.872 55.8122 78.9076 53.2667 78.6807V73.0079C53.2667 64.045 60.6202 56.6138 69.6142 56.6138Z" fill="white"/>
<path d="M58.5273 183.342H155.311C157.913 183.342 160.006 181.187 160.006 178.634C160.006 176.025 157.857 173.926 155.311 173.926H58.5273C55.9253 173.926 53.8323 176.081 53.8323 178.634C53.8323 181.244 55.9253 183.342 58.5273 183.342Z" fill="#4256D6"/>
<path d="M58.5273 205.012H155.311C157.913 205.012 160.006 202.857 160.006 200.304C160.006 197.695 157.857 195.596 155.311 195.596H58.5273C55.9253 195.596 53.8323 197.751 53.8323 200.304C53.8323 202.914 55.9253 205.012 58.5273 205.012Z" fill="#4256D6"/>
<path d="M58.5273 226.739H155.311C157.913 226.739 160.006 224.583 160.006 222.031C160.006 219.421 157.857 217.322 155.311 217.322H58.5273C55.9253 217.322 53.8323 219.478 53.8323 222.031C53.8323 224.583 55.9253 226.739 58.5273 226.739Z" fill="#4256D6"/>
<path d="M96.3132 94.7346C91.1273 94.7346 86.9234 90.5186 86.9234 85.3178C86.9234 80.1171 91.1273 75.9011 96.3132 75.9011C101.499 75.9011 105.703 80.1171 105.703 85.3178C105.703 90.5186 101.499 94.7346 96.3132 94.7346Z" fill="#3555DB"/>
<path d="M107.739 287.607C108.362 287.097 108.418 286.246 107.966 285.622L95.012 269.681C94.5029 269.057 93.6545 269.001 93.0322 269.454C92.41 269.965 92.3534 270.816 92.806 271.44L105.759 287.38C106.212 288.004 107.117 288.118 107.739 287.607Z" fill="white"/>
<path d="M106.099 287.607C105.477 287.097 105.42 286.246 105.873 285.622L118.826 269.681C119.335 269.057 120.184 269.001 120.806 269.454C121.428 269.965 121.485 270.816 121.032 271.44L108.079 287.38C107.626 288.004 106.721 288.118 106.099 287.607Z" fill="white"/>
<path d="M326.366 208.246C326.366 208.246 339.263 225.321 339.998 237.687C340.79 250.11 308.152 255.046 308.152 255.046L326.366 208.246Z" fill="#D4A79A"/>
<path d="M289.994 160.765L291.352 186.519L311.432 194.291C311.432 194.291 299.327 176.535 301.364 160.765C303.513 144.995 289.994 160.765 289.994 160.765Z" fill="#D4A79A"/>
<path d="M272.006 108.065C272.006 108.065 267.651 113.908 271.893 131.721C276.135 149.533 283.093 164.793 288.467 163.715C303.287 160.765 308.491 150.214 313.638 141.194C319.917 130.132 307.416 103.13 307.416 103.13L295.594 96.72L272.006 108.065Z" fill="#EAC2AB"/>
<path d="M256.224 103.244C254.923 99.0458 257.186 93.7134 260.241 91.104C261.428 90.0829 262.899 89.4589 264.37 89.6291C265.501 89.7425 266.576 90.2531 267.651 90.0829C270.931 89.5156 271.327 84.6371 274.438 83.6727C276.701 82.9353 278.907 85.0342 281.226 85.5447C282.98 85.9418 284.79 85.488 286.6 85.0909C291.578 84.0698 296.216 81.6305 301.307 81.0065C305.606 80.496 310.131 80.9498 314.034 83.0487C318.107 85.2611 321.049 89.2887 322.576 93.9403C323.481 96.72 323.82 99.84 323.085 102.676C323.707 100.351 327.893 102.847 328.572 103.754C331.23 107.385 331.683 115.213 330.269 119.411C329.137 122.758 327.271 125.708 326.253 129.055C325.008 133.082 324.499 137.564 322.293 141.137C319.748 145.222 314.657 147.321 310.301 146.186C311.659 142.499 312.96 138.698 313.242 134.671C313.469 130.7 318.729 112.66 299.214 108.803C291.465 107.271 282.075 113.738 274.269 114.079C270.592 114.249 266.859 113.511 263.408 112.093C260.75 111.015 258.091 106.988 256.62 104.038C256.451 103.868 256.337 103.584 256.224 103.244Z" fill="#011627"/>
<path d="M313.186 121.85C313.186 121.85 318.673 115.667 318.05 125.084C317.428 134.5 312.507 136.486 312.507 136.486L313.186 121.85Z" fill="#EAC2AB"/>
<path d="M359.852 483.713L371.675 514.913L382.479 512.02L368.168 480.196C368.168 480.196 362.059 480.934 359.852 483.713Z" fill="#D4A79A"/>
<path d="M344.014 543.958C344.41 544.582 348.2 544.355 348.766 544.355C354.648 544.468 363.756 544.865 368.79 541.462C373.711 538.115 376.935 532.385 381.291 528.358C384.345 525.521 388.305 523.82 391.925 521.834C395.941 519.622 387.796 501.299 382.931 504.249C378.972 506.631 380.951 513.325 370.883 512.417C362.285 511.68 367.715 523.99 357.76 531.364C348.879 537.831 339.772 536.867 344.014 543.958Z" fill="#DB910E"/>
<path d="M337.962 372.358C342.77 398.566 352.782 422.448 367.715 444.515C374.956 455.236 382.762 465.617 390.285 476.169C401.032 491.201 364.604 494.775 355.667 497.441C349.784 499.2 341.073 499.654 341.469 495.116C341.582 493.811 342.6 492.449 343.449 491.201C351.142 479.459 344.41 467.603 339.093 457.052C323.198 425.455 312.451 389.036 299.95 356.077C295.198 343.54 297.348 331.174 296.669 317.446C296.216 309.05 310.81 271.951 326.705 281.084C336.604 286.756 331.117 308.426 330.043 317.106C329.307 323.119 328.006 329.642 329.024 335.712C331.061 348.135 335.699 359.935 337.962 372.358Z" fill="#030047"/>
<path d="M299.214 494.208L291.861 527.79L302.778 531.421L308.378 495.91C308.378 495.91 302.721 493.073 299.214 494.208Z" fill="#EAC2AB"/>
<path d="M247.061 541.008C247.061 541.008 255.263 543.788 270.931 544.979C286.6 546.17 304.135 546.738 307.303 544.412C310.471 542.086 312.507 522.231 307.303 522.231C302.099 522.231 300.063 529.833 290.842 523.026C282.923 517.239 276.644 528.188 262.899 531.081C249.097 534.031 243.497 535.165 247.061 541.008Z" fill="#FDC510"/>
<path d="M270.705 503.625C271.214 502.377 272.628 501.469 273.816 500.505C284.79 491.769 282.075 478.381 280.321 466.695C276.135 439.012 280.604 411.102 282.301 383.363C283.942 356.304 281.226 329.188 275.061 302.867C272.798 293.28 269.744 278.474 284.507 281.31C291.521 282.615 298.422 282.388 305.38 281.14C309.057 280.516 305.323 279.325 309.057 280.516C321.841 284.601 326.592 308.766 323.933 317.219C318.729 334.01 317.032 350.064 316.184 367.876C314.996 393.063 310.81 418.307 313.808 443.267C315.279 455.52 316.976 467.716 318.616 479.969C319.578 487.117 325.517 502.717 321.501 509.184C316.014 518.033 291.634 510.545 283.489 510.318C277.38 510.092 268.952 507.766 270.705 503.625Z" fill="#2B2B68"/>
<path d="M281.566 234.454C285.242 219.421 281.226 194.064 291.804 182.889C292.879 181.754 294.067 180.62 295.481 179.939C308.774 173.926 316.806 184.874 322.519 194.348C328.232 203.878 328.119 214.145 330.891 224.753C334.059 236.836 333.436 249.486 333.663 261.966C333.776 269.568 332.871 277.169 333.323 284.771C333.606 290.103 334.398 295.379 335.586 300.541C336.378 304.001 340.903 310.865 339.602 314.326C338.584 317.105 333.776 316.084 331.457 316.141C322.406 316.425 313.525 313.758 305.493 309.731C298.139 306.1 291.691 300.428 283.206 299.747C279.02 299.406 265.727 301.108 267.65 293.45C272.176 275.241 277.323 259.697 279.19 246.877C279.756 242.849 280.547 238.652 281.566 234.454Z" fill="#FF644E"/>
<path d="M263.125 247.104C263.125 247.104 247.57 264.349 245.081 261.91C242.535 259.47 196.095 209.721 193.776 204.275C191.457 198.886 185.913 183.172 186.479 180.052C187.045 176.875 188.515 177.216 182.406 176.138C176.241 175.003 164.531 174.777 165.493 177.159C166.455 179.542 171.319 179.769 171.319 179.769C171.319 179.769 165.041 181.3 167.416 182.605C169.792 183.91 177.711 184.987 176.976 187.257C176.184 189.526 175.053 194.801 175.505 199.283C175.901 203.764 177.655 205.75 182.802 208.926C187.95 212.103 188.855 209.891 191.853 216.187C194.851 222.484 240.386 277.056 243.327 279.268C246.269 281.481 247.004 284.033 253.453 278.077C259.901 272.121 271.271 257.315 280.378 247.785C288.75 239.049 292.144 226.682 292.144 226.682L278.624 224.697C278.511 224.583 276.927 233.943 263.125 247.104Z" fill="#EAC2AB"/>
<path d="M273.081 224.924C273.081 224.924 283.772 190.15 297.63 196.787C311.489 203.424 292.03 240.58 292.03 240.58L269.574 229.348L273.081 224.924Z" fill="#C6110C"/>
</svg>
