<?xml version="1.0" encoding="UTF-8" standalone="no"?>
<svg
   xmlns:dc="http://purl.org/dc/elements/1.1/"
   xmlns:cc="http://creativecommons.org/ns#"
   xmlns:rdf="http://www.w3.org/1999/02/22-rdf-syntax-ns#"
   xmlns:svg="http://www.w3.org/2000/svg"
   xmlns="http://www.w3.org/2000/svg"
   xmlns:sodipodi="http://sodipodi.sourceforge.net/DTD/sodipodi-0.dtd"
   xmlns:inkscape="http://www.inkscape.org/namespaces/inkscape"
   width="321.62326"
   height="258.64072"
   viewBox="0 0 321.62326 258.64072"
   version="1.1"
   id="svg53"
   sodipodi:docname="counter-left-leaf-desktop-inkskape.svg"
   style="fill:none"
   inkscape:version="0.92.4 (5da689c313, 2019-01-14)">
  <metadata
     id="metadata57">
    <rdf:RDF>
      <cc:Work
         rdf:about="">
        <dc:format>image/svg+xml</dc:format>
        <dc:type
           rdf:resource="http://purl.org/dc/dcmitype/StillImage" />
        <dc:title></dc:title>
      </cc:Work>
    </rdf:RDF>
  </metadata>
  <sodipodi:namedview
     pagecolor="#ffffff"
     bordercolor="#666666"
     borderopacity="1"
     objecttolerance="10"
     gridtolerance="10"
     guidetolerance="10"
     inkscape:pageopacity="0"
     inkscape:pageshadow="2"
     inkscape:window-width="1314"
     inkscape:window-height="858"
     id="namedview55"
     showgrid="false"
     inkscape:zoom="0.52212389"
     inkscape:cx="191.7593"
     inkscape:cy="146.32052"
     inkscape:window-x="0"
     inkscape:window-y="0"
     inkscape:window-maximized="0"
     inkscape:current-layer="svg53"
     fit-margin-top="0"
     fit-margin-left="0"
     fit-margin-right="0"
     fit-margin-bottom="0" />
  <g
     clip-path="url(#clip0)"
     id="g46"
     inkscape:export-xdpi="96"
     inkscape:export-ydpi="96"
     transform="translate(-20.7407,-113.67982)">
    <path
       d="m 109.562,143.638 c 0,0 -6.093,55.902 50.484,59.604 46.38,3.076 66.028,60.135 66.028,60.135"
       stroke-miterlimit="10"
       id="path2"
       inkscape:connector-curvature="0"
       style="stroke:#ff644e;stroke-width:3;stroke-linecap:round;stroke-linejoin:round;stroke-miterlimit:10" />
    <path
       d="m 115.847,144.367 c 4.165,-3.298 4.867,-9.348 1.569,-13.512 -3.298,-4.165 -9.347,-4.867 -13.512,-1.569 -4.1646,3.298 -4.8671,9.348 -1.569,13.512 3.298,4.165 9.348,4.867 13.512,1.569 z"
       id="path4"
       inkscape:connector-curvature="0"
       style="fill:#ff644e" />
    <path
       d="m 150.993,165.329 c 0,0 50.87,24.059 24.419,74.253 -21.654,41.117 16.719,87.771 16.719,87.771"
       stroke-miterlimit="10"
       id="path6"
       inkscape:connector-curvature="0"
       style="stroke:#ff644e;stroke-width:3;stroke-linecap:round;stroke-linejoin:round;stroke-miterlimit:10" />
    <path
       d="m 155.806,170.504 c 4.165,-3.298 4.867,-9.348 1.569,-13.512 -3.298,-4.165 -9.347,-4.867 -13.512,-1.569 -4.165,3.298 -4.867,9.348 -1.569,13.512 3.298,4.165 9.348,4.867 13.512,1.569 z"
       id="path8"
       inkscape:connector-curvature="0"
       style="fill:#ff644e" />
    <path
       d="m 319.58,238.404 c 14.79,15.252 23.318,35.749 22.758,57.022 -0.691,23.089 -11.816,51.017 -55.098,67.888 -83.571,32.654 -136.872,-32.85 -149.287,-47.986 -12.415,-15.136 -41.4889,-66.442 -117.2123,-140.441 0,0 93.2453,56.129 159.1983,32.575 70.589,-25.085 117.378,8.054 139.641,30.942 z"
       id="path10"
       inkscape:connector-curvature="0"
       style="fill:#ff644e" />
    <path
       d="M 329.212,261.736 C 297.692,277.424 195.06,317.898 110.003,231.031"
       stroke-miterlimit="10"
       id="path12"
       inkscape:connector-curvature="0"
       style="stroke:#ffffff;stroke-width:3;stroke-linecap:round;stroke-linejoin:round;stroke-miterlimit:10" />
    <path
       d="m 163.583,226.263 c 0,0 8.211,31.447 36.81,55.309"
       stroke-miterlimit="10"
       id="path14"
       inkscape:connector-curvature="0"
       style="stroke:#ffffff;stroke-width:3;stroke-linecap:round;stroke-linejoin:round;stroke-miterlimit:10" />
    <path
       d="M 234.283,284.552 C 202.644,257.391 197.757,221.314 197.757,221.314"
       stroke-miterlimit="10"
       id="path16"
       inkscape:connector-curvature="0"
       style="stroke:#ffffff;stroke-width:3;stroke-linecap:round;stroke-linejoin:round;stroke-miterlimit:10" />
    <path
       d="M 275.721,280.127 C 245.152,248.552 243.612,210.394 243.612,210.394"
       stroke-miterlimit="10"
       id="path18"
       inkscape:connector-curvature="0"
       style="stroke:#ffffff;stroke-width:3;stroke-linecap:round;stroke-linejoin:round;stroke-miterlimit:10" />
    <path
       d="m 247.617,364.444 c 0,0 10.311,-50.396 63.721,-94.832"
       stroke-miterlimit="10"
       id="path20"
       inkscape:connector-curvature="0"
       style="stroke:#ffffff;stroke-width:3;stroke-linecap:round;stroke-linejoin:round;stroke-miterlimit:10" />
    <path
       d="m 210.617,358.079 c 0,0 7.396,-43.808 49.631,-74.972"
       stroke-miterlimit="10"
       id="path22"
       inkscape:connector-curvature="0"
       style="stroke:#ffffff;stroke-width:3;stroke-linecap:round;stroke-linejoin:round;stroke-miterlimit:10" />
    <path
       d="m 173.172,335.659 c 0,0 8.904,-30.734 54.874,-50.875"
       stroke-miterlimit="10"
       id="path24"
       inkscape:connector-curvature="0"
       style="stroke:#ffffff;stroke-width:3;stroke-linecap:round;stroke-linejoin:round;stroke-miterlimit:10" />
    <path
       d="M 101.785,207.862 C 67.232,169.455 30.1968,173.674 21.5592,175.378 c -0.0877,0.07 -0.1571,-0.018 -0.2448,0.052 75.2703,73.787 104.2936,124.849 116.7076,139.985 6.546,8.084 24.672,30.253 52.707,44.575 -47.871,-61.53 -30.018,-61.687 -72.476,-130.073 -5.442,-8.673 -10.891,-15.914 -16.468,-22.055 z"
       id="path26"
       inkscape:connector-curvature="0"
       style="fill:#c6110c" />
    <path
       d="m 136.35,127.561 c 0,0 49.779,11.512 65.153,71.1 15.373,59.588 67.192,54.219 88.009,34.024 20.817,-20.195 34.499,-53.002 4.559,-81.08 C 264.13,123.526 205.914,108.567 136.35,127.561 Z"
       id="path28"
       inkscape:connector-curvature="0"
       style="fill:#c6110c" />
    <path
       d="m 141.443,122.101 c 0,0 49.779,11.512 65.152,71.1 15.374,59.588 60.507,63.793 81.324,43.598 20.817,-20.195 41.185,-62.576 11.244,-90.654 -30.046,-27.852 -88.244,-42.969 -157.72,-24.044 z"
       id="path30"
       inkscape:connector-curvature="0"
       style="fill:#ff644e" />
    <path
       d="m 171.975,125.883 c 0,0 54.209,-4.694 109.139,98.898"
       stroke-miterlimit="10"
       id="path32"
       inkscape:connector-curvature="0"
       style="stroke:#ffffff;stroke-width:3;stroke-linecap:round;stroke-linejoin:round;stroke-miterlimit:10" />
    <path
       d="m 194.524,154.536 c 0,0 9.038,-15.432 25.825,-8.467"
       stroke-miterlimit="10"
       id="path34"
       inkscape:connector-curvature="0"
       style="stroke:#ffffff;stroke-width:3;stroke-linecap:round;stroke-linejoin:round;stroke-miterlimit:10" />
    <path
       d="m 255.555,130.175 c 0,0 -21.53,16.051 -6.877,44.823"
       stroke-miterlimit="10"
       id="path36"
       inkscape:connector-curvature="0"
       style="stroke:#ffffff;stroke-width:3;stroke-linecap:round;stroke-linejoin:round;stroke-miterlimit:10" />
    <path
       d="m 230.967,125.246 c 0,0 -8.475,11.277 -4.004,25.571"
       stroke-miterlimit="10"
       id="path38"
       inkscape:connector-curvature="0"
       style="stroke:#ffffff;stroke-width:3;stroke-linecap:round;stroke-linejoin:round;stroke-miterlimit:10" />
    <path
       d="m 208.756,176.651 c 0,0 10.396,-18.22 28.25,-14.953"
       stroke-miterlimit="10"
       id="path40"
       inkscape:connector-curvature="0"
       style="stroke:#ffffff;stroke-width:3;stroke-linecap:round;stroke-linejoin:round;stroke-miterlimit:10" />
    <path
       d="m 261.744,192.756 c 0,0 -0.242,-28.771 19.71,-43.573"
       stroke-miterlimit="10"
       id="path42"
       inkscape:connector-curvature="0"
       style="stroke:#ffffff;stroke-width:3;stroke-linecap:round;stroke-linejoin:round;stroke-miterlimit:10" />
    <path
       d="m 254.058,182.148 c 0,0 -22.866,0.132 -34.23,26.68"
       stroke-miterlimit="10"
       id="path44"
       inkscape:connector-curvature="0"
       style="stroke:#ffffff;stroke-width:3;stroke-linecap:round;stroke-linejoin:round;stroke-miterlimit:10" />
  </g>
  <defs
     id="defs51">
    <clipPath
       id="clip0">
      <rect
         x="20.7407"
         y="174.88699"
         width="236.56"
         height="318.53601"
         transform="rotate(-38.3768,20.7407,174.887)"
         id="rect48"
         style="fill:#ffffff" />
    </clipPath>
  </defs>
</svg>
